STARTFONT 2.1
FONT -FontForge-STIX Two Math-Book-R-Normal--32-320-72-72-P-219-ISO10646-1
SIZE 32 72 72
FONTBOUNDINGBOX 129 136 -31 -52
COMMENT "Generated by fontforge, http://fontforge.sourceforge.net"
COMMENT "Copyright 2001-2021 The STIX Fonts Project Authors (https://github.com/stipub/stixfonts)"
STARTPROPERTIES 40
FOUNDRY "FontForge"
FAMILY_NAME "STIX Two Math"
WEIGHT_NAME "Book"
SLANT "R"
SETWIDTH_NAME "Normal"
ADD_STYLE_NAME ""
PIXEL_SIZE 32
POINT_SIZE 320
RESOLUTION_X 72
RESOLUTION_Y 72
SPACING "P"
AVERAGE_WIDTH 219
CHARSET_REGISTRY "ISO10646"
CHARSET_ENCODING "1"
FONTNAME_REGISTRY ""
CHARSET_COLLECTIONS "ASCII ISOLatin1Encoding ISO8859-2 ISO8859-5 ISO8859-7 ISO8859-9 ISO8859-4 ISO10646-1"
FONT_NAME "STIXTwoMath-Regular"
FACE_NAME "STIX Two Math Regular"
COPYRIGHT "Copyright 2001-2021 The STIX Fonts Project Authors (https://github.com/stipub/stixfonts)"
FONT_VERSION "2.12 b168a"
FONT_ASCENT 24
FONT_DESCENT 8
UNDERLINE_POSITION -3
UNDERLINE_THICKNESS 2
X_HEIGHT 15
CAP_HEIGHT 21
RAW_ASCENT 762
RAW_DESCENT 238
NORM_SPACE 8
RELATIVE_WEIGHT 40
RELATIVE_SETWIDTH 50
SUPERSCRIPT_X 0
SUPERSCRIPT_Y 16
SUPERSCRIPT_SIZE 16
SUBSCRIPT_X 0
SUBSCRIPT_Y 8
SUBSCRIPT_SIZE 16
FIGURE_WIDTH 16
AVG_LOWERCASE_WIDTH 157
AVG_UPPERCASE_WIDTH 216
ENDPROPERTIES
CHARS 6611
STARTCHAR space
ENCODING 32
SWIDTH 235 0
DWIDTH 8 0
BBX 1 1 0 0
BITMAP
00
ENDCHAR
STARTCHAR exclam
ENCODING 33
SWIDTH 283 0
DWIDTH 9 0
BBX 3 22 3 0
BITMAP
E0
E0
E0
E0
E0
E0
E0
E0
E0
E0
E0
40
40
40
40
40
00
00
E0
E0
E0
E0
ENDCHAR
STARTCHAR quotedbl
ENCODING 34
SWIDTH 334 0
DWIDTH 11 0
BBX 7 7 2 17
BITMAP
CE
CE
CE
CE
CC
8C
8C
ENDCHAR
STARTCHAR numbersign
ENCODING 35
SWIDTH 702 0
DWIDTH 22 0
BBX 19 22 2 0
BITMAP
030300
030600
030600
030600
060600
060600
060600
7FFFE0
7FFFE0
060C00
040C00
0C0C00
0C0C00
0C0C00
FFFFC0
0C1800
081800
181800
181800
181800
181800
183000
ENDCHAR
STARTCHAR dollar
ENCODING 36
SWIDTH 495 0
DWIDTH 16 0
BBX 14 27 1 -3
BITMAP
0300
0300
0300
1FF0
7338
6318
E318
E308
E308
7300
7F00
3F00
1FC0
07E0
03F0
0378
0338
831C
831C
C31C
C318
E338
FBF0
3FC0
0300
0300
0300
ENDCHAR
STARTCHAR percent
ENCODING 37
SWIDTH 692 0
DWIDTH 22 0
BBX 20 22 1 0
BITMAP
0F00C0
398380
30FF00
608300
608600
E08600
E08C00
E19800
611800
633000
3C3000
0063C0
004620
00CC20
018C10
019810
031830
021820
061820
041860
0C0CC0
180700
ENDCHAR
STARTCHAR ampersand
ENCODING 38
SWIDTH 736 0
DWIDTH 24 0
BBX 22 22 1 0
BITMAP
01E000
073800
0E1800
0E0800
0E1800
0E1800
0E1800
077000
07C3F8
0381E0
0F80C0
19C180
31C180
60E100
E07300
E07600
E03C00
E01C00
F01E04
F86F88
7FC7F8
1F01E0
ENDCHAR
STARTCHAR quotesingle
ENCODING 39
SWIDTH 187 0
DWIDTH 6 0
BBX 2 7 2 17
BITMAP
C0
C0
C0
C0
C0
80
80
ENDCHAR
STARTCHAR parenleft
ENCODING 40
SWIDTH 357 0
DWIDTH 11 0
BBX 9 30 1 -6
BITMAP
0080
0180
0300
0600
0C00
1800
1800
3000
3000
7000
6000
6000
6000
E000
E000
E000
E000
6000
6000
6000
7000
7000
3000
3000
1800
1800
0C00
0600
0300
0080
ENDCHAR
STARTCHAR parenright
ENCODING 41
SWIDTH 357 0
DWIDTH 11 0
BBX 9 30 1 -6
BITMAP
8000
C000
3000
1800
1800
0C00
0600
0600
0700
0300
0300
0380
0380
0380
0380
0380
0380
0380
0380
0380
0300
0300
0700
0600
0600
0C00
1800
3000
6000
C000
ENDCHAR
STARTCHAR asterisk
ENCODING 42
SWIDTH 410 0
DWIDTH 13 0
BBX 11 12 1 11
BITMAP
0600
0E00
4460
E4E0
75C0
0E00
0E00
75C0
E4E0
C460
0E00
0600
ENDCHAR
STARTCHAR plus
ENCODING 43
SWIDTH 720 0
DWIDTH 23 0
BBX 19 19 2 -1
BITMAP
00E000
00E000
00E000
00E000
00E000
00E000
00E000
00E000
00E000
FFFFE0
FFFFE0
00E000
00E000
00E000
00E000
00E000
00E000
00E000
00E000
ENDCHAR
STARTCHAR comma
ENCODING 44
SWIDTH 245 0
DWIDTH 8 0
BBX 4 9 2 -5
BITMAP
E0
F0
F0
F0
30
30
20
C0
80
ENDCHAR
STARTCHAR hyphen
ENCODING 45
SWIDTH 315 0
DWIDTH 10 0
BBX 8 2 1 7
BITMAP
FF
FF
ENDCHAR
STARTCHAR period
ENCODING 46
SWIDTH 245 0
DWIDTH 8 0
BBX 4 4 2 0
BITMAP
60
F0
F0
E0
ENDCHAR
STARTCHAR slash
ENCODING 47
SWIDTH 386 0
DWIDTH 12 0
BBX 10 27 1 -3
BITMAP
00C0
00C0
00C0
0080
0180
0180
0100
0300
0300
0200
0600
0600
0400
0C00
0C00
0C00
1800
1800
1800
3000
3000
3000
2000
6000
6000
4000
C000
ENDCHAR
STARTCHAR zero
ENCODING 48
SWIDTH 495 0
DWIDTH 16 0
BBX 14 22 1 0
BITMAP
0F80
1CE0
3870
7030
7038
6038
E01C
E01C
E01C
E01C
E01C
E01C
E01C
E01C
E01C
E018
6038
7038
7030
3870
1CE0
0F80
ENDCHAR
STARTCHAR one
ENCODING 49
SWIDTH 495 0
DWIDTH 16 0
BBX 12 21 2 0
BITMAP
0700
3F00
FF00
0700
0700
0700
0700
0700
0700
0700
0700
0700
0700
0700
0700
0700
0700
0700
0F00
3FC0
7FF0
ENDCHAR
STARTCHAR two
ENCODING 50
SWIDTH 495 0
DWIDTH 16 0
BBX 14 22 1 0
BITMAP
0F80
1FE0
30F0
6070
4038
C038
0038
0038
0030
0070
0060
00E0
00C0
0180
0300
0600
0C04
180C
3008
7FF8
FFF8
FFF8
ENDCHAR
STARTCHAR three
ENCODING 51
SWIDTH 495 0
DWIDTH 16 0
BBX 12 22 2 0
BITMAP
1F00
3FC0
61C0
C0E0
80E0
00E0
00E0
00C0
0180
0300
1F80
03E0
00F0
0070
0070
0070
0030
0070
0060
C060
F180
7E00
ENDCHAR
STARTCHAR four
ENCODING 52
SWIDTH 495 0
DWIDTH 16 0
BBX 15 22 0 0
BITMAP
0030
0070
0070
00F0
01F0
0170
0370
0670
0470
0C70
1870
1070
3070
6070
4070
FFFE
FFFE
0070
0070
0070
0070
0070
ENDCHAR
STARTCHAR five
ENCODING 53
SWIDTH 495 0
DWIDTH 16 0
BBX 12 21 2 0
BITMAP
1FF0
1FF0
3FE0
3000
2000
2000
3E00
7F80
7FE0
03E0
00F0
0070
0030
0030
0030
0030
0030
0060
E0C0
FF80
7E00
ENDCHAR
STARTCHAR six
ENCODING 54
SWIDTH 495 0
DWIDTH 16 0
BBX 14 22 1 0
BITMAP
0070
03C0
0700
0E00
1C00
3800
3800
7000
73C0
7FF0
7878
F038
E038
E01C
E01C
601C
701C
7018
3038
3830
1C70
07C0
ENDCHAR
STARTCHAR seven
ENCODING 55
SWIDTH 495 0
DWIDTH 16 0
BBX 14 21 1 0
BITMAP
7FFC
7FFC
7FF8
4018
C018
0030
0030
0060
0060
0060
00C0
00C0
01C0
0180
0180
0300
0300
0700
0600
0E00
0E00
ENDCHAR
STARTCHAR eight
ENCODING 56
SWIDTH 495 0
DWIDTH 16 0
BBX 13 22 1 0
BITMAP
0FC0
38E0
3030
7030
6038
7030
7030
7830
3C60
1F80
0F80
0FE0
19F0
30F0
6078
6038
E018
E018
6038
7038
38F0
0FC0
ENDCHAR
STARTCHAR nine
ENCODING 57
SWIDTH 495 0
DWIDTH 16 0
BBX 13 22 1 0
BITMAP
0F80
38E0
7070
6030
6038
E038
E038
E038
E038
E038
7038
7878
3FF8
0F38
0038
0070
0070
00E0
01C0
0380
0F00
3C00
ENDCHAR
STARTCHAR colon
ENCODING 58
SWIDTH 245 0
DWIDTH 8 0
BBX 4 16 2 0
BITMAP
60
F0
F0
E0
00
00
00
00
00
00
00
00
60
F0
F0
E0
ENDCHAR
STARTCHAR semicolon
ENCODING 59
SWIDTH 245 0
DWIDTH 8 0
BBX 4 21 2 -5
BITMAP
60
F0
F0
E0
00
00
00
00
00
00
00
00
E0
F0
F0
F0
30
30
20
C0
80
ENDCHAR
STARTCHAR less
ENCODING 60
SWIDTH 720 0
DWIDTH 23 0
BBX 19 19 2 -1
BITMAP
000020
000060
0001E0
000780
001E00
007800
03E000
0F8000
3E0000
F80000
3C0000
0F0000
03C000
00F000
003C00
000F00
0003C0
0000E0
000020
ENDCHAR
STARTCHAR equal
ENCODING 61
SWIDTH 720 0
DWIDTH 23 0
BBX 19 9 2 4
BITMAP
FFFFE0
FFFFE0
000000
000000
000000
000000
000000
FFFFE0
FFFFE0
ENDCHAR
STARTCHAR greater
ENCODING 62
SWIDTH 720 0
DWIDTH 23 0
BBX 19 19 2 -1
BITMAP
800000
C00000
F00000
3C0000
0F8000
03E000
00F800
003E00
000F80
0003E0
000780
001E00
007800
01E000
078000
1E0000
780000
E00000
800000
ENDCHAR
STARTCHAR question
ENCODING 63
SWIDTH 411 0
DWIDTH 13 0
BBX 11 22 1 0
BITMAP
1F00
73C0
C0E0
C0E0
E0E0
E0E0
40E0
00E0
00C0
01C0
0180
0300
0600
0600
0400
0400
0000
0000
0E00
0E00
0E00
0E00
ENDCHAR
STARTCHAR at
ENCODING 64
SWIDTH 905 0
DWIDTH 29 0
BBX 25 26 2 -5
BITMAP
007F8000
03E1F000
07003800
0C000C00
18000600
30000600
703CC300
60E2C300
60C1C180
E181C180
C381C180
C381C180
C381C180
C381C180
C381C180
C381C180
E381C300
E381C300
61C2C600
71FCFE00
30787800
38000000
1C000000
0E000000
03C03800
00FFC000
ENDCHAR
STARTCHAR A
ENCODING 65
SWIDTH 718 0
DWIDTH 23 0
BBX 23 22 0 0
BITMAP
003000
003800
003800
007800
005C00
00DC00
00DE00
008E00
018F00
018700
030700
030780
070380
0603C0
07FFC0
0C01E0
0C01E0
1800E0
1800F0
3800F0
7800FC
FE03FE
ENDCHAR
STARTCHAR B
ENCODING 66
SWIDTH 618 0
DWIDTH 20 0
BBX 18 22 1 0
BITMAP
FFF800
1C3E00
1C0F00
1C0700
1C0780
1C0780
1C0700
1C0700
1C0600
1C1C00
1FF800
1C3E00
1C0700
1C0380
1C0380
1C03C0
1C03C0
1C03C0
1C0380
1C0780
1C1F00
FFFC00
ENDCHAR
STARTCHAR C
ENCODING 67
SWIDTH 670 0
DWIDTH 21 0
BBX 18 22 2 0
BITMAP
01FC80
0F0F80
1C0380
380180
700180
700080
E00080
E00080
E00000
E00000
E00000
E00000
E00000
E00000
E00000
F00000
700000
780040
3C00C0
1F0380
0FFE00
03F800
ENDCHAR
STARTCHAR D
ENCODING 68
SWIDTH 730 0
DWIDTH 23 0
BBX 21 22 1 0
BITMAP
FFF800
1C3F00
1C0780
1C01C0
1C00E0
1C00F0
1C0070
1C0070
1C0078
1C0078
1C0078
1C0078
1C0078
1C0078
1C0070
1C0070
1C0070
1C00E0
1C01C0
1C0380
1C1F00
FFFC00
ENDCHAR
STARTCHAR E
ENCODING 69
SWIDTH 626 0
DWIDTH 20 0
BBX 18 22 1 0
BITMAP
FFFF80
1FFF80
1C0180
1C0080
1C0080
1C0080
1C0000
1C0600
1C0600
1C0600
1FFE00
1C0E00
1C0600
1C0600
1C0200
1C0000
1C0040
1C0040
1C00C0
1C01C0
1C1F80
FFFF80
ENDCHAR
STARTCHAR F
ENCODING 70
SWIDTH 588 0
DWIDTH 19 0
BBX 17 22 1 0
BITMAP
FFFF80
1FFF80
1C0180
1C0080
1C0080
1C0080
1C0000
1C0400
1C0400
1C0C00
1FFC00
1C0C00
1C0400
1C0400
1C0400
1C0000
1C0000
1C0000
1C0000
1C0000
3F0000
FFC000
ENDCHAR
STARTCHAR G
ENCODING 71
SWIDTH 720 0
DWIDTH 23 0
BBX 20 22 2 0
BITMAP
01FCC0
0F0FC0
1C03C0
3801C0
7001C0
7000C0
E000C0
E000C0
E00000
E00000
E00000
E00FF0
E003E0
E001C0
E001C0
F001C0
7001C0
7001C0
3801C0
3C03C0
0F0F80
03FC00
ENDCHAR
STARTCHAR H
ENCODING 72
SWIDTH 777 0
DWIDTH 25 0
BBX 22 22 2 0
BITMAP
FF87FC
7E01F0
1C00E0
1C00E0
1C00E0
1C00E0
1C00E0
1C00E0
1C00E0
1C00E0
1FFFE0
1C00E0
1C00E0
1C00E0
1C00E0
1C00E0
1C00E0
1C00E0
1C00E0
1C00E0
3E01F0
FF87FC
ENDCHAR
STARTCHAR I
ENCODING 73
SWIDTH 357 0
DWIDTH 11 0
BBX 9 22 1 0
BITMAP
FF80
3E00
1C00
1C00
1C00
1C00
1C00
1C00
1C00
1C00
1C00
1C00
1C00
1C00
1C00
1C00
1C00
1C00
1C00
1C00
3E00
FF80
ENDCHAR
STARTCHAR J
ENCODING 74
SWIDTH 396 0
DWIDTH 13 0
BBX 12 22 0 0
BITMAP
1FF0
07C0
0380
0380
0380
0380
0380
0380
0380
0380
0380
0380
0380
0380
0380
0380
0380
0380
E380
E380
F700
7E00
ENDCHAR
STARTCHAR K
ENCODING 75
SWIDTH 702 0
DWIDTH 22 0
BBX 21 22 1 0
BITMAP
FF8FF0
3E07C0
1C0380
1C0700
1C0600
1C0C00
1C1800
1C3000
1C4000
1C8000
1D8000
1FC000
1DE000
1CF000
1C7800
1C3C00
1C1E00
1C0F00
1C0780
1C03C0
3E03F0
FF8FF8
ENDCHAR
STARTCHAR L
ENCODING 76
SWIDTH 585 0
DWIDTH 19 0
BBX 17 22 1 0
BITMAP
FF8000
3F0000
1C0000
1C0000
1C0000
1C0000
1C0000
1C0000
1C0000
1C0000
1C0000
1C0000
1C0000
1C0000
1C0000
1C0000
1C0080
1C0180
1C0180
1C0380
1E0700
FFFF00
ENDCHAR
STARTCHAR M
ENCODING 77
SWIDTH 895 0
DWIDTH 29 0
BBX 26 22 1 0
BITMAP
FE000FC0
3E001F00
1F001F00
1F001E00
1F003600
1F803600
1B806600
1BC06600
19C06600
19C0C600
19E0C600
18E18600
18F18600
18710600
18730600
187B0600
183E0600
183E0600
181C0E00
181C0F00
3C0C0F00
FE083FC0
ENDCHAR
STARTCHAR N
ENCODING 78
SWIDTH 742 0
DWIDTH 24 0
BBX 22 22 1 0
BITMAP
FC03FC
7C00F0
1E0060
1F0060
1F8060
1F8060
1BC060
19E060
18F060
18F060
187860
183C60
181E60
181E60
180F60
1807E0
1803E0
1803E0
1801E0
1800E0
3C0060
FE0020
ENDCHAR
STARTCHAR O
ENCODING 79
SWIDTH 738 0
DWIDTH 24 0
BBX 20 22 2 0
BITMAP
03F800
0F1F00
1C0780
3803C0
7001C0
7000E0
F000E0
E000F0
E00070
E00070
E00070
E00070
E00070
E000F0
E000F0
F000E0
7000E0
7001C0
3801C0
1C0380
0F0E00
03F800
ENDCHAR
STARTCHAR P
ENCODING 80
SWIDTH 569 0
DWIDTH 18 0
BBX 16 22 1 0
BITMAP
7FF8
1C7E
1C0F
1C07
1C07
1C07
1C07
1C07
1C07
1C0E
1C1C
1FF0
1C00
1C00
1C00
1C00
1C00
1C00
1C00
1C00
3E00
FF80
ENDCHAR
STARTCHAR Q
ENCODING 81
SWIDTH 737 0
DWIDTH 24 0
BBX 21 27 2 -5
BITMAP
03F800
0F1F00
1C0780
3803C0
7001C0
7000E0
E000E0
E000F0
E000F0
E00070
E00070
E00070
E00070
E000F0
E000F0
F000E0
7000E0
7001C0
3801C0
3C0380
0F0E00
03FC00
007800
003C00
001E00
000F80
0007F8
ENDCHAR
STARTCHAR R
ENCODING 82
SWIDTH 659 0
DWIDTH 21 0
BBX 20 22 1 0
BITMAP
FFF800
1C3E00
1C0F00
1C0700
1C0700
1C0780
1C0700
1C0700
1C0700
1C0E00
1C3C00
1FF000
1CF000
1C7800
1C3C00
1C1C00
1C1E00
1C0F00
1C0700
1C0780
3E03E0
FF81F0
ENDCHAR
STARTCHAR S
ENCODING 83
SWIDTH 504 0
DWIDTH 16 0
BBX 14 22 1 0
BITMAP
0FC8
38F8
7038
7018
6018
7008
7008
7800
3E00
3F00
0FC0
07F0
01F8
0078
003C
801C
C01C
C01C
C01C
E038
FC70
CFC0
ENDCHAR
STARTCHAR T
ENCODING 84
SWIDTH 603 0
DWIDTH 19 0
BBX 19 22 0 0
BITMAP
7FFFE0
70E1E0
40E060
40E060
40E020
C0E020
00E000
00E000
00E000
00E000
00E000
00E000
00E000
00E000
00E000
00E000
00E000
00E000
00E000
00E000
01F000
07FC00
ENDCHAR
STARTCHAR U
ENCODING 85
SWIDTH 752 0
DWIDTH 24 0
BBX 22 22 1 0
BITMAP
FF81FC
7E00F8
1C0070
1C0030
1C0030
1C0020
1C0020
1C0020
1C0020
1C0020
1C0020
1C0020
1C0020
1C0020
1C0020
1C0060
1C0060
1E0060
0E00C0
0F81C0
07FF80
01FE00
ENDCHAR
STARTCHAR V
ENCODING 86
SWIDTH 680 0
DWIDTH 22 0
BBX 22 22 0 0
BITMAP
FF01FC
7E0078
3C0070
1C0060
1E0060
0E00C0
0E00C0
0F0080
070180
078180
038100
038300
03C200
01C600
01E600
00E400
00EC00
007800
007800
007800
003000
003000
ENDCHAR
STARTCHAR W
ENCODING 87
SWIDTH 944 0
DWIDTH 30 0
BBX 30 22 0 0
BITMAP
FF3FE0FC
7C0F8078
3C070030
1C078020
1C038060
1E038060
0E01C040
0F01C0C0
0703E0C0
0702E080
0786E180
0386F180
03847100
01CC7300
01C83B00
01E83A00
00F83E00
00F01E00
00F01C00
00701C00
00600C00
00200800
ENDCHAR
STARTCHAR X
ENCODING 88
SWIDTH 664 0
DWIDTH 21 0
BBX 21 22 0 0
BITMAP
7F87F8
3F01E0
0E01C0
0F0180
078300
038200
03C600
01CC00
00F800
00F000
007000
007800
00FC00
019C00
011E00
030F00
060700
0C0780
0C03C0
1803C0
3803F0
FE0FF8
ENDCHAR
STARTCHAR Y
ENCODING 89
SWIDTH 647 0
DWIDTH 21 0
BBX 21 22 0 0
BITMAP
FF03F8
7E00E0
3C00C0
1E0180
0E0180
070300
078200
038600
03C400
01CC00
00F800
00F800
007000
007000
007000
007000
007000
007000
007000
007000
00F800
03FE00
ENDCHAR
STARTCHAR Z
ENCODING 90
SWIDTH 594 0
DWIDTH 19 0
BBX 17 22 1 0
BITMAP
7FFF80
780700
600F00
601E00
401C00
403C00
003800
007800
00F000
00E000
01E000
03C000
038000
078000
0F0000
0E0000
1E0080
3C0080
380180
780180
F00F00
FFFF00
ENDCHAR
STARTCHAR bracketleft
ENCODING 91
SWIDTH 349 0
DWIDTH 11 0
BBX 7 31 3 -6
BITMAP
FE
C0
C0
C0
C0
C0
C0
C0
C0
C0
C0
C0
C0
C0
C0
C0
C0
C0
C0
C0
C0
C0
C0
C0
C0
C0
C0
C0
C0
C0
FE
ENDCHAR
STARTCHAR backslash
ENCODING 92
SWIDTH 385 0
DWIDTH 12 0
BBX 10 27 1 -3
BITMAP
C000
C000
6000
6000
6000
2000
3000
3000
1000
1800
1800
0800
0C00
0C00
0400
0600
0600
0600
0300
0300
0300
0100
0180
0180
0080
00C0
00C0
ENDCHAR
STARTCHAR bracketright
ENCODING 93
SWIDTH 349 0
DWIDTH 11 0
BBX 6 31 2 -6
BITMAP
FC
0C
0C
0C
0C
0C
0C
0C
0C
0C
0C
0C
0C
0C
0C
0C
0C
0C
0C
0C
0C
0C
0C
0C
0C
0C
0C
0C
0C
0C
FC
ENDCHAR
STARTCHAR asciicircum
ENCODING 94
SWIDTH 480 0
DWIDTH 15 0
BBX 13 12 1 10
BITMAP
0300
0700
0580
0D80
08C0
18C0
1860
3060
3030
6030
6018
C018
ENDCHAR
STARTCHAR underscore
ENCODING 95
SWIDTH 512 0
DWIDTH 16 0
BBX 16 1 0 -4
BITMAP
FFFF
ENDCHAR
STARTCHAR grave
ENCODING 96
SWIDTH 222 0
DWIDTH 7 0
BBX 5 5 1 17
BITMAP
E0
70
30
10
18
ENDCHAR
STARTCHAR a
ENCODING 97
SWIDTH 480 0
DWIDTH 15 0
BBX 14 16 1 0
BITMAP
0F80
31C0
70E0
70E0
7060
0060
0060
07E0
1C60
3060
6060
E060
E060
E0E4
737C
3C78
ENDCHAR
STARTCHAR b
ENCODING 98
SWIDTH 522 0
DWIDTH 17 0
BBX 16 24 0 0
BITMAP
0800
7800
F800
1800
1800
1800
1800
1800
18F0
19FC
1A3C
1C0E
180E
180E
1807
1807
1807
1806
180E
180E
180C
181C
1E38
0FE0
ENDCHAR
STARTCHAR c
ENCODING 99
SWIDTH 446 0
DWIDTH 14 0
BBX 13 16 1 0
BITMAP
0FC0
1CE0
3070
6070
6030
E000
E000
E000
E000
E000
E000
F008
7010
7C70
3FE0
0F80
ENDCHAR
STARTCHAR d
ENCODING 100
SWIDTH 539 0
DWIDTH 17 0
BBX 15 24 1 0
BITMAP
0008
0078
00F8
0038
0018
0018
0018
0018
07D8
1C78
3038
7038
6018
E018
E018
E018
E018
E018
E018
E018
7018
7878
3FDE
1F1C
ENDCHAR
STARTCHAR e
ENCODING 101
SWIDTH 464 0
DWIDTH 15 0
BBX 13 16 1 0
BITMAP
0F80
18E0
3070
6070
6030
E038
FFF8
E000
E000
E000
E000
7008
7010
3C30
1FE0
0F80
ENDCHAR
STARTCHAR f
ENCODING 102
SWIDTH 307 0
DWIDTH 10 0
BBX 11 24 1 0
BITMAP
07C0
0DE0
18E0
1840
3800
3800
3800
3800
FF80
3800
3800
3800
3800
3800
3800
3800
3800
3800
3800
3800
3800
3800
7C00
FF00
ENDCHAR
STARTCHAR g
ENCODING 103
SWIDTH 484 0
DWIDTH 15 0
BBX 14 23 1 -7
BITMAP
0FFC
39E0
7070
7070
6070
6070
7070
7070
38E0
1FC0
2000
6000
6000
FFE0
7FF8
3FFC
201C
400C
C00C
C008
E018
F860
3F80
ENDCHAR
STARTCHAR h
ENCODING 104
SWIDTH 577 0
DWIDTH 18 0
BBX 17 24 1 0
BITMAP
080000
F80000
F80000
380000
380000
380000
380000
380000
38F000
3BF800
3E3C00
3C1C00
380C00
380C00
380C00
380C00
380C00
380C00
380C00
380C00
380C00
380E00
7C1E00
FE7F80
ENDCHAR
STARTCHAR i
ENCODING 105
SWIDTH 285 0
DWIDTH 9 0
BBX 7 22 1 0
BITMAP
38
38
38
38
00
00
38
F8
38
38
38
38
38
38
38
38
38
38
38
38
3C
FE
ENDCHAR
STARTCHAR j
ENCODING 106
SWIDTH 263 0
DWIDTH 8 0
BBX 9 29 -3 -7
BITMAP
0380
0380
0380
0380
0000
0000
0380
0F80
0380
0380
0380
0380
0380
0380
0380
0380
0380
0380
0380
0380
0380
0380
0380
0380
0380
4300
E300
F600
7C00
ENDCHAR
STARTCHAR k
ENCODING 107
SWIDTH 542 0
DWIDTH 17 0
BBX 16 24 1 0
BITMAP
0800
F800
F800
3800
3800
3800
3800
3800
38FE
3878
3870
3860
3880
3900
3A00
3F00
3B80
39C0
39E0
38F0
3878
3838
7C3E
FE7F
ENDCHAR
STARTCHAR l
ENCODING 108
SWIDTH 283 0
DWIDTH 9 0
BBX 7 24 1 0
BITMAP
08
F8
F8
38
38
38
38
38
38
38
38
38
38
38
38
38
38
38
38
38
38
38
3C
FE
ENDCHAR
STARTCHAR m
ENCODING 109
SWIDTH 852 0
DWIDTH 27 0
BBX 26 16 1 0
BITMAP
F8F07800
3B399C00
3C1E0E00
381C0E00
381C0600
381C0600
381C0600
381C0600
381C0600
381C0600
381C0600
381C0600
381C0600
381C0E00
3C1E0F00
FE7FBFC0
ENDCHAR
STARTCHAR n
ENCODING 110
SWIDTH 576 0
DWIDTH 18 0
BBX 17 16 1 0
BITMAP
38F000
FBF800
3E3C00
3C1C00
380C00
380C00
380C00
380C00
380C00
380C00
380C00
380C00
380C00
380C00
3C1E00
FE7F80
ENDCHAR
STARTCHAR o
ENCODING 111
SWIDTH 514 0
DWIDTH 16 0
BBX 14 16 1 0
BITMAP
0FC0
1CF0
3038
7018
601C
E01C
E01C
E01C
E01C
E01C
E01C
701C
7018
3838
1C70
0FC0
ENDCHAR
STARTCHAR p
ENCODING 112
SWIDTH 537 0
DWIDTH 17 0
BBX 15 23 1 -7
BITMAP
38F0
FBF8
3E3C
381C
380E
380E
380E
380E
380E
380E
380E
380C
381C
3C18
3E70
3FE0
3800
3800
3800
3800
3800
7C00
FF00
ENDCHAR
STARTCHAR q
ENCODING 113
SWIDTH 521 0
DWIDTH 17 0
BBX 15 23 1 -7
BITMAP
07C8
1C78
3038
7038
6038
E038
E038
E038
E038
E038
E038
E038
7038
7878
3FF8
1F38
0038
0038
0038
0038
0038
007C
01FE
ENDCHAR
STARTCHAR r
ENCODING 114
SWIDTH 380 0
DWIDTH 12 0
BBX 11 16 1 0
BITMAP
18C0
F9E0
3BE0
3CE0
3C00
3800
3800
3800
3800
3800
3800
3800
3800
3800
3C00
FF00
ENDCHAR
STARTCHAR s
ENCODING 115
SWIDTH 395 0
DWIDTH 13 0
BBX 11 16 1 0
BITMAP
1F40
71C0
60C0
E0C0
E040
F000
7C00
3F00
1F80
07C0
81E0
80E0
C0E0
C0C0
F1C0
9F00
ENDCHAR
STARTCHAR t
ENCODING 116
SWIDTH 315 0
DWIDTH 10 0
BBX 9 21 1 0
BITMAP
0800
1800
1800
3800
7800
FF00
3800
3800
3800
3800
3800
3800
3800
3800
3800
3800
3800
3800
3880
3F00
1E00
ENDCHAR
STARTCHAR u
ENCODING 117
SWIDTH 570 0
DWIDTH 18 0
BBX 16 16 1 0
BITMAP
F87C
F87C
381C
381C
381C
381C
381C
381C
381C
381C
381C
381C
381C
3C3C
1FCF
0F0E
ENDCHAR
STARTCHAR v
ENCODING 118
SWIDTH 481 0
DWIDTH 15 0
BBX 16 16 0 0
BITMAP
FC3F
780E
380C
380C
3818
1C18
1C10
0E30
0E30
0E20
0760
0740
0340
03C0
0380
0180
ENDCHAR
STARTCHAR w
ENCODING 119
SWIDTH 749 0
DWIDTH 24 0
BBX 25 16 -1 0
BITMAP
FE3F0F80
3C1E0780
1C0E0200
1C0E0600
1C0E0600
0E0F0400
0E0F0C00
071B0800
07138800
07139800
03B19000
03A1D000
01A1F000
01C0E000
01C0E000
00C04000
ENDCHAR
STARTCHAR x
ENCODING 120
SWIDTH 479 0
DWIDTH 15 0
BBX 15 16 0 0
BITMAP
FE3E
3C1C
1C18
1C30
0E20
0740
0780
0380
03C0
06E0
04E0
0C70
1878
3038
703E
F87E
ENDCHAR
STARTCHAR y
ENCODING 121
SWIDTH 483 0
DWIDTH 15 0
BBX 16 23 0 -7
BITMAP
FC3F
780E
380C
3808
3C18
1C18
1C10
0E30
0E30
0720
0760
0340
03C0
01C0
0180
0180
0100
0300
0300
0600
F600
FC00
7800
ENDCHAR
STARTCHAR z
ENCODING 122
SWIDTH 458 0
DWIDTH 15 0
BBX 13 16 1 0
BITMAP
7FF0
7070
40E0
40E0
C1C0
0380
0380
0700
0F00
0E00
1C00
3C18
3818
7030
F0F0
FFF0
ENDCHAR
STARTCHAR braceleft
ENCODING 123
SWIDTH 327 0
DWIDTH 10 0
BBX 8 31 1 -6
BITMAP
07
1C
38
38
30
30
38
38
38
38
18
18
18
30
70
C0
E0
30
18
18
18
38
38
38
38
30
30
30
38
1C
0F
ENDCHAR
STARTCHAR bar
ENCODING 124
SWIDTH 267 0
DWIDTH 9 0
BBX 2 31 3 -7
BITMAP
C0
C0
C0
C0
C0
C0
C0
C0
C0
C0
C0
C0
C0
C0
C0
C0
C0
C0
C0
C0
C0
C0
C0
C0
C0
C0
C0
C0
C0
C0
C0
ENDCHAR
STARTCHAR braceright
ENCODING 125
SWIDTH 327 0
DWIDTH 10 0
BBX 9 31 1 -6
BITMAP
F000
3800
0C00
0C00
0C00
0C00
0C00
0C00
0C00
0C00
0C00
0C00
0C00
0C00
0600
0380
0700
0C00
0C00
0C00
0C00
0C00
0C00
0C00
0C00
0C00
0C00
0C00
0C00
1800
F000
ENDCHAR
STARTCHAR asciitilde
ENCODING 126
SWIDTH 557 0
DWIDTH 18 0
BBX 16 6 1 6
BITMAP
0002
3E03
7FC6
63FE
C078
4000
ENDCHAR
STARTCHAR uni00A0
ENCODING 160
SWIDTH 235 0
DWIDTH 8 0
BBX 1 1 0 0
BITMAP
00
ENDCHAR
STARTCHAR exclamdown
ENCODING 161
SWIDTH 282 0
DWIDTH 9 0
BBX 3 22 3 -6
BITMAP
E0
E0
E0
E0
00
00
40
40
40
40
40
E0
E0
E0
E0
E0
E0
E0
E0
E0
E0
E0
ENDCHAR
STARTCHAR cent
ENCODING 162
SWIDTH 495 0
DWIDTH 16 0
BBX 13 22 1 0
BITMAP
0100
0100
0100
03C0
0DF0
3178
3138
6138
6100
6100
E100
E100
E100
7300
7308
7B08
3F30
1FF0
0FC0
0300
0300
0300
ENDCHAR
STARTCHAR sterling
ENCODING 163
SWIDTH 495 0
DWIDTH 16 0
BBX 15 22 0 0
BITMAP
00F8
033C
021E
060E
0600
0E00
0E00
0E00
0E00
0E00
3FF0
0700
0700
0700
0700
0700
0600
3E02
4F02
C78C
4FFC
78F0
ENDCHAR
STARTCHAR currency
ENCODING 164
SWIDTH 617 0
DWIDTH 20 0
BBX 17 17 1 1
BITMAP
400080
E00180
73F300
1E3E00
1C0C00
180600
300200
300300
300300
300300
300200
180600
180E00
1E1E00
37F700
E00180
400080
ENDCHAR
STARTCHAR yen
ENCODING 165
SWIDTH 495 0
DWIDTH 16 0
BBX 16 21 0 0
BITMAP
FE3F
7C0E
380C
3C08
1C18
1E10
0E30
0F20
0720
03C0
03C0
3FFC
01C0
01C0
01C0
3FFC
01C0
01C0
03C0
03E0
0FF0
ENDCHAR
STARTCHAR brokenbar
ENCODING 166
SWIDTH 267 0
DWIDTH 9 0
BBX 2 24 3 -1
BITMAP
C0
C0
C0
C0
C0
C0
C0
C0
C0
C0
00
00
00
00
C0
C0
C0
C0
C0
C0
C0
C0
C0
C0
ENDCHAR
STARTCHAR section
ENCODING 167
SWIDTH 491 0
DWIDTH 16 0
BBX 11 28 2 -6
BITMAP
0F80
39C0
3060
6060
60E0
7040
3800
3C00
1E00
1F00
2780
43C0
41E0
60E0
6060
7020
7820
3C60
1E80
0F00
0780
01C0
60C0
E0C0
E0C0
40C0
61C0
3F00
ENDCHAR
STARTCHAR dieresis
ENCODING 168
SWIDTH 392 0
DWIDTH 13 0
BBX 11 4 1 18
BITMAP
60C0
F1E0
F1E0
60C0
ENDCHAR
STARTCHAR copyright
ENCODING 169
SWIDTH 781 0
DWIDTH 25 0
BBX 21 23 2 0
BITMAP
01FC00
070700
0C0180
100040
200020
600030
40FA10
C38E18
830208
860208
860008
860008
860008
860008
860008
C70118
438210
41FC10
200020
300060
1800C0
060300
03FC00
ENDCHAR
STARTCHAR ordfeminine
ENCODING 170
SWIDTH 410 0
DWIDTH 13 0
BBX 12 13 1 8
BITMAP
1F00
6380
6180
6180
0180
0380
1D80
6180
E180
E180
E1C0
FFF0
78E0
ENDCHAR
STARTCHAR guillemotleft
ENCODING 171
SWIDTH 517 0
DWIDTH 17 0
BBX 14 13 1 1
BITMAP
020C
0418
0C30
1870
30E0
61C0
E1C0
70C0
3060
1830
0C18
0608
0204
ENDCHAR
STARTCHAR logicalnot
ENCODING 172
SWIDTH 720 0
DWIDTH 23 0
BBX 18 10 2 3
BITMAP
FFFFC0
FFFFC0
0000C0
0000C0
0000C0
0000C0
0000C0
0000C0
0000C0
0000C0
ENDCHAR
STARTCHAR uni00AD
ENCODING 173
SWIDTH 315 0
DWIDTH 10 0
BBX 8 2 1 7
BITMAP
FF
FF
ENDCHAR
STARTCHAR registered
ENCODING 174
SWIDTH 413 0
DWIDTH 13 0
BBX 11 12 1 12
BITMAP
1F00
3180
4040
5E20
8920
8920
8E20
8A20
8B20
5DC0
20C0
1F00
ENDCHAR
STARTCHAR macron
ENCODING 175
SWIDTH 350 0
DWIDTH 11 0
BBX 9 1 1 19
BITMAP
FF80
ENDCHAR
STARTCHAR degree
ENCODING 176
SWIDTH 409 0
DWIDTH 13 0
BBX 9 10 2 13
BITMAP
3E00
6300
C180
C180
8080
8080
C180
C180
6300
3E00
ENDCHAR
STARTCHAR plusminus
ENCODING 177
SWIDTH 720 0
DWIDTH 23 0
BBX 19 20 2 -1
BITMAP
00E000
00E000
00E000
00E000
00E000
00E000
00E000
FFFFE0
FFFFE0
00E000
00E000
00E000
00E000
00E000
00E000
00E000
000000
000000
FFFFE0
FFFFE0
ENDCHAR
STARTCHAR twosuperior
ENCODING 178
SWIDTH 373 0
DWIDTH 12 0
BBX 10 16 1 8
BITMAP
3E00
7F80
C380
81C0
01C0
0180
0180
0380
0300
0600
0C00
1800
3040
6040
FFC0
FFC0
ENDCHAR
STARTCHAR threesuperior
ENCODING 179
SWIDTH 374 0
DWIDTH 12 0
BBX 10 16 1 8
BITMAP
3E00
7F00
C380
8380
0380
0300
0600
1F00
0780
01C0
01C0
01C0
01C0
0180
E300
FC00
ENDCHAR
STARTCHAR acute
ENCODING 180
SWIDTH 222 0
DWIDTH 7 0
BBX 5 5 1 17
BITMAP
38
30
60
60
C0
ENDCHAR
STARTCHAR uni00B5
ENCODING 181
SWIDTH 556 0
DWIDTH 18 0
BBX 17 23 1 -7
BITMAP
701C00
701800
701800
701800
701800
701800
701800
603000
603000
603000
605000
705000
70D800
799980
7F9F00
6F0E00
600000
600000
600000
E00000
E00000
E00000
C00000
ENDCHAR
STARTCHAR paragraph
ENCODING 182
SWIDTH 605 0
DWIDTH 19 0
BBX 15 27 2 -5
BITMAP
1FFE
3B38
6338
E338
E338
C338
C338
C338
E338
E338
6338
7338
1F38
0338
0338
0338
0338
0338
0338
0338
0338
0338
0338
0338
0338
073C
1F3E
ENDCHAR
STARTCHAR periodcentered
ENCODING 183
SWIDTH 282 0
DWIDTH 9 0
BBX 3 4 3 7
BITMAP
E0
E0
E0
E0
ENDCHAR
STARTCHAR cedilla
ENCODING 184
SWIDTH 247 0
DWIDTH 8 0
BBX 6 7 1 -7
BITMAP
20
20
78
0C
0C
8C
F8
ENDCHAR
STARTCHAR onesuperior
ENCODING 185
SWIDTH 343 0
DWIDTH 11 0
BBX 9 16 1 8
BITMAP
1C00
FC00
1C00
1C00
1C00
1C00
1C00
1C00
1C00
1C00
1C00
1C00
1C00
1C00
1C00
7F80
ENDCHAR
STARTCHAR ordmasculine
ENCODING 186
SWIDTH 432 0
DWIDTH 14 0
BBX 12 13 1 8
BITMAP
1F80
30C0
6060
E060
E070
E070
C070
E070
E070
E060
6060
30C0
1F80
ENDCHAR
STARTCHAR guillemotright
ENCODING 187
SWIDTH 517 0
DWIDTH 17 0
BBX 13 13 2 1
BITMAP
8300
C180
60C0
3060
1870
1C38
0E18
1C38
3870
30E0
60C0
C180
8300
ENDCHAR
STARTCHAR onequarter
ENCODING 188
SWIDTH 861 0
DWIDTH 28 0
BBX 26 24 1 -1
BITMAP
00001000
08003000
F8002000
18006000
1800C000
18008000
18018000
18010000
18030000
18060200
18060600
180C0E00
18081E00
1C181600
7F103600
00306600
0060C600
00408600
00C1FFC0
0081FFC0
01800600
03000600
03000600
06000000
ENDCHAR
STARTCHAR onehalf
ENCODING 189
SWIDTH 889 0
DWIDTH 28 0
BBX 27 23 1 0
BITMAP
00003000
18002000
F8006000
18004000
1800C000
18018000
18018000
18030000
18020000
18060E00
18043F80
180C61C0
181881C0
1C1801C0
7F3001C0
00200180
00600300
00400600
00C00C00
01801820
01003040
03007FC0
0600FFC0
ENDCHAR
STARTCHAR threequarters
ENCODING 190
SWIDTH 861 0
DWIDTH 28 0
BBX 26 24 1 -1
BITMAP
00001000
3E003000
67002000
83806000
0380C000
03008000
06018000
1E010000
07830000
01860200
01C60600
018C0E00
41881E00
E3181600
FE103600
00306600
0060C600
00408600
00C1FFC0
0081FFC0
01800600
03000600
03000600
06000000
ENDCHAR
STARTCHAR questiondown
ENCODING 191
SWIDTH 411 0
DWIDTH 13 0
BBX 11 22 1 -6
BITMAP
0E00
0F00
0F00
0E00
0000
0000
0400
0400
0400
0C00
1800
1800
3000
7000
6000
E040
E0E0
E0E0
E060
E060
70C0
1F80
ENDCHAR
STARTCHAR Agrave
ENCODING 192
SWIDTH 718 0
DWIDTH 23 0
BBX 23 27 0 0
BITMAP
00F000
007000
001800
000C00
000000
003000
003800
003800
007800
005C00
00DC00
00DE00
008E00
018F00
018700
030700
030780
070380
0603C0
07FFC0
0C01E0
0C01E0
1800E0
1800F0
3800F0
7800FC
FE03FE
ENDCHAR
STARTCHAR Aacute
ENCODING 193
SWIDTH 718 0
DWIDTH 23 0
BBX 23 27 0 0
BITMAP
001E00
003C00
007000
00E000
000000
003000
003800
003800
007800
005C00
00DC00
00DE00
008E00
018F00
018700
030700
030780
070380
0603C0
07FFC0
0C01E0
0C01E0
1800E0
1800F0
3800F0
7800FC
FE03FE
ENDCHAR
STARTCHAR Acircumflex
ENCODING 194
SWIDTH 718 0
DWIDTH 23 0
BBX 23 28 0 0
BITMAP
003800
007800
007C00
00C600
018300
000000
003000
003800
003800
007800
005C00
00DC00
00DE00
008E00
018F00
018700
030700
030780
070380
0603C0
07FFC0
0C01E0
0C01E0
1800E0
1800F0
3800F0
7800FC
FE03FE
ENDCHAR
STARTCHAR Atilde
ENCODING 195
SWIDTH 718 0
DWIDTH 23 0
BBX 23 27 0 0
BITMAP
00F180
01FF00
021E00
000000
000000
003000
003800
003800
007800
005C00
00DC00
00DE00
008E00
018F00
018700
030700
030780
070380
0603C0
07FFC0
0C01E0
0C01E0
1800E0
1800F0
3800F0
7800FC
FE03FE
ENDCHAR
STARTCHAR Adieresis
ENCODING 196
SWIDTH 718 0
DWIDTH 23 0
BBX 23 27 0 0
BITMAP
018300
03C780
03C780
018300
000000
003000
003800
003800
007800
005C00
00DC00
00DE00
008E00
018F00
018700
030700
030780
070380
0603C0
07FFC0
0C01E0
0C01E0
1800E0
1800F0
3800F0
7800FC
FE03FE
ENDCHAR
STARTCHAR Aring
ENCODING 197
SWIDTH 718 0
DWIDTH 23 0
BBX 23 29 0 0
BITMAP
007800
00CC00
008600
008600
00C400
007C00
000000
003000
003800
003800
007800
005C00
00DC00
00DE00
008E00
018F00
018700
030700
030780
070380
0603C0
07FFC0
0C01E0
0C01E0
1800E0
1800F0
3800F0
7800FC
FE03FE
ENDCHAR
STARTCHAR AE
ENCODING 198
SWIDTH 894 0
DWIDTH 29 0
BBX 29 22 -1 0
BITMAP
003FFFF0
000FFFF0
000F8030
000B8030
001B8010
00338000
00338000
00638080
00638080
00C38080
00C38180
01FFFF80
01838180
03038080
02038080
06038000
04038018
0C038010
18038010
18038030
7C0783F0
FE1FFFF0
ENDCHAR
STARTCHAR Ccedilla
ENCODING 199
SWIDTH 670 0
DWIDTH 21 0
BBX 18 29 2 -7
BITMAP
01FC80
0F0F80
1C0380
380180
700180
700080
E00080
E00080
E00000
E00000
E00000
E00000
E00000
E00000
E00000
F00000
700000
780040
3C00C0
1F0380
0FFE00
03F800
008000
008000
00E000
003000
001000
023000
01E000
ENDCHAR
STARTCHAR Egrave
ENCODING 200
SWIDTH 626 0
DWIDTH 20 0
BBX 18 27 1 0
BITMAP
038000
01C000
006000
003000
000000
FFFF80
1FFF80
1C0180
1C0080
1C0080
1C0080
1C0000
1C0600
1C0600
1C0600
1FFE00
1C0E00
1C0600
1C0600
1C0200
1C0000
1C0040
1C0040
1C00C0
1C01C0
1C1F80
FFFF80
ENDCHAR
STARTCHAR Eacute
ENCODING 201
SWIDTH 626 0
DWIDTH 20 0
BBX 18 27 1 0
BITMAP
007800
00E000
01C000
030000
000000
FFFF80
1FFF80
1C0180
1C0080
1C0080
1C0080
1C0000
1C0600
1C0600
1C0600
1FFE00
1C0E00
1C0600
1C0600
1C0200
1C0000
1C0040
1C0040
1C00C0
1C01C0
1C1F80
FFFF80
ENDCHAR
STARTCHAR Ecircumflex
ENCODING 202
SWIDTH 626 0
DWIDTH 20 0
BBX 18 28 1 0
BITMAP
00C000
01E000
03F000
031800
060C00
000000
FFFF80
1FFF80
1C0180
1C0080
1C0080
1C0080
1C0000
1C0600
1C0600
1C0600
1FFE00
1C0E00
1C0600
1C0600
1C0200
1C0000
1C0040
1C0040
1C00C0
1C01C0
1C1F80
FFFF80
ENDCHAR
STARTCHAR Edieresis
ENCODING 203
SWIDTH 626 0
DWIDTH 20 0
BBX 18 27 1 0
BITMAP
0E0C00
0E1E00
0F1E00
0E0C00
000000
FFFF80
1FFF80
1C0180
1C0080
1C0080
1C0080
1C0000
1C0600
1C0600
1C0600
1FFE00
1C0E00
1C0600
1C0600
1C0200
1C0000
1C0040
1C0040
1C00C0
1C01C0
1C1F80
FFFF80
ENDCHAR
STARTCHAR Igrave
ENCODING 204
SWIDTH 357 0
DWIDTH 11 0
BBX 9 27 1 0
BITMAP
7800
1C00
0E00
0300
0000
FF80
3E00
1C00
1C00
1C00
1C00
1C00
1C00
1C00
1C00
1C00
1C00
1C00
1C00
1C00
1C00
1C00
1C00
1C00
1C00
3E00
FF80
ENDCHAR
STARTCHAR Iacute
ENCODING 205
SWIDTH 357 0
DWIDTH 11 0
BBX 9 27 1 0
BITMAP
0700
0E00
1800
3000
0000
FF80
3E00
1C00
1C00
1C00
1C00
1C00
1C00
1C00
1C00
1C00
1C00
1C00
1C00
1C00
1C00
1C00
1C00
1C00
1C00
3E00
FF80
ENDCHAR
STARTCHAR Icircumflex
ENCODING 206
SWIDTH 357 0
DWIDTH 11 0
BBX 9 28 1 0
BITMAP
0C00
1E00
3F00
6300
C180
0000
FF80
3E00
1C00
1C00
1C00
1C00
1C00
1C00
1C00
1C00
1C00
1C00
1C00
1C00
1C00
1C00
1C00
1C00
1C00
1C00
3E00
FF80
ENDCHAR
STARTCHAR Idieresis
ENCODING 207
SWIDTH 357 0
DWIDTH 11 0
BBX 11 27 0 0
BITMAP
60C0
F0E0
F1E0
60C0
0000
7FC0
1F00
0E00
0E00
0E00
0E00
0E00
0E00
0E00
0E00
0E00
0E00
0E00
0E00
0E00
0E00
0E00
0E00
0E00
0E00
1F00
7FC0
ENDCHAR
STARTCHAR Eth
ENCODING 208
SWIDTH 737 0
DWIDTH 24 0
BBX 21 22 1 0
BITMAP
FFF800
1C3F00
1C07C0
1C01E0
1C00E0
1C00F0
1C0070
1C0078
1C0078
1C0078
FFF078
1C0078
1C0078
1C0078
1C0078
1C0070
1C0070
1C00E0
1C01E0
1C03C0
1C1F00
FFFC00
ENDCHAR
STARTCHAR Ntilde
ENCODING 209
SWIDTH 742 0
DWIDTH 24 0
BBX 22 27 1 0
BITMAP
01F180
01FF00
021E00
000000
000000
FC03FC
7C00F0
1E0060
1F0060
1F8060
1F8060
1BC060
19E060
18F060
18F060
187860
183C60
181E60
181E60
180F60
1807E0
1803E0
1803E0
1801E0
1800E0
3C0060
FE0020
ENDCHAR
STARTCHAR Ograve
ENCODING 210
SWIDTH 738 0
DWIDTH 24 0
BBX 20 27 2 0
BITMAP
03C000
00E000
007000
001800
000000
03F800
0F1F00
1C0780
3803C0
7001C0
7000E0
F000E0
E000F0
E00070
E00070
E00070
E00070
E00070
E000F0
E000F0
F000E0
7000E0
7001C0
3801C0
1C0380
0F0E00
03F800
ENDCHAR
STARTCHAR Oacute
ENCODING 211
SWIDTH 738 0
DWIDTH 24 0
BBX 20 27 2 0
BITMAP
003800
007000
00E000
018000
000000
03F800
0F1F00
1C0780
3803C0
7001C0
7000E0
F000E0
E000F0
E00070
E00070
E00070
E00070
E00070
E000F0
E000F0
F000E0
7000E0
7001C0
3801C0
1C0380
0F0E00
03F800
ENDCHAR
STARTCHAR Ocircumflex
ENCODING 212
SWIDTH 738 0
DWIDTH 24 0
BBX 20 28 2 0
BITMAP
006000
00F000
01F800
031800
060600
000000
03F800
0F1F00
1C0780
3803C0
7001C0
7000E0
F000E0
E000F0
E00070
E00070
E00070
E00070
E00070
E000F0
E000F0
F000E0
7000E0
7001C0
3801C0
1C0380
0F0E00
03F800
ENDCHAR
STARTCHAR Otilde
ENCODING 213
SWIDTH 738 0
DWIDTH 24 0
BBX 20 27 2 0
BITMAP
03E200
07FE00
047C00
000000
000000
03F800
0F1F00
1C0780
3803C0
7001C0
7000E0
F000E0
E000F0
E00070
E00070
E00070
E00070
E00070
E000F0
E000F0
F000E0
7000E0
7001C0
3801C0
1C0380
0F0E00
03F800
ENDCHAR
STARTCHAR Odieresis
ENCODING 214
SWIDTH 738 0
DWIDTH 24 0
BBX 20 27 2 0
BITMAP
060E00
070E00
0F0E00
060E00
000000
03F800
0F1F00
1C0780
3803C0
7001C0
7000E0
F000E0
E000F0
E00070
E00070
E00070
E00070
E00070
E000F0
E000F0
F000E0
7000E0
7001C0
3801C0
1C0380
0F0E00
03F800
ENDCHAR
STARTCHAR multiply
ENCODING 215
SWIDTH 720 0
DWIDTH 23 0
BBX 19 18 2 -1
BITMAP
6000C0
F001E0
380380
1C0700
0E0E00
071C00
03B800
01F000
00E000
01F000
03B800
071C00
0E0E00
1C0700
380380
7001C0
E000E0
400040
ENDCHAR
STARTCHAR Oslash
ENCODING 216
SWIDTH 737 0
DWIDTH 24 0
BBX 20 22 2 0
BITMAP
03F840
0F1F80
1C0780
3803C0
7003C0
7004E0
E00CE0
E018F0
E030F0
E02070
E06070
E0C070
E18070
E100F0
E200F0
F600E0
7C00E0
7801C0
3801C0
3C0380
6F0E00
C3F800
ENDCHAR
STARTCHAR Ugrave
ENCODING 217
SWIDTH 752 0
DWIDTH 24 0
BBX 22 27 1 0
BITMAP
00F000
003800
001C00
000600
000000
FF81FC
7E00F8
1C0070
1C0030
1C0030
1C0020
1C0020
1C0020
1C0020
1C0020
1C0020
1C0020
1C0020
1C0020
1C0020
1C0060
1C0060
1E0060
0E00C0
0F81C0
07FF80
01FE00
ENDCHAR
STARTCHAR Uacute
ENCODING 218
SWIDTH 752 0
DWIDTH 24 0
BBX 22 27 1 0
BITMAP
000E00
001C00
003000
006000
000000
FF81FC
7E00F8
1C0070
1C0030
1C0030
1C0020
1C0020
1C0020
1C0020
1C0020
1C0020
1C0020
1C0020
1C0020
1C0020
1C0060
1C0060
1E0060
0E00C0
0F81C0
07FF80
01FE00
ENDCHAR
STARTCHAR Ucircumflex
ENCODING 219
SWIDTH 752 0
DWIDTH 24 0
BBX 22 28 1 0
BITMAP
001800
003C00
007E00
00C600
018100
000000
FF81FC
7E00F8
1C0070
1C0030
1C0030
1C0020
1C0020
1C0020
1C0020
1C0020
1C0020
1C0020
1C0020
1C0020
1C0020
1C0060
1C0060
1E0060
0E00C0
0F81C0
07FF80
01FE00
ENDCHAR
STARTCHAR Udieresis
ENCODING 220
SWIDTH 752 0
DWIDTH 24 0
BBX 22 27 1 0
BITMAP
018380
03C380
03C780
018300
000000
FF81FC
7E00F8
1C0070
1C0030
1C0030
1C0020
1C0020
1C0020
1C0020
1C0020
1C0020
1C0020
1C0020
1C0020
1C0020
1C0060
1C0060
1E0060
0E00C0
0F81C0
07FF80
01FE00
ENDCHAR
STARTCHAR Yacute
ENCODING 221
SWIDTH 647 0
DWIDTH 21 0
BBX 21 27 0 0
BITMAP
001C00
003800
007000
00C000
000000
FF03F8
7E00E0
3C00C0
1E0180
0E0180
070300
078200
038600
03C400
01CC00
00F800
00F800
007000
007000
007000
007000
007000
007000
007000
007000
00F800
03FE00
ENDCHAR
STARTCHAR Thorn
ENCODING 222
SWIDTH 572 0
DWIDTH 18 0
BBX 16 22 1 0
BITMAP
FFC0
3F00
1E00
1C00
1C00
1FF8
1C3E
1C0F
1C07
1C07
1C07
1C07
1C07
1C0E
1C1C
1FF8
1C00
1C00
1C00
1C00
3F00
FFC0
ENDCHAR
STARTCHAR germandbls
ENCODING 223
SWIDTH 563 0
DWIDTH 18 0
BBX 16 24 1 0
BITMAP
03E0
0C38
181C
181C
181C
381C
381C
3818
F830
39C0
39E0
3878
381C
380E
380E
3807
3807
3807
3807
3807
3987
3BC6
39CC
F8F0
ENDCHAR
STARTCHAR agrave
ENCODING 224
SWIDTH 480 0
DWIDTH 15 0
BBX 14 22 1 0
BITMAP
1C00
0E00
0600
0200
0300
0000
0F80
31C0
70E0
70E0
7060
0060
0060
07E0
1C60
3060
6060
E060
E060
E0E4
737C
3C78
ENDCHAR
STARTCHAR aacute
ENCODING 225
SWIDTH 480 0
DWIDTH 15 0
BBX 14 22 1 0
BITMAP
01C0
0380
0300
0600
0400
0000
0F80
31C0
70E0
70E0
7060
0060
0060
07E0
1C60
3060
6060
E060
E060
E0E4
737C
3C78
ENDCHAR
STARTCHAR acircumflex
ENCODING 226
SWIDTH 480 0
DWIDTH 15 0
BBX 14 22 1 0
BITMAP
0700
0F80
0D80
18C0
3060
0000
0F80
31C0
70E0
70E0
7060
0060
0060
07E0
1C60
3060
6060
E060
E060
E0E4
737C
3C78
ENDCHAR
STARTCHAR atilde
ENCODING 227
SWIDTH 480 0
DWIDTH 15 0
BBX 14 21 1 0
BITMAP
1E30
3FE0
63C0
0000
0000
0F80
31C0
70E0
70E0
7060
0060
0060
07E0
1C60
3060
6060
E060
E060
E0E4
737C
3C78
ENDCHAR
STARTCHAR adieresis
ENCODING 228
SWIDTH 480 0
DWIDTH 15 0
BBX 14 22 1 0
BITMAP
3060
78F0
78F0
3060
0000
0000
0F80
31C0
70E0
70E0
7060
0060
0060
07E0
1C60
3060
6060
E060
E060
E0E4
737C
3C78
ENDCHAR
STARTCHAR aring
ENCODING 229
SWIDTH 480 0
DWIDTH 15 0
BBX 14 24 1 0
BITMAP
0F00
1980
18C0
18C0
1880
0F80
0000
0000
0F80
31C0
70E0
70E0
7060
0060
0060
07E0
1C60
3060
6060
E060
E060
E0E4
737C
3C78
ENDCHAR
STARTCHAR ae
ENCODING 230
SWIDTH 709 0
DWIDTH 23 0
BBX 21 16 1 0
BITMAP
1F8F80
31D9E0
70F060
60E070
60E070
00E030
00FFF8
07E000
1CE000
70E000
60E000
E07008
E07010
F1FC30
7F3FE0
3C0F80
ENDCHAR
STARTCHAR ccedilla
ENCODING 231
SWIDTH 446 0
DWIDTH 14 0
BBX 13 23 1 -7
BITMAP
0FC0
1CE0
3070
6070
6030
E000
E000
E000
E000
E000
E000
F008
7010
7C70
3FE0
1F80
0200
0200
0780
00C0
00C0
09C0
0780
ENDCHAR
STARTCHAR egrave
ENCODING 232
SWIDTH 464 0
DWIDTH 15 0
BBX 13 22 1 0
BITMAP
1C00
0E00
0600
0300
0100
0000
0F80
18E0
3070
6070
6030
E038
FFF8
E000
E000
E000
E000
7008
7010
3C30
1FE0
0F80
ENDCHAR
STARTCHAR eacute
ENCODING 233
SWIDTH 464 0
DWIDTH 15 0
BBX 13 22 1 0
BITMAP
01C0
0180
0380
0300
0600
0000
0F80
18E0
3070
6070
6030
E038
FFF8
E000
E000
E000
E000
7008
7010
3C30
1FE0
0F80
ENDCHAR
STARTCHAR ecircumflex
ENCODING 234
SWIDTH 464 0
DWIDTH 15 0
BBX 13 22 1 0
BITMAP
0700
0780
0DC0
18C0
3020
0000
0F80
18E0
3070
6070
6030
E038
FFF8
E000
E000
E000
E000
7008
7010
3C30
1FE0
0F80
ENDCHAR
STARTCHAR edieresis
ENCODING 235
SWIDTH 464 0
DWIDTH 15 0
BBX 13 22 1 0
BITMAP
3060
78F0
78F0
3060
0000
0000
0F80
18E0
3070
6070
6030
E038
FFF8
E000
E000
E000
E000
7008
7010
3C30
1FE0
0F80
ENDCHAR
STARTCHAR igrave
ENCODING 236
SWIDTH 285 0
DWIDTH 9 0
BBX 7 22 1 0
BITMAP
E0
E0
70
30
18
00
38
F8
38
38
38
38
38
38
38
38
38
38
38
38
3C
FE
ENDCHAR
STARTCHAR iacute
ENCODING 237
SWIDTH 285 0
DWIDTH 9 0
BBX 7 22 1 0
BITMAP
1C
1C
38
30
60
00
38
F8
38
38
38
38
38
38
38
38
38
38
38
38
3C
FE
ENDCHAR
STARTCHAR icircumflex
ENCODING 238
SWIDTH 285 0
DWIDTH 9 0
BBX 8 22 0 0
BITMAP
18
3C
66
42
C3
00
1C
7C
1C
1C
1C
1C
1C
1C
1C
1C
1C
1C
1C
1C
1E
7F
ENDCHAR
STARTCHAR idieresis
ENCODING 239
SWIDTH 285 0
DWIDTH 9 0
BBX 10 22 -1 0
BITMAP
6180
F3C0
F3C0
6180
0000
0000
0E00
3E00
0E00
0E00
0E00
0E00
0E00
0E00
0E00
0E00
0E00
0E00
0E00
0E00
0F00
3F80
ENDCHAR
STARTCHAR eth
ENCODING 240
SWIDTH 532 0
DWIDTH 17 0
BBX 14 24 1 0
BITMAP
1F00
23CC
00F8
00F0
0330
0438
0018
001C
0F9C
1CFC
303C
701C
601C
E01C
E01C
E01C
E01C
E01C
E01C
601C
7038
3030
1C60
0FC0
ENDCHAR
STARTCHAR ntilde
ENCODING 241
SWIDTH 576 0
DWIDTH 18 0
BBX 17 21 1 0
BITMAP
078400
0FF800
08F000
000000
000000
38F000
FBF800
3E3C00
3C1C00
380C00
380C00
380C00
380C00
380C00
380C00
380C00
380C00
380C00
380C00
3C1E00
FE7F80
ENDCHAR
STARTCHAR ograve
ENCODING 242
SWIDTH 514 0
DWIDTH 16 0
BBX 14 22 1 0
BITMAP
0E00
0700
0300
0300
0180
0000
0FC0
1CF0
3038
7018
601C
E01C
E01C
E01C
E01C
E01C
E01C
701C
7018
3838
1C70
0FC0
ENDCHAR
STARTCHAR oacute
ENCODING 243
SWIDTH 514 0
DWIDTH 16 0
BBX 14 22 1 0
BITMAP
00E0
01C0
0180
0300
0200
0000
0FC0
1CF0
3038
7018
601C
E01C
E01C
E01C
E01C
E01C
E01C
701C
7018
3838
1C70
0FC0
ENDCHAR
STARTCHAR ocircumflex
ENCODING 244
SWIDTH 514 0
DWIDTH 16 0
BBX 14 22 1 0
BITMAP
0380
0780
06C0
0C60
1830
0000
0FC0
1CF0
3038
7018
601C
E01C
E01C
E01C
E01C
E01C
E01C
701C
7018
3838
1C70
0FC0
ENDCHAR
STARTCHAR otilde
ENCODING 245
SWIDTH 514 0
DWIDTH 16 0
BBX 14 21 1 0
BITMAP
0F18
1FF0
31E0
0000
0000
0FC0
1CF0
3038
7018
601C
E01C
E01C
E01C
E01C
E01C
E01C
701C
7018
3838
1C70
0FC0
ENDCHAR
STARTCHAR odieresis
ENCODING 246
SWIDTH 514 0
DWIDTH 16 0
BBX 14 22 1 0
BITMAP
1830
3C78
3C78
1830
0000
0000
0FC0
1CF0
3038
7018
601C
E01C
E01C
E01C
E01C
E01C
E01C
701C
7018
3838
1C70
0FC0
ENDCHAR
STARTCHAR divide
ENCODING 247
SWIDTH 720 0
DWIDTH 23 0
BBX 19 18 2 0
BITMAP
00E000
00E000
00E000
00E000
000000
000000
000000
000000
FFFFE0
FFFFE0
000000
000000
000000
000000
00E000
00E000
00E000
00E000
ENDCHAR
STARTCHAR oslash
ENCODING 248
SWIDTH 514 0
DWIDTH 16 0
BBX 14 16 1 0
BITMAP
0FC8
1CF0
3038
7078
605C
E09C
E19C
E31C
E21C
E41C
E81C
781C
7018
3038
5C70
CFC0
ENDCHAR
STARTCHAR ugrave
ENCODING 249
SWIDTH 570 0
DWIDTH 18 0
BBX 16 22 1 0
BITMAP
0F00
0700
0300
0180
00C0
0000
F87C
F87C
381C
381C
381C
381C
381C
381C
381C
381C
381C
381C
381C
3C3C
1FCF
0F0E
ENDCHAR
STARTCHAR uacute
ENCODING 250
SWIDTH 570 0
DWIDTH 18 0
BBX 16 22 1 0
BITMAP
00E0
00C0
01C0
0180
0300
0000
F87C
F87C
381C
381C
381C
381C
381C
381C
381C
381C
381C
381C
381C
3C3C
1FCF
0F0E
ENDCHAR
STARTCHAR ucircumflex
ENCODING 251
SWIDTH 570 0
DWIDTH 18 0
BBX 16 22 1 0
BITMAP
0380
03C0
06E0
0C20
1810
0000
F87C
F87C
381C
381C
381C
381C
381C
381C
381C
381C
381C
381C
381C
3C3C
1FCF
0F0E
ENDCHAR
STARTCHAR udieresis
ENCODING 252
SWIDTH 570 0
DWIDTH 18 0
BBX 16 22 1 0
BITMAP
1C30
1C38
3C78
1838
0000
0000
F87C
F87C
381C
381C
381C
381C
381C
381C
381C
381C
381C
381C
381C
3C3C
1FCF
0F0E
ENDCHAR
STARTCHAR yacute
ENCODING 253
SWIDTH 483 0
DWIDTH 15 0
BBX 16 29 0 -7
BITMAP
0070
00E0
00C0
0180
0100
0000
FC3F
780E
380C
3808
3C18
1C18
1C10
0E30
0E30
0720
0760
0340
03C0
01C0
0180
0180
0100
0300
0300
0600
F600
FC00
7800
ENDCHAR
STARTCHAR thorn
ENCODING 254
SWIDTH 524 0
DWIDTH 17 0
BBX 16 31 0 -7
BITMAP
0800
7800
F800
1800
1800
1800
1800
1800
18F0
19FC
1A3C
1C0E
180E
180F
1807
1807
1807
1806
1806
180E
180C
1C1C
1F38
1BE0
1800
1800
1800
1800
3800
3C00
FF00
ENDCHAR
STARTCHAR ydieresis
ENCODING 255
SWIDTH 483 0
DWIDTH 15 0
BBX 16 29 0 -7
BITMAP
0C18
1E3C
1E3C
0C18
0000
0000
FC3F
780E
380C
3808
3C18
1C18
1C10
0E30
0E30
0720
0760
0340
03C0
01C0
0180
0180
0100
0300
0300
0600
F600
FC00
7800
ENDCHAR
STARTCHAR Amacron
ENCODING 256
SWIDTH 718 0
DWIDTH 23 0
BBX 23 25 0 0
BITMAP
01FF00
000000
000000
003000
003800
003800
007800
005C00
00DC00
00DE00
008E00
018F00
018700
030700
030780
070380
0603C0
07FFC0
0C01E0
0C01E0
1800E0
1800F0
3800F0
7800FC
FE03FE
ENDCHAR
STARTCHAR amacron
ENCODING 257
SWIDTH 480 0
DWIDTH 15 0
BBX 14 20 1 0
BITMAP
3FE0
0000
0000
0000
0F80
31C0
70E0
70E0
7060
0060
0060
07E0
1C60
3060
6060
E060
E060
E0E4
737C
3C78
ENDCHAR
STARTCHAR Abreve
ENCODING 258
SWIDTH 718 0
DWIDTH 23 0
BBX 23 28 0 0
BITMAP
010100
010300
018600
00FE00
007C00
000000
003000
003800
003800
007800
005C00
00DC00
00DE00
008E00
018F00
018700
030700
030780
070380
0603C0
07FFC0
0C01E0
0C01E0
1800E0
1800F0
3800F0
7800FC
FE03FE
ENDCHAR
STARTCHAR abreve
ENCODING 259
SWIDTH 480 0
DWIDTH 15 0
BBX 14 22 1 0
BITMAP
2020
2060
3040
1FC0
0F80
0000
0F80
31C0
70E0
70E0
7060
0060
0060
07E0
1C60
3060
6060
E060
E060
E0E4
737C
3C78
ENDCHAR
STARTCHAR Aogonek
ENCODING 260
SWIDTH 719 0
DWIDTH 23 0
BBX 23 29 0 -7
BITMAP
003000
003800
003800
007800
005C00
00DC00
00CE00
008E00
018F00
010700
030700
030380
020380
07FFC0
0401C0
0C01E0
0C00E0
1800E0
1800F0
3800F0
7800FC
FE03FE
000600
000C00
001C00
001800
001800
001CC0
000F00
ENDCHAR
STARTCHAR aogonek
ENCODING 261
SWIDTH 480 0
DWIDTH 15 0
BBX 14 23 1 -7
BITMAP
0F80
31C0
70E0
70E0
7060
0060
0060
03E0
1E60
3060
6060
E060
E060
E0E0
737C
3C78
0030
0060
00C0
00C0
00C0
00E4
0078
ENDCHAR
STARTCHAR Cacute
ENCODING 262
SWIDTH 670 0
DWIDTH 21 0
BBX 18 27 2 0
BITMAP
003C00
007000
00E000
018000
000000
01FC80
0F0F80
1C0380
380180
700180
700080
E00080
E00080
E00000
E00000
E00000
E00000
E00000
E00000
E00000
F00000
700000
780040
3C00C0
1F0380
0FFE00
03F800
ENDCHAR
STARTCHAR cacute
ENCODING 263
SWIDTH 446 0
DWIDTH 14 0
BBX 13 22 1 0
BITMAP
01C0
0180
0380
0300
0600
0000
0FC0
1CE0
3070
6070
6030
E000
E000
E000
E000
E000
E000
F008
7010
7C70
3FE0
0F80
ENDCHAR
STARTCHAR Ccircumflex
ENCODING 264
SWIDTH 670 0
DWIDTH 21 0
BBX 18 28 2 0
BITMAP
006000
00F000
01F800
019C00
060600
000000
01FC80
0F0F80
1C0380
380180
700180
700080
E00080
E00080
E00000
E00000
E00000
E00000
E00000
E00000
E00000
F00000
700000
780040
3C00C0
1F0380
0FFE00
03F800
ENDCHAR
STARTCHAR ccircumflex
ENCODING 265
SWIDTH 446 0
DWIDTH 14 0
BBX 13 22 1 0
BITMAP
0700
0780
0DC0
18C0
3060
0000
0FC0
1CE0
3070
6070
6030
E000
E000
E000
E000
E000
E000
F008
7010
7C70
3FE0
0F80
ENDCHAR
STARTCHAR Cdotaccent
ENCODING 266
SWIDTH 670 0
DWIDTH 21 0
BBX 18 27 2 0
BITMAP
006000
00F000
00F000
006000
000000
01FC80
0F0F80
1C0380
380180
700180
700080
E00080
E00080
E00000
E00000
E00000
E00000
E00000
E00000
E00000
F00000
700000
780040
3C00C0
1F0380
0FFE00
03F800
ENDCHAR
STARTCHAR cdotaccent
ENCODING 267
SWIDTH 446 0
DWIDTH 14 0
BBX 13 22 1 0
BITMAP
0700
0780
0700
0700
0000
0000
0FC0
1CE0
3070
6070
6030
E000
E000
E000
E000
E000
E000
F008
7010
7C70
3FE0
0F80
ENDCHAR
STARTCHAR Ccaron
ENCODING 268
SWIDTH 670 0
DWIDTH 21 0
BBX 18 28 2 0
BITMAP
060600
030C00
019800
00F000
007000
000000
01FC80
0F0F80
1C0380
380180
700180
700080
E00080
E00080
E00000
E00000
E00000
E00000
E00000
E00000
E00000
F00000
700000
780040
3C00C0
1F0380
0FFE00
03F800
ENDCHAR
STARTCHAR ccaron
ENCODING 269
SWIDTH 446 0
DWIDTH 14 0
BBX 13 22 1 0
BITMAP
3060
18C0
0DC0
0780
0700
0000
0FC0
1CE0
3070
6070
6030
E000
E000
E000
E000
E000
E000
F008
7010
7C70
3FE0
0F80
ENDCHAR
STARTCHAR Dcaron
ENCODING 270
SWIDTH 730 0
DWIDTH 23 0
BBX 21 28 1 0
BITMAP
060600
030C00
019800
00F000
00F000
000000
FFF800
1C3F00
1C0780
1C01C0
1C00E0
1C00F0
1C0070
1C0070
1C0078
1C0078
1C0078
1C0078
1C0078
1C0078
1C0070
1C0070
1C0070
1C00E0
1C01C0
1C0380
1C1F00
FFFC00
ENDCHAR
STARTCHAR dcaron
ENCODING 271
SWIDTH 626 0
DWIDTH 20 0
BBX 18 24 1 0
BITMAP
000800
0078C0
00F8C0
0038C0
0018C0
001980
001980
001880
07D800
1C7800
303800
703800
601800
E01800
E01800
E01800
E01800
E01800
E01800
E01800
701800
787800
3FDE00
1F1C00
ENDCHAR
STARTCHAR Dcroat
ENCODING 272
SWIDTH 733 0
DWIDTH 23 0
BBX 21 22 1 0
BITMAP
FFF800
1C3F00
1C0780
1C01C0
1C01E0
1C00F0
1C0070
1C0070
1C0078
1C0078
FFF078
1C0078
1C0078
1C0078
1C0070
1C0070
1C00F0
1C00E0
1C01C0
1C03C0
1C1F00
FFFC00
ENDCHAR
STARTCHAR dcroat
ENCODING 273
SWIDTH 540 0
DWIDTH 17 0
BBX 15 24 1 0
BITMAP
0008
0078
00F8
0038
0038
03FE
0038
0038
07F8
1C78
3038
7038
6038
E038
E038
E038
E038
E038
E038
E038
7038
7878
3FDE
1F1C
ENDCHAR
STARTCHAR Emacron
ENCODING 274
SWIDTH 626 0
DWIDTH 20 0
BBX 18 25 1 0
BITMAP
07FC00
000000
000000
FFFF80
1FFF80
1C0180
1C0080
1C0080
1C0080
1C0000
1C0600
1C0600
1C0600
1FFE00
1C0E00
1C0600
1C0600
1C0200
1C0000
1C0040
1C0040
1C00C0
1C01C0
1C1F80
FFFF80
ENDCHAR
STARTCHAR emacron
ENCODING 275
SWIDTH 464 0
DWIDTH 15 0
BBX 13 20 1 0
BITMAP
3FE0
0000
0000
0000
0F80
18E0
3070
6070
6030
E038
FFF8
E000
E000
E000
E000
7008
7010
3C30
1FE0
0F80
ENDCHAR
STARTCHAR Ebreve
ENCODING 276
SWIDTH 626 0
DWIDTH 20 0
BBX 18 28 1 0
BITMAP
0C0400
040C00
061800
03F800
01F000
000000
FFFF80
1FFF80
1C0180
1C0080
1C0080
1C0080
1C0000
1C0600
1C0600
1C0600
1FFE00
1C0E00
1C0600
1C0600
1C0200
1C0000
1C0040
1C0040
1C00C0
1C01C0
1C1F80
FFFF80
ENDCHAR
STARTCHAR ebreve
ENCODING 277
SWIDTH 464 0
DWIDTH 15 0
BBX 13 22 1 0
BITMAP
2020
3020
1860
1FC0
0F80
0000
0F80
18E0
3070
6070
6030
E038
FFF8
E000
E000
E000
E000
7008
7010
3C30
1FE0
0F80
ENDCHAR
STARTCHAR Edotaccent
ENCODING 278
SWIDTH 626 0
DWIDTH 20 0
BBX 18 27 1 0
BITMAP
00C000
01E000
01E000
00C000
000000
FFFF80
1FFF80
1C0180
1C0080
1C0080
1C0080
1C0000
1C0600
1C0600
1C0600
1FFE00
1C0E00
1C0600
1C0600
1C0200
1C0000
1C0040
1C0040
1C00C0
1C01C0
1C1F80
FFFF80
ENDCHAR
STARTCHAR edotaccent
ENCODING 279
SWIDTH 464 0
DWIDTH 15 0
BBX 13 22 1 0
BITMAP
0300
0780
0780
0300
0000
0000
0F80
18E0
3070
6070
6030
E038
FFF8
E000
E000
E000
E000
7008
7010
3C30
1FE0
0F80
ENDCHAR
STARTCHAR Eogonek
ENCODING 280
SWIDTH 625 0
DWIDTH 20 0
BBX 18 29 1 -7
BITMAP
FFFF80
1C0780
1C0180
1C0080
1C0080
1C0080
1C0000
1C0600
1C0600
1C0600
1FFE00
1C0E00
1C0600
1C0600
1C0400
1C0000
1C0040
1C0040
1C00C0
1C01C0
1C0380
FFFF80
000200
000400
000C00
001800
001800
001CC0
000F00
ENDCHAR
STARTCHAR eogonek
ENCODING 281
SWIDTH 464 0
DWIDTH 15 0
BBX 13 23 1 -7
BITMAP
0F80
18E0
3070
6070
6030
E038
FFF8
E000
E000
E000
E000
7008
7018
3C30
1FE0
0FC0
0180
0300
0600
0600
0600
0720
03C0
ENDCHAR
STARTCHAR Ecaron
ENCODING 282
SWIDTH 626 0
DWIDTH 20 0
BBX 18 28 1 0
BITMAP
040400
061800
033000
01F000
00E000
000000
FFFF80
1FFF80
1C0180
1C0080
1C0080
1C0080
1C0000
1C0600
1C0600
1C0600
1FFE00
1C0E00
1C0600
1C0600
1C0200
1C0000
1C0040
1C0040
1C00C0
1C01C0
1C1F80
FFFF80
ENDCHAR
STARTCHAR ecaron
ENCODING 283
SWIDTH 464 0
DWIDTH 15 0
BBX 13 22 1 0
BITMAP
3020
18C0
0DC0
0780
0700
0000
0F80
18E0
3070
6070
6030
E038
FFF8
E000
E000
E000
E000
7008
7010
3C30
1FE0
0F80
ENDCHAR
STARTCHAR Gcircumflex
ENCODING 284
SWIDTH 720 0
DWIDTH 23 0
BBX 20 28 2 0
BITMAP
006000
00F000
01F800
039C00
060600
000000
01FCC0
0F0FC0
1C03C0
3801C0
7001C0
7000C0
E000C0
E000C0
E00000
E00000
E00000
E00FF0
E003E0
E001C0
E001C0
F001C0
7001C0
7001C0
3801C0
3C03C0
0F0F80
03FC00
ENDCHAR
STARTCHAR gcircumflex
ENCODING 285
SWIDTH 484 0
DWIDTH 15 0
BBX 14 29 1 -7
BITMAP
0700
0780
0DC0
18C0
3020
0000
0FFC
39E0
7070
7070
6070
6070
7070
7070
38E0
1FC0
2000
6000
6000
FFE0
7FF8
3FFC
201C
400C
C00C
C008
E018
F860
3F80
ENDCHAR
STARTCHAR Gbreve
ENCODING 286
SWIDTH 720 0
DWIDTH 23 0
BBX 20 28 2 0
BITMAP
040200
060600
030C00
03FC00
00F000
000000
01FCC0
0F0FC0
1C03C0
3801C0
7001C0
7000C0
E000C0
E000C0
E00000
E00000
E00000
E00FF0
E003E0
E001C0
E001C0
F001C0
7001C0
7001C0
3801C0
3C03C0
0F0F80
03FC00
ENDCHAR
STARTCHAR gbreve
ENCODING 287
SWIDTH 484 0
DWIDTH 15 0
BBX 14 29 1 -7
BITMAP
2020
3020
1860
1FC0
0F80
0000
0FFC
39E0
7070
7070
6070
6070
7070
7070
38E0
1FC0
2000
6000
6000
FFE0
7FF8
3FFC
201C
400C
C00C
C008
E018
F860
3F80
ENDCHAR
STARTCHAR Gdotaccent
ENCODING 288
SWIDTH 720 0
DWIDTH 23 0
BBX 20 27 2 0
BITMAP
006000
00F000
00F000
006000
000000
01FCC0
0F0FC0
1C03C0
3801C0
7001C0
7000C0
E000C0
E000C0
E00000
E00000
E00000
E00FF0
E003E0
E001C0
E001C0
F001C0
7001C0
7001C0
3801C0
3C03C0
0F0F80
03FC00
ENDCHAR
STARTCHAR gdotaccent
ENCODING 289
SWIDTH 484 0
DWIDTH 15 0
BBX 14 29 1 -7
BITMAP
0300
0780
0780
0300
0000
0000
0FFC
39E0
7070
7070
6070
6070
7070
7070
38E0
1FC0
2000
6000
6000
FFE0
7FF8
3FFC
201C
400C
C00C
C008
E018
F860
3F80
ENDCHAR
STARTCHAR Gcommaaccent
ENCODING 290
SWIDTH 720 0
DWIDTH 23 0
BBX 20 31 2 -9
BITMAP
01FCC0
0F0FC0
1C03C0
3801C0
7001C0
7000C0
E000C0
E000C0
E00000
E00000
E00000
E00FF0
E003E0
E001C0
E001C0
F001C0
7001C0
7001C0
3801C0
3C03C0
0F0F80
03FC00
000000
00E000
00E000
01F000
00F000
003000
002000
004000
008000
ENDCHAR
STARTCHAR gcommaaccent
ENCODING 291
SWIDTH 484 0
DWIDTH 15 0
BBX 14 32 1 -7
BITMAP
0180
0300
0600
0400
0700
0780
0780
0700
0000
0FFC
39E0
7070
7070
6070
6070
7070
7070
38E0
1FC0
2000
6000
6000
FFE0
7FF8
3FFC
201C
400C
C00C
C008
E018
F860
3F80
ENDCHAR
STARTCHAR Hcircumflex
ENCODING 292
SWIDTH 777 0
DWIDTH 25 0
BBX 23 28 1 0
BITMAP
003800
003800
006C00
00C600
018300
000000
FF83FE
3F01F8
1C00F0
1C0070
1C0070
1C0070
1C0070
1C0070
1C0070
1C0070
1FFFF0
1C0070
1C0070
1C0070
1C0070
1C0070
1C0070
1C0070
1C0070
1C0070
3E00F8
FF83FE
ENDCHAR
STARTCHAR hcircumflex
ENCODING 293
SWIDTH 577 0
DWIDTH 18 0
BBX 17 29 1 0
BITMAP
018000
03C000
07C000
0C6000
183000
080000
F80000
F80000
380000
380000
380000
380000
380000
38F000
3BF800
3E3C00
3C1C00
380C00
380C00
380C00
380C00
380C00
380C00
380C00
380C00
380C00
380E00
7C1E00
FE7F80
ENDCHAR
STARTCHAR Hbar
ENCODING 294
SWIDTH 788 0
DWIDTH 25 0
BBX 23 22 1 0
BITMAP
FFC3FE
3F01F8
1E0070
1C0070
1C0070
1C0070
FFFFFE
1C0070
1C0070
1C0070
1FFFF0
1C0070
1C0070
1C0070
1C0070
1C0070
1C0070
1C0070
1C0070
1E0070
3E00F8
FFC3FE
ENDCHAR
STARTCHAR hbar
ENCODING 295
SWIDTH 579 0
DWIDTH 19 0
BBX 17 24 1 0
BITMAP
080000
F80000
F80000
380000
380000
FFC000
380000
380000
38F000
3BF800
3F3C00
3C1C00
380C00
380C00
380C00
380C00
380C00
380C00
380C00
380C00
380C00
380E00
7C1E00
FE7F80
ENDCHAR
STARTCHAR Itilde
ENCODING 296
SWIDTH 357 0
DWIDTH 11 0
BBX 10 27 1 0
BITMAP
7C40
FF80
8F80
0000
0000
FF80
3E00
1C00
1C00
1C00
1C00
1C00
1C00
1C00
1C00
1C00
1C00
1C00
1C00
1C00
1C00
1C00
1C00
1C00
1C00
3E00
FF80
ENDCHAR
STARTCHAR itilde
ENCODING 297
SWIDTH 285 0
DWIDTH 9 0
BBX 9 21 0 0
BITMAP
7880
FF00
8F00
0000
0000
1C00
7C00
1C00
1C00
1C00
1C00
1C00
1C00
1C00
1C00
1C00
1C00
1C00
1C00
1E00
7F00
ENDCHAR
STARTCHAR Imacron
ENCODING 298
SWIDTH 357 0
DWIDTH 11 0
BBX 9 25 1 0
BITMAP
FF80
0000
0000
FF80
3E00
1C00
1C00
1C00
1C00
1C00
1C00
1C00
1C00
1C00
1C00
1C00
1C00
1C00
1C00
1C00
1C00
1C00
1C00
3E00
FF80
ENDCHAR
STARTCHAR imacron
ENCODING 299
SWIDTH 285 0
DWIDTH 9 0
BBX 8 20 0 0
BITMAP
FF
00
00
00
1C
7C
1C
1C
1C
1C
1C
1C
1C
1C
1C
1C
1C
1C
1E
7F
ENDCHAR
STARTCHAR Ibreve
ENCODING 300
SWIDTH 357 0
DWIDTH 11 0
BBX 9 28 1 0
BITMAP
8080
C080
E180
7F00
3E00
0000
FF80
3E00
1C00
1C00
1C00
1C00
1C00
1C00
1C00
1C00
1C00
1C00
1C00
1C00
1C00
1C00
1C00
1C00
1C00
1C00
3E00
FF80
ENDCHAR
STARTCHAR ibreve
ENCODING 301
SWIDTH 285 0
DWIDTH 9 0
BBX 8 23 0 0
BITMAP
81
81
83
C2
7E
3C
00
1C
7C
1C
1C
1C
1C
1C
1C
1C
1C
1C
1C
1C
1C
1E
7F
ENDCHAR
STARTCHAR Iogonek
ENCODING 302
SWIDTH 357 0
DWIDTH 11 0
BBX 9 29 1 -7
BITMAP
FF80
3E00
1C00
1C00
1C00
1C00
1C00
1C00
1C00
1C00
1C00
1C00
1C00
1C00
1C00
1C00
1C00
1C00
1C00
1C00
3E00
FF80
0C00
1800
3000
3000
3000
3980
1E00
ENDCHAR
STARTCHAR iogonek
ENCODING 303
SWIDTH 285 0
DWIDTH 9 0
BBX 7 30 1 -7
BITMAP
38
38
38
38
00
00
00
38
F8
38
38
38
38
38
38
38
38
38
38
38
38
3C
FE
10
20
60
E0
E0
72
7C
ENDCHAR
STARTCHAR Idotaccent
ENCODING 304
SWIDTH 357 0
DWIDTH 11 0
BBX 9 27 1 0
BITMAP
0C00
1E00
1E00
0C00
0000
FF80
3E00
1C00
1C00
1C00
1C00
1C00
1C00
1C00
1C00
1C00
1C00
1C00
1C00
1C00
1C00
1C00
1C00
1C00
1C00
3E00
FF80
ENDCHAR
STARTCHAR dotlessi
ENCODING 305
SWIDTH 285 0
DWIDTH 9 0
BBX 7 16 1 0
BITMAP
38
F8
38
38
38
38
38
38
38
38
38
38
38
38
3C
FE
ENDCHAR
STARTCHAR IJ
ENCODING 306
SWIDTH 753 0
DWIDTH 24 0
BBX 22 22 1 0
BITMAP
FF87FC
3E01F8
1C00F0
1C00F0
1C0060
1C0060
1C0060
1C0060
1C0060
1C0060
1C0060
1C0060
1C0060
1C0060
1C0060
1C0060
1C0060
1C0060
1C18E0
1C3CE0
3E1EC0
FF8F80
ENDCHAR
STARTCHAR ij
ENCODING 307
SWIDTH 548 0
DWIDTH 18 0
BBX 14 29 1 -7
BITMAP
381C
381C
381C
381C
0000
0000
381C
F87C
381C
381C
381C
381C
381C
381C
381C
381C
381C
381C
381C
381C
3C1C
FE1C
001C
001C
001C
0218
0718
07B0
03E0
ENDCHAR
STARTCHAR Jcircumflex
ENCODING 308
SWIDTH 396 0
DWIDTH 13 0
BBX 12 28 0 0
BITMAP
0380
03C0
06C0
0C60
1830
0000
1FF0
07C0
0380
0380
0380
0380
0380
0380
0380
0380
0380
0380
0380
0380
0380
0380
0380
0380
E380
E380
F700
7E00
ENDCHAR
STARTCHAR jcircumflex
ENCODING 309
SWIDTH 263 0
DWIDTH 8 0
BBX 12 29 -3 -7
BITMAP
0380
0780
0CC0
0860
1030
0000
0380
0F80
0380
0380
0380
0380
0380
0380
0380
0380
0380
0380
0380
0380
0380
0380
0380
0380
0380
4300
E300
F600
7C00
ENDCHAR
STARTCHAR Kcommaaccent
ENCODING 310
SWIDTH 702 0
DWIDTH 22 0
BBX 21 31 1 -9
BITMAP
FF8FF0
3E07C0
1C0380
1C0700
1C0600
1C0C00
1C1800
1C3000
1C4000
1C8000
1D8000
1FC000
1DE000
1CF000
1C7800
1C3C00
1C1E00
1C0F00
1C0780
1C03C0
3E03F0
FF8FF8
000000
007000
00F000
00F000
007000
001000
003000
006000
00C000
ENDCHAR
STARTCHAR kcommaaccent
ENCODING 311
SWIDTH 542 0
DWIDTH 17 0
BBX 16 33 1 -9
BITMAP
0800
F800
F800
3800
3800
3800
3800
3800
38FE
3878
3870
3860
3880
3900
3A00
3F00
3B80
39C0
39E0
38F0
3878
3838
7C3E
FE7F
0000
0380
03C0
03C0
03C0
00C0
0080
0180
0200
ENDCHAR
STARTCHAR kgreenlandic
ENCODING 312
SWIDTH 542 0
DWIDTH 17 0
BBX 16 16 1 0
BITMAP
387E
F83C
3830
3860
38C0
3980
3B00
3F00
3F80
3BC0
39E0
38F0
3878
383C
7C3E
FE7F
ENDCHAR
STARTCHAR Lacute
ENCODING 313
SWIDTH 585 0
DWIDTH 19 0
BBX 17 27 1 0
BITMAP
03C000
070000
0E0000
180000
000000
FF8000
3F0000
1C0000
1C0000
1C0000
1C0000
1C0000
1C0000
1C0000
1C0000
1C0000
1C0000
1C0000
1C0000
1C0000
1C0000
1C0080
1C0180
1C0180
1C0380
1E0700
FFFF00
ENDCHAR
STARTCHAR lacute
ENCODING 314
SWIDTH 283 0
DWIDTH 9 0
BBX 7 28 1 0
BITMAP
0E
1C
38
60
08
F8
F8
38
38
38
38
38
38
38
38
38
38
38
38
38
38
38
38
38
38
38
3C
FE
ENDCHAR
STARTCHAR Lcommaaccent
ENCODING 315
SWIDTH 585 0
DWIDTH 19 0
BBX 17 31 1 -9
BITMAP
FF8000
3F0000
1C0000
1C0000
1C0000
1C0000
1C0000
1C0000
1C0000
1C0000
1C0000
1C0000
1C0000
1C0000
1C0000
1C0000
1C0080
1C0180
1C0180
1C0380
1E0700
FFFF00
000000
01C000
03C000
03C000
01C000
004000
00C000
018000
030000
ENDCHAR
STARTCHAR lcommaaccent
ENCODING 316
SWIDTH 283 0
DWIDTH 9 0
BBX 7 33 1 -9
BITMAP
08
F8
F8
38
38
38
38
38
38
38
38
38
38
38
38
38
38
38
38
38
38
38
3C
FE
00
38
38
7C
3C
0C
08
30
20
ENDCHAR
STARTCHAR Lcaron
ENCODING 317
SWIDTH 585 0
DWIDTH 19 0
BBX 17 22 1 0
BITMAP
FF8600
3F0600
1C0600
1C0E00
1C0C00
1C0C00
1C0400
1C0000
1C0000
1C0000
1C0000
1C0000
1C0000
1C0000
1C0000
1C0000
1C0080
1C0180
1C0180
1C0380
1E0700
FFFF00
ENDCHAR
STARTCHAR lcaron
ENCODING 318
SWIDTH 366 0
DWIDTH 12 0
BBX 10 24 1 0
BITMAP
0800
F9C0
F9C0
39C0
3980
3980
3980
3900
3800
3800
3800
3800
3800
3800
3800
3800
3800
3800
3800
3800
3800
3800
3C00
FE00
ENDCHAR
STARTCHAR Ldot
ENCODING 319
SWIDTH 605 0
DWIDTH 19 0
BBX 17 22 1 0
BITMAP
FF8000
3F0000
1C0000
1C0000
1C0000
1C0000
1C0000
1C0000
1C0700
1C0700
1C0700
1C0700
1C0000
1C0000
1C0000
1C0000
1C0080
1C0180
1C0180
1C0380
1E0700
FFFF00
ENDCHAR
STARTCHAR ldot
ENCODING 320
SWIDTH 357 0
DWIDTH 11 0
BBX 11 24 1 0
BITMAP
0800
F800
F800
3800
3800
3800
3800
3800
3800
3800
38C0
39E0
39E0
38C0
3800
3800
3800
3800
3800
3800
3800
3800
3C00
FE00
ENDCHAR
STARTCHAR Lslash
ENCODING 321
SWIDTH 590 0
DWIDTH 19 0
BBX 17 22 1 0
BITMAP
7FC000
3F0000
1E0000
1C0000
1C0000
1C0000
1C1000
1C3000
1CC000
1F8000
1E0000
1C0000
3C0000
DC0000
9C0000
1C0000
1C0080
1C0080
1C0180
1C0180
1E0780
7FFF00
ENDCHAR
STARTCHAR lslash
ENCODING 322
SWIDTH 290 0
DWIDTH 9 0
BBX 9 24 0 0
BITMAP
0400
3C00
7C00
1C00
1C00
1C00
1C00
1C00
1C80
1F00
1E00
1C00
3C00
7C00
DC00
1C00
1C00
1C00
1C00
1C00
1C00
1C00
1E00
7F00
ENDCHAR
STARTCHAR Nacute
ENCODING 323
SWIDTH 742 0
DWIDTH 24 0
BBX 22 27 1 0
BITMAP
001E00
003800
007000
00C000
000000
FC03FC
7C00F0
1E0060
1F0060
1F8060
1F8060
1BC060
19E060
18F060
18F060
187860
183C60
181E60
181E60
180F60
1807E0
1803E0
1803E0
1801E0
1800E0
3C0060
FE0020
ENDCHAR
STARTCHAR nacute
ENCODING 324
SWIDTH 576 0
DWIDTH 18 0
BBX 17 22 1 0
BITMAP
007000
00E000
00C000
00C000
018000
000000
38F000
FBF800
3E3C00
3C1C00
380C00
380C00
380C00
380C00
380C00
380C00
380C00
380C00
380C00
380C00
3C1E00
FE7F80
ENDCHAR
STARTCHAR Ncommaaccent
ENCODING 325
SWIDTH 742 0
DWIDTH 24 0
BBX 22 31 1 -9
BITMAP
FC03FC
7C00F0
1E0060
1F0060
1F8060
1F8060
1BC060
19E060
18F060
18F060
187860
183C60
181E60
181E60
180F60
1807E0
1803E0
1803E0
1801E0
1800E0
3C0060
FE0020
000000
007000
007000
00F800
007800
001800
001000
002000
004000
ENDCHAR
STARTCHAR ncommaaccent
ENCODING 326
SWIDTH 576 0
DWIDTH 18 0
BBX 17 25 1 -9
BITMAP
38F000
FBF800
3E3C00
3C1C00
380C00
380C00
380C00
380C00
380C00
380C00
380C00
380C00
380C00
380C00
3C1E00
FE7F80
000000
018000
03C000
03C000
03C000
00C000
00C000
018000
020000
ENDCHAR
STARTCHAR Ncaron
ENCODING 327
SWIDTH 742 0
DWIDTH 24 0
BBX 22 28 1 0
BITMAP
030100
018600
00CC00
007800
003800
000000
FC03FC
7C00F0
1E0060
1F0060
1F8060
1F8060
1BC060
19E060
18F060
18F060
187860
183C60
181E60
181E60
180F60
1807E0
1803E0
1803E0
1801E0
1800E0
3C0060
FE0020
ENDCHAR
STARTCHAR ncaron
ENCODING 328
SWIDTH 576 0
DWIDTH 18 0
BBX 17 22 1 0
BITMAP
0C1800
063000
036000
01E000
01C000
000000
38F000
FBF800
3E3C00
3C1C00
380C00
380C00
380C00
380C00
380C00
380C00
380C00
380C00
380C00
380C00
3C1E00
FE7F80
ENDCHAR
STARTCHAR napostrophe
ENCODING 329
SWIDTH 576 0
DWIDTH 18 0
BBX 23 24 -5 0
BITMAP
700000
F00000
F80000
780000
100000
100000
200000
C00000
00E3C0
03EFE0
00F8F0
00F070
00E030
00E030
00E030
00E030
00E030
00E030
00E030
00E030
00E030
00E030
00F078
03F9FE
ENDCHAR
STARTCHAR Eng
ENCODING 330
SWIDTH 742 0
DWIDTH 24 0
BBX 22 29 1 -7
BITMAP
FC03FC
7C00F0
1E0060
1F0060
1F8060
1F8060
1BC060
19E060
18F060
18F060
187860
183C60
183C60
181E60
180F60
1807E0
1807E0
1803E0
1801E0
1800E0
3C00E0
FE0060
000060
000060
000060
001060
0038C0
003FC0
001F00
ENDCHAR
STARTCHAR eng
ENCODING 331
SWIDTH 559 0
DWIDTH 18 0
BBX 14 23 1 -7
BITMAP
38F0
FBF8
3E3C
3C1C
380C
380C
380C
380C
380C
380C
380C
380C
380C
380C
3C0C
FE0C
000C
000C
000C
020C
0718
03F8
01E0
ENDCHAR
STARTCHAR Omacron
ENCODING 332
SWIDTH 738 0
DWIDTH 24 0
BBX 20 25 2 0
BITMAP
07FE00
000000
000000
03F800
0F1F00
1C0780
3803C0
7001C0
7000E0
F000E0
E000F0
E00070
E00070
E00070
E00070
E00070
E000F0
E000F0
F000E0
7000E0
7001C0
3801C0
1C0380
0F0E00
03F800
ENDCHAR
STARTCHAR omacron
ENCODING 333
SWIDTH 514 0
DWIDTH 16 0
BBX 14 20 1 0
BITMAP
1FF0
0000
0000
0000
0FC0
1CF0
3038
7018
601C
E01C
E01C
E01C
E01C
E01C
E01C
701C
7018
3838
1C70
0FC0
ENDCHAR
STARTCHAR Obreve
ENCODING 334
SWIDTH 738 0
DWIDTH 24 0
BBX 20 28 2 0
BITMAP
040600
060400
030C00
03F800
01F000
000000
03F800
0F1F00
1C0780
3803C0
7001C0
7000E0
F000E0
E000F0
E00070
E00070
E00070
E00070
E00070
E000F0
E000F0
F000E0
7000E0
7001C0
3801C0
1C0380
0F0E00
03F800
ENDCHAR
STARTCHAR obreve
ENCODING 335
SWIDTH 514 0
DWIDTH 16 0
BBX 14 22 1 0
BITMAP
1010
1030
1820
0FE0
07C0
0000
0FC0
1CF0
3038
7018
601C
E01C
E01C
E01C
E01C
E01C
E01C
701C
7018
3838
1C70
0FC0
ENDCHAR
STARTCHAR Ohungarumlaut
ENCODING 336
SWIDTH 738 0
DWIDTH 24 0
BBX 20 27 2 0
BITMAP
007780
00E700
01CC00
011800
000000
03F800
0F1F00
1C0780
3803C0
7001C0
7000E0
F000E0
E000F0
E00070
E00070
E00070
E00070
E00070
E000F0
E000F0
F000E0
7000E0
7001C0
3801C0
1C0380
0F0E00
03F800
ENDCHAR
STARTCHAR ohungarumlaut
ENCODING 337
SWIDTH 514 0
DWIDTH 16 0
BBX 14 22 1 0
BITMAP
03BC
03B8
0730
0660
0C40
0000
0FC0
1CF0
3038
7018
601C
E01C
E01C
E01C
E01C
E01C
E01C
701C
7018
3838
1C70
0FC0
ENDCHAR
STARTCHAR OE
ENCODING 338
SWIDTH 945 0
DWIDTH 30 0
BBX 27 22 2 0
BITMAP
03FFFFC0
0F1F01C0
1C0F0040
38070040
70070040
70070000
F0070100
E0070100
E0070300
E0070300
E007FF00
E0070300
E0070100
E0070100
E0070000
F0070020
70070020
70070020
38070060
1C0700E0
0F1F07E0
03FFFFE0
ENDCHAR
STARTCHAR oe
ENCODING 339
SWIDTH 807 0
DWIDTH 26 0
BBX 24 16 1 0
BITMAP
0FC1F0
1CE31C
30360C
703C0E
601C06
E01C07
E01FFF
E01C00
E01C00
E01C00
E01C00
701E01
701F02
383786
1C63FC
0FC1F0
ENDCHAR
STARTCHAR Racute
ENCODING 340
SWIDTH 659 0
DWIDTH 21 0
BBX 20 27 1 0
BITMAP
007000
00E000
01C000
030000
000000
FFF800
1C3E00
1C0F00
1C0700
1C0700
1C0780
1C0700
1C0700
1C0700
1C0E00
1C3C00
1FF000
1CF000
1C7800
1C3C00
1C1C00
1C1E00
1C0F00
1C0700
1C0780
3E03E0
FF81F0
ENDCHAR
STARTCHAR racute
ENCODING 341
SWIDTH 380 0
DWIDTH 12 0
BBX 11 22 1 0
BITMAP
0380
0700
0600
0C00
0800
0000
18C0
F9E0
3BE0
3CE0
3C00
3800
3800
3800
3800
3800
3800
3800
3800
3800
3C00
FF00
ENDCHAR
STARTCHAR Rcommaaccent
ENCODING 342
SWIDTH 659 0
DWIDTH 21 0
BBX 20 31 1 -9
BITMAP
FFF800
1C3E00
1C0F00
1C0700
1C0700
1C0780
1C0700
1C0700
1C0700
1C0E00
1C3C00
1FF000
1CF000
1C7800
1C3C00
1C1C00
1C1E00
1C0F00
1C0700
1C0780
3E03E0
FF81F0
000000
00E000
00F000
00F000
00F000
003000
002000
004000
008000
ENDCHAR
STARTCHAR rcommaaccent
ENCODING 343
SWIDTH 380 0
DWIDTH 12 0
BBX 11 25 1 -9
BITMAP
18C0
F9E0
3BE0
3CE0
3C00
3800
3800
3800
3800
3800
3800
3800
3800
3800
3C00
FF00
0000
1800
3C00
3C00
3C00
0400
0C00
1800
2000
ENDCHAR
STARTCHAR Rcaron
ENCODING 344
SWIDTH 659 0
DWIDTH 21 0
BBX 20 28 1 0
BITMAP
0C0C00
061800
033000
01E000
01E000
000000
FFF800
1C3E00
1C0F00
1C0700
1C0700
1C0780
1C0700
1C0700
1C0700
1C0E00
1C3C00
1FF000
1CF000
1C7800
1C3C00
1C1C00
1C1E00
1C0F00
1C0700
1C0780
3E03E0
FF81F0
ENDCHAR
STARTCHAR rcaron
ENCODING 345
SWIDTH 380 0
DWIDTH 12 0
BBX 11 22 1 0
BITMAP
60C0
3180
3B00
1E00
0E00
0000
18C0
F9E0
3BE0
3CE0
3C00
3800
3800
3800
3800
3800
3800
3800
3800
3800
3C00
FF00
ENDCHAR
STARTCHAR Sacute
ENCODING 346
SWIDTH 504 0
DWIDTH 16 0
BBX 14 27 1 0
BITMAP
01C0
0380
0700
0C00
0000
0FC8
38F8
7038
7018
6018
7008
7008
7800
3E00
3F00
0FC0
07F0
01F8
0078
003C
801C
C01C
C01C
C01C
E038
FC70
CFC0
ENDCHAR
STARTCHAR sacute
ENCODING 347
SWIDTH 394 0
DWIDTH 13 0
BBX 11 22 1 0
BITMAP
0380
0700
0600
0C00
0800
0000
1F40
71C0
60C0
E0C0
E040
F000
7C00
3F00
1F80
07C0
81E0
80E0
C0E0
C0C0
F1C0
9F00
ENDCHAR
STARTCHAR Scircumflex
ENCODING 348
SWIDTH 504 0
DWIDTH 16 0
BBX 14 28 1 0
BITMAP
0300
0780
0FC0
1CE0
3030
0000
0FC8
38F8
7038
7018
6018
7008
7008
7800
3E00
3F00
0FC0
07F0
01F8
0078
003C
801C
C01C
C01C
C01C
E038
FC70
CFC0
ENDCHAR
STARTCHAR scircumflex
ENCODING 349
SWIDTH 394 0
DWIDTH 13 0
BBX 11 22 1 0
BITMAP
0E00
1F00
1B00
3180
60C0
0000
1F40
71C0
60C0
E0C0
E040
F000
7C00
3F00
1F80
07C0
81E0
80E0
C0E0
C0C0
F1C0
9F00
ENDCHAR
STARTCHAR uni015E
ENCODING 350
SWIDTH 504 0
DWIDTH 16 0
BBX 14 29 1 -7
BITMAP
0FC8
38F8
7038
7018
6018
7008
7008
7800
3E00
3F00
0FC0
07F0
01F8
0078
003C
801C
C01C
C01C
C01C
E038
FC70
CFC0
0200
0200
0780
00C0
00C0
08C0
0780
ENDCHAR
STARTCHAR uni015F
ENCODING 351
SWIDTH 394 0
DWIDTH 13 0
BBX 11 23 1 -7
BITMAP
1F40
71C0
60C0
E0C0
E040
F000
7C00
3F00
1F80
07C0
81E0
80E0
C0E0
C0C0
F1C0
9F00
0800
0800
0E00
0300
0100
2300
1E00
ENDCHAR
STARTCHAR Scaron
ENCODING 352
SWIDTH 504 0
DWIDTH 16 0
BBX 14 28 1 0
BITMAP
3010
1860
0CC0
0780
0380
0000
0FC8
38F8
7038
7018
6018
7008
7008
7800
3E00
3F00
0FC0
07F0
01F8
0078
003C
801C
C01C
C01C
C01C
E038
FC70
CFC0
ENDCHAR
STARTCHAR scaron
ENCODING 353
SWIDTH 394 0
DWIDTH 13 0
BBX 11 22 1 0
BITMAP
60C0
3180
1B00
1E00
0E00
0000
1F40
71C0
60C0
E0C0
E040
F000
7C00
3F00
1F80
07C0
81E0
80E0
C0E0
C0C0
F1C0
9F00
ENDCHAR
STARTCHAR uni0162
ENCODING 354
SWIDTH 603 0
DWIDTH 19 0
BBX 19 29 0 -7
BITMAP
7FFFE0
70E1E0
40E060
40E060
40E020
C0E020
00E000
00E000
00E000
00E000
00E000
00E000
00E000
00E000
00E000
00E000
00E000
00E000
00E000
00E000
01F000
07FC00
004000
004000
00F000
001800
001800
011800
01F000
ENDCHAR
STARTCHAR uni0163
ENCODING 355
SWIDTH 315 0
DWIDTH 10 0
BBX 9 28 1 -7
BITMAP
0800
1800
1800
3800
7800
FF00
3800
3800
3800
3800
3800
3800
3800
3800
3800
3800
3800
3800
3880
3F00
1E00
0800
0800
1E00
0300
0300
2300
1E00
ENDCHAR
STARTCHAR Tcaron
ENCODING 356
SWIDTH 603 0
DWIDTH 19 0
BBX 19 28 0 0
BITMAP
040400
030C00
019800
01F000
00E000
000000
7FFFE0
70E1E0
40E060
40E060
40E020
C0E020
00E000
00E000
00E000
00E000
00E000
00E000
00E000
00E000
00E000
00E000
00E000
00E000
00E000
00E000
01F000
07FC00
ENDCHAR
STARTCHAR tcaron
ENCODING 357
SWIDTH 353 0
DWIDTH 11 0
BBX 10 23 1 0
BITMAP
01C0
01C0
09C0
1980
1980
3900
7900
FF00
3800
3800
3800
3800
3800
3800
3800
3800
3800
3800
3800
3800
3880
3F00
1E00
ENDCHAR
STARTCHAR Tbar
ENCODING 358
SWIDTH 603 0
DWIDTH 19 0
BBX 19 22 0 0
BITMAP
7FFFE0
70E1E0
60E060
40E060
40E060
C0E020
00E000
00E000
00E000
00E000
0FFE00
00E000
00E000
00E000
00E000
00E000
00E000
00E000
00E000
00E000
01F000
07FC00
ENDCHAR
STARTCHAR tbar
ENCODING 359
SWIDTH 328 0
DWIDTH 11 0
BBX 9 21 1 0
BITMAP
0800
1800
1800
3800
3800
FF00
3800
3800
3800
3800
FF00
3800
3800
3800
3800
3800
3800
3800
3880
3F00
1E00
ENDCHAR
STARTCHAR Utilde
ENCODING 360
SWIDTH 752 0
DWIDTH 24 0
BBX 22 27 1 0
BITMAP
00F880
01FF80
011F00
000000
000000
FF81FC
7E00F8
1C0070
1C0030
1C0030
1C0020
1C0020
1C0020
1C0020
1C0020
1C0020
1C0020
1C0020
1C0020
1C0020
1C0060
1C0060
1E0060
0E00C0
0F81C0
07FF80
01FE00
ENDCHAR
STARTCHAR utilde
ENCODING 361
SWIDTH 570 0
DWIDTH 18 0
BBX 16 21 1 0
BITMAP
0F08
1FF8
11F0
0000
0000
F87C
F87C
381C
381C
381C
381C
381C
381C
381C
381C
381C
381C
381C
3C3C
1FCF
0F0E
ENDCHAR
STARTCHAR Umacron
ENCODING 362
SWIDTH 752 0
DWIDTH 24 0
BBX 22 25 1 0
BITMAP
01FF00
000000
000000
FF81FC
7E00F8
1C0070
1C0030
1C0030
1C0020
1C0020
1C0020
1C0020
1C0020
1C0020
1C0020
1C0020
1C0020
1C0020
1C0060
1C0060
1E0060
0E00C0
0F81C0
07FF80
01FE00
ENDCHAR
STARTCHAR umacron
ENCODING 363
SWIDTH 570 0
DWIDTH 18 0
BBX 16 20 1 0
BITMAP
1FF0
0000
0000
0000
F87C
F87C
381C
381C
381C
381C
381C
381C
381C
381C
381C
381C
381C
3C3C
1FCF
0F0E
ENDCHAR
STARTCHAR Ubreve
ENCODING 364
SWIDTH 752 0
DWIDTH 24 0
BBX 22 28 1 0
BITMAP
010180
018100
00C300
00FE00
007C00
000000
FF81FC
7E00F8
1C0070
1C0030
1C0030
1C0020
1C0020
1C0020
1C0020
1C0020
1C0020
1C0020
1C0020
1C0020
1C0020
1C0060
1C0060
1E0060
0E00C0
0F81C0
07FF80
01FE00
ENDCHAR
STARTCHAR ubreve
ENCODING 365
SWIDTH 570 0
DWIDTH 18 0
BBX 16 22 1 0
BITMAP
1010
1810
0C30
0FE0
07C0
0000
F87C
F87C
381C
381C
381C
381C
381C
381C
381C
381C
381C
381C
381C
3C3C
1FCF
0F0E
ENDCHAR
STARTCHAR Uring
ENCODING 366
SWIDTH 752 0
DWIDTH 24 0
BBX 22 29 1 0
BITMAP
003C00
006600
00C200
00C200
004600
007C00
000000
FF81FC
7E00F8
1C0070
1C0030
1C0030
1C0020
1C0020
1C0020
1C0020
1C0020
1C0020
1C0020
1C0020
1C0020
1C0020
1C0060
1C0060
1E0060
0E00C0
0F81C0
07FF80
01FE00
ENDCHAR
STARTCHAR uring
ENCODING 367
SWIDTH 570 0
DWIDTH 18 0
BBX 16 24 1 0
BITMAP
03C0
0660
0420
0C20
0460
03C0
0000
0000
F87C
F87C
381C
381C
381C
381C
381C
381C
381C
381C
381C
381C
381C
3C3C
1FCF
0F0E
ENDCHAR
STARTCHAR Uhungarumlaut
ENCODING 368
SWIDTH 752 0
DWIDTH 24 0
BBX 22 27 1 0
BITMAP
001DE0
0039C0
007300
00C600
000000
FF81FC
7E00F8
1C0070
1C0030
1C0030
1C0020
1C0020
1C0020
1C0020
1C0020
1C0020
1C0020
1C0020
1C0020
1C0020
1C0060
1C0060
1E0060
0E00C0
0F81C0
07FF80
01FE00
ENDCHAR
STARTCHAR uhungarumlaut
ENCODING 369
SWIDTH 570 0
DWIDTH 18 0
BBX 16 22 1 0
BITMAP
01DC
03B8
0330
0630
0460
0000
F87C
F87C
381C
381C
381C
381C
381C
381C
381C
381C
381C
381C
381C
3C3C
1FCF
0F0E
ENDCHAR
STARTCHAR Uogonek
ENCODING 370
SWIDTH 753 0
DWIDTH 24 0
BBX 22 29 1 -7
BITMAP
FF81FC
7E00F8
1C0070
1C0030
1C0030
1C0020
1C0020
1C0020
1C0020
1C0020
1C0020
1C0020
1C0020
1C0020
1C0020
1C0060
1C0060
1E0060
0E00E0
0F81C0
07FF80
01FF00
000C00
001800
003000
003000
003000
003980
001E00
ENDCHAR
STARTCHAR uogonek
ENCODING 371
SWIDTH 570 0
DWIDTH 18 0
BBX 16 23 1 -7
BITMAP
F87C
F87C
381C
381C
381C
381C
381C
381C
381C
381C
381C
381C
381C
3C6C
1FCF
0F8C
0010
0020
0060
0060
00E0
0072
003C
ENDCHAR
STARTCHAR Wcircumflex
ENCODING 372
SWIDTH 944 0
DWIDTH 30 0
BBX 30 28 0 0
BITMAP
00030000
00078000
000F8000
0018C000
00306000
00000000
FF3FE0FC
7C0F8078
3C070030
1C078020
1C038060
1E038060
0E01C040
0F01C0C0
0703E0C0
0702E080
0786E180
0386F180
03847100
01CC7300
01C83B00
01E83A00
00F83E00
00F01E00
00F01C00
00701C00
00600C00
00200800
ENDCHAR
STARTCHAR wcircumflex
ENCODING 373
SWIDTH 749 0
DWIDTH 24 0
BBX 25 22 -1 0
BITMAP
000C0000
001E0000
00330000
00610000
00C08000
00000000
FE3F0F80
3C1E0780
1C0E0200
1C0E0600
1C0E0600
0E0F0400
0E0F0C00
071B0800
07138800
07139800
03B19000
03A1D000
01A1F000
01C0E000
01C0E000
00C04000
ENDCHAR
STARTCHAR Ycircumflex
ENCODING 374
SWIDTH 647 0
DWIDTH 21 0
BBX 21 28 0 0
BITMAP
003000
007800
00FC00
018C00
030300
000000
FF03F8
7E00E0
3C00C0
1E0180
0E0180
070300
078200
038600
03C400
01CC00
00F800
00F800
007000
007000
007000
007000
007000
007000
007000
007000
00F800
03FE00
ENDCHAR
STARTCHAR ycircumflex
ENCODING 375
SWIDTH 483 0
DWIDTH 15 0
BBX 16 29 0 -7
BITMAP
01C0
03C0
0360
0630
0C18
0000
FC3F
780E
380C
3808
3C18
1C18
1C10
0E30
0E30
0720
0760
0340
03C0
01C0
0180
0180
0100
0300
0300
0600
F600
FC00
7800
ENDCHAR
STARTCHAR Ydieresis
ENCODING 376
SWIDTH 647 0
DWIDTH 21 0
BBX 21 27 0 0
BITMAP
038700
038700
038700
038700
000000
FF03F8
7E00E0
3C00C0
1E0180
0E0180
070300
078200
038600
03C400
01CC00
00F800
00F800
007000
007000
007000
007000
007000
007000
007000
007000
00F800
03FE00
ENDCHAR
STARTCHAR Zacute
ENCODING 377
SWIDTH 594 0
DWIDTH 19 0
BBX 17 27 1 0
BITMAP
007800
00E000
01C000
030000
000000
7FFF80
780700
600F00
601E00
401C00
403C00
003800
007800
00F000
00E000
01E000
03C000
038000
078000
0F0000
0E0000
1E0080
3C0080
380180
780180
F00F00
FFFF00
ENDCHAR
STARTCHAR zacute
ENCODING 378
SWIDTH 458 0
DWIDTH 15 0
BBX 13 22 1 0
BITMAP
01C0
0180
0300
0300
0600
0000
7FF0
7070
40E0
40E0
C1C0
0380
0380
0700
0F00
0E00
1C00
3C18
3818
7030
F0F0
FFF0
ENDCHAR
STARTCHAR Zdotaccent
ENCODING 379
SWIDTH 594 0
DWIDTH 19 0
BBX 17 27 1 0
BITMAP
00C000
01E000
01E000
00C000
000000
7FFF80
780700
600F00
601E00
401C00
403C00
003800
007800
00F000
00E000
01E000
03C000
038000
078000
0F0000
0E0000
1E0080
3C0080
380180
780180
F00F00
FFFF00
ENDCHAR
STARTCHAR zdotaccent
ENCODING 380
SWIDTH 458 0
DWIDTH 15 0
BBX 13 22 1 0
BITMAP
0700
0780
0700
0700
0000
0000
7FF0
7070
40E0
40E0
C1C0
0380
0380
0700
0F00
0E00
1C00
3C18
3818
7030
F0F0
FFF0
ENDCHAR
STARTCHAR Zcaron
ENCODING 381
SWIDTH 594 0
DWIDTH 19 0
BBX 17 28 1 0
BITMAP
0C0C00
061800
033000
01E000
00E000
000000
7FFF80
780700
600F00
601E00
401C00
403C00
003800
007800
00F000
00E000
01E000
03C000
038000
078000
0F0000
0E0000
1E0080
3C0080
380180
780180
F00F00
FFFF00
ENDCHAR
STARTCHAR zcaron
ENCODING 382
SWIDTH 458 0
DWIDTH 15 0
BBX 13 22 1 0
BITMAP
3060
18C0
0D80
0780
0700
0000
7FF0
7070
40E0
40E0
C1C0
0380
0380
0700
0F00
0E00
1C00
3C18
3818
7030
F0F0
FFF0
ENDCHAR
STARTCHAR longs
ENCODING 383
SWIDTH 285 0
DWIDTH 9 0
BBX 11 24 1 0
BITMAP
07C0
0DE0
18E0
1840
3800
3800
3800
3800
F800
3800
3800
3800
3800
3800
3800
3800
3800
3800
3800
3800
3800
3800
7C00
FF00
ENDCHAR
STARTCHAR uni0180
ENCODING 384
SWIDTH 522 0
DWIDTH 17 0
BBX 16 24 0 0
BITMAP
0800
7800
F800
1800
1800
FFF0
1800
1800
18F0
19FC
1A3C
1C0E
180E
180E
1807
1807
1807
1806
180E
180E
180C
181C
1E38
0FE0
ENDCHAR
STARTCHAR uni0188
ENCODING 392
SWIDTH 446 0
DWIDTH 14 0
BBX 16 22 1 0
BITMAP
001E
0037
0023
0020
0060
0060
0FE0
1CE0
3070
6070
6030
E000
E000
E000
E000
E000
E000
F008
7010
7C70
3FE0
0F80
ENDCHAR
STARTCHAR uni0190
ENCODING 400
SWIDTH 518 0
DWIDTH 17 0
BBX 15 22 1 0
BITMAP
07F0
3C78
703C
701C
701C
7000
7000
7000
3800
1C00
07E0
1E00
3800
7000
7000
F000
E000
F002
7004
7C18
3FF0
0FC0
ENDCHAR
STARTCHAR uni0192
ENCODING 402
SWIDTH 301 0
DWIDTH 10 0
BBX 15 31 -3 -7
BITMAP
007C
00DE
018E
0184
0380
0380
0380
0380
0FF8
0380
0380
0380
0380
0380
0380
0380
0380
0380
0380
0380
0380
0380
0380
0380
0380
0380
0380
4300
E300
F700
7C00
ENDCHAR
STARTCHAR uni0195
ENCODING 405
SWIDTH 798 0
DWIDTH 26 0
BBX 23 24 1 0
BITMAP
080000
F80000
F80000
380000
380000
380000
380000
380000
38F018
3BF81C
3E3C1C
3C1C0E
381C06
381C06
381C06
381C02
381C02
381C02
381C06
381C04
380C04
380E08
7C0FF8
FE03E0
ENDCHAR
STARTCHAR uni0199
ENCODING 409
SWIDTH 538 0
DWIDTH 17 0
BBX 16 24 1 0
BITMAP
07E0
0CF0
1870
1820
3800
3800
3800
3800
38FE
3878
3870
38C0
3980
3B00
3E00
3F00
3B80
3BC0
39E0
38F0
3870
3838
7C3E
FE7F
ENDCHAR
STARTCHAR uni019A
ENCODING 410
SWIDTH 287 0
DWIDTH 9 0
BBX 7 24 1 0
BITMAP
08
78
F8
38
38
38
38
38
38
38
38
FE
38
38
38
38
38
38
38
38
38
38
3C
FE
ENDCHAR
STARTCHAR uni019B
ENCODING 411
SWIDTH 495 0
DWIDTH 16 0
BBX 16 23 0 0
BITMAP
3C00
7E10
7360
0380
0700
1D80
1080
00C0
00C0
01C0
01E0
03A0
0320
0730
0710
0E10
0E18
1C08
1C08
380C
380C
780E
FE1F
ENDCHAR
STARTCHAR uni019E
ENCODING 414
SWIDTH 559 0
DWIDTH 18 0
BBX 17 23 1 -7
BITMAP
38F000
FBF800
3E3C00
3C1C00
380C00
380C00
380C00
380C00
380C00
380C00
380C00
380C00
380C00
380C00
3C0C00
FE0C00
000C00
000C00
000C00
000C00
000C00
000F00
000F80
ENDCHAR
STARTCHAR Ohorn
ENCODING 416
SWIDTH 737 0
DWIDTH 24 0
BBX 21 27 2 0
BITMAP
000020
000078
000038
000038
000030
03FFE0
0F1F00
1C0780
3803C0
7001E0
7000E0
E000E0
E000F0
E000F0
E00070
E00070
E00070
E00070
E000F0
E000E0
F000E0
7000E0
7001C0
380180
1C0380
0F0E00
03F800
ENDCHAR
STARTCHAR ohorn
ENCODING 417
SWIDTH 516 0
DWIDTH 17 0
BBX 15 21 1 0
BITMAP
0006
000E
0006
0006
0006
0FFC
1CF0
3038
7018
601C
E01C
E01C
E01C
E01C
E01C
E01C
701C
7018
3838
1C70
0FC0
ENDCHAR
STARTCHAR uni01A5
ENCODING 421
SWIDTH 522 0
DWIDTH 17 0
BBX 16 31 0 -7
BITMAP
03E0
0CF0
0878
1830
1800
1800
1800
1800
18F0
19FC
1A3C
1C0E
180E
180E
1807
1807
1807
1806
180E
180E
180C
1C1C
1F38
1BE0
1800
1800
1800
1800
3800
3C00
FF00
ENDCHAR
STARTCHAR uni01AA
ENCODING 426
SWIDTH 298 0
DWIDTH 10 0
BBX 15 31 -2 -7
BITMAP
3C00
6600
8300
8300
8300
8380
C380
7F80
0380
0380
0380
0380
0380
0380
0380
0380
0380
0380
0380
0380
0380
0380
0380
0380
0380
0380
0380
0184
018E
01DE
007C
ENDCHAR
STARTCHAR uni01AB
ENCODING 427
SWIDTH 321 0
DWIDTH 10 0
BBX 9 28 1 -7
BITMAP
0800
1800
1800
3800
7800
FF00
3800
3800
3800
3800
3800
3800
3800
3800
3800
3800
3800
3800
3880
3F80
1E80
0080
0080
0080
0180
3180
3B00
1E00
ENDCHAR
STARTCHAR uni01AD
ENCODING 429
SWIDTH 315 0
DWIDTH 10 0
BBX 12 24 1 0
BITMAP
07E0
0CF0
1870
1820
3800
3800
3800
7800
FF00
3800
3800
3800
3800
3800
3800
3800
3800
3800
3800
3800
3800
3880
3F00
1E00
ENDCHAR
STARTCHAR Uhorn
ENCODING 431
SWIDTH 762 0
DWIDTH 24 0
BBX 25 28 1 0
BITMAP
00000380
00000380
00000380
00000180
00000180
00000100
FF81FE00
7E00F000
1C007000
1C003000
1C002000
1C002000
1C002000
1C002000
1C002000
1C002000
1C002000
1C002000
1C002000
1C002000
1C002000
1C006000
1C006000
1E006000
0E00C000
0F81C000
07FF8000
01FE0000
ENDCHAR
STARTCHAR uhorn
ENCODING 432
SWIDTH 574 0
DWIDTH 18 0
BBX 18 21 1 0
BITMAP
000180
0001C0
0001C0
000080
000180
783F00
F87C00
381C00
381C00
381C00
381C00
381C00
381C00
381C00
381C00
381C00
381C00
381C00
3C3C00
1FCF00
0F0E00
ENDCHAR
STARTCHAR uni01B5
ENCODING 437
SWIDTH 594 0
DWIDTH 19 0
BBX 17 22 1 0
BITMAP
7FFF80
780700
600F00
600E00
401E00
403C00
003800
007800
00F000
00E000
1FFE00
03C000
038000
078000
0F0000
0E0000
1E0080
3C0080
380180
780180
F00F00
FFFF00
ENDCHAR
STARTCHAR uni01BA
ENCODING 442
SWIDTH 430 0
DWIDTH 14 0
BBX 12 23 1 -7
BITMAP
FFE0
E1E0
81C0
8380
8700
0E00
1C00
1B00
3FC0
01E0
00E0
0070
0060
00E0
00E0
0380
1E00
6000
4000
C0C0
C1E0
63C0
3F00
ENDCHAR
STARTCHAR uni01BB
ENCODING 443
SWIDTH 508 0
DWIDTH 16 0
BBX 14 23 1 0
BITMAP
0F80
1FE0
30F0
6078
4038
8038
0038
0038
0038
0070
0060
7FFC
00C0
0180
0300
0600
0E00
0C04
1804
300C
7FF8
FFF8
FFF8
ENDCHAR
STARTCHAR uni01BE
ENCODING 446
SWIDTH 406 0
DWIDTH 13 0
BBX 11 21 1 0
BITMAP
0800
0800
1800
3800
7800
FF80
3800
3800
3800
0F00
03C0
01C0
00E0
00E0
00E0
80E0
80E0
C0E0
C0C0
F1C0
9F00
ENDCHAR
STARTCHAR uni01C0
ENCODING 448
SWIDTH 250 0
DWIDTH 8 0
BBX 2 24 3 0
BITMAP
C0
C0
C0
C0
C0
C0
C0
C0
C0
C0
C0
C0
C0
C0
C0
C0
C0
C0
C0
C0
C0
C0
C0
C0
ENDCHAR
STARTCHAR uni01C1
ENCODING 449
SWIDTH 423 0
DWIDTH 14 0
BBX 8 24 3 0
BITMAP
C7
C7
C7
C7
C7
C7
C7
C7
C7
C7
C7
C7
C7
C7
C7
C7
C7
C7
C7
C7
C7
C7
C7
C7
ENDCHAR
STARTCHAR uni01C2
ENCODING 450
SWIDTH 422 0
DWIDTH 14 0
BBX 11 24 1 0
BITMAP
0E00
0E00
0E00
0E00
0E00
0E00
0E00
0E00
FFE0
0E00
0E00
0E00
0E00
FFE0
0E00
0E00
0E00
0E00
0E00
0E00
0E00
0E00
0E00
0E00
ENDCHAR
STARTCHAR uni01C3
ENCODING 451
SWIDTH 245 0
DWIDTH 8 0
BBX 4 24 2 0
BITMAP
40
E0
F0
E0
E0
60
60
60
60
60
60
60
60
60
60
60
60
60
00
00
60
F0
F0
60
ENDCHAR
STARTCHAR uni01DE
ENCODING 478
SWIDTH 718 0
DWIDTH 23 0
BBX 23 29 0 0
BITMAP
01FF00
000000
018300
03C780
03C780
018300
000000
003000
003800
003800
007800
005C00
00DC00
00DE00
008E00
018F00
018700
030700
030780
070380
0603C0
07FFC0
0C01E0
0C01E0
1800E0
1800F0
3800F0
7800FC
FE03FE
ENDCHAR
STARTCHAR uni01DF
ENCODING 479
SWIDTH 480 0
DWIDTH 15 0
BBX 14 25 1 0
BITMAP
3FE0
0000
0000
3060
78F0
78F0
3060
0000
0000
0F80
31C0
70E0
70E0
7060
0060
0060
07E0
1C60
3060
6060
E060
E060
E0E4
737C
3C78
ENDCHAR
STARTCHAR uni01F0
ENCODING 496
SWIDTH 263 0
DWIDTH 8 0
BBX 12 29 -3 -7
BITMAP
1030
0860
0CC0
0780
0380
0000
0380
0F80
0380
0380
0380
0380
0380
0380
0380
0380
0380
0380
0380
0380
0380
0380
0380
0380
0380
4300
E300
F600
7C00
ENDCHAR
STARTCHAR Aringacute
ENCODING 506
SWIDTH 718 0
DWIDTH 23 0
BBX 23 33 0 0
BITMAP
001E00
003C00
007000
00E000
007800
00CC00
008600
008600
00C400
007C00
000000
003000
003800
003800
007800
005C00
00DC00
00DE00
008E00
018F00
018700
030700
030780
070380
0603C0
07FFC0
0C01E0
0C01E0
1800E0
1800F0
3800F0
7800FC
FE03FE
ENDCHAR
STARTCHAR aringacute
ENCODING 507
SWIDTH 480 0
DWIDTH 15 0
BBX 14 28 1 0
BITMAP
03C0
0780
0600
1C00
0F00
1980
18C0
18C0
1880
0F80
0000
0000
0F80
31C0
70E0
70E0
7060
0060
0060
07E0
1C60
3060
6060
E060
E060
E0E4
737C
3C78
ENDCHAR
STARTCHAR AEacute
ENCODING 508
SWIDTH 894 0
DWIDTH 29 0
BBX 29 27 -1 0
BITMAP
00001C00
00003800
00007000
0000C000
00000000
003FFFF0
000FFFF0
000F8030
000B8030
001B8010
00338000
00338000
00638080
00638080
00C38080
00C38180
01FFFF80
01838180
03038080
02038080
06038000
04038018
0C038010
18038010
18038030
7C0783F0
FE1FFFF0
ENDCHAR
STARTCHAR aeacute
ENCODING 509
SWIDTH 709 0
DWIDTH 23 0
BBX 21 22 1 0
BITMAP
003800
007000
006000
00C000
008000
000000
1F8F80
31D9E0
70F060
60E070
60E070
00E030
00FFF8
07E000
1CE000
70E000
60E000
E07008
E07010
F1FC30
7F3FE0
3C0F80
ENDCHAR
STARTCHAR Oslashacute
ENCODING 510
SWIDTH 737 0
DWIDTH 24 0
BBX 20 27 2 0
BITMAP
003800
007000
00C000
018000
000000
03F840
0F1F80
1C0780
3803C0
7003C0
7004E0
E00CE0
E018F0
E030F0
E02070
E06070
E0C070
E18070
E100F0
E200F0
F600E0
7C00E0
7801C0
3801C0
3C0380
6F0E00
C3F800
ENDCHAR
STARTCHAR oslashacute
ENCODING 511
SWIDTH 514 0
DWIDTH 16 0
BBX 14 22 1 0
BITMAP
01C0
0180
0300
0300
0600
0000
0FC8
1CF0
3038
7078
605C
E09C
E19C
E31C
E21C
E41C
E81C
781C
7018
3038
5C70
CFC0
ENDCHAR
STARTCHAR uni0218
ENCODING 536
SWIDTH 504 0
DWIDTH 16 0
BBX 14 31 1 -9
BITMAP
0FC8
38F8
7038
7018
6018
7008
7008
7800
3E00
3F00
0FC0
07F0
01F8
0078
003C
801C
C01C
C01C
C01C
E038
FC70
CFC0
0000
0700
0780
0780
0780
0180
0100
0300
0400
ENDCHAR
STARTCHAR uni0219
ENCODING 537
SWIDTH 394 0
DWIDTH 13 0
BBX 11 25 1 -9
BITMAP
1F40
71C0
60C0
E0C0
E040
F000
7C00
3F00
1F80
07C0
81E0
80E0
C0E0
C0C0
F1C0
9F00
0000
0E00
1E00
1E00
0E00
0200
0600
0C00
1000
ENDCHAR
STARTCHAR uni021A
ENCODING 538
SWIDTH 603 0
DWIDTH 19 0
BBX 19 31 0 -9
BITMAP
7FFFE0
70E1E0
40E060
40E060
40E020
C0E020
00E000
00E000
00E000
00E000
00E000
00E000
00E000
00E000
00E000
00E000
00E000
00E000
00E000
00E000
01F000
07FC00
000000
00E000
00F000
00F000
00F000
003000
002000
004000
008000
ENDCHAR
STARTCHAR uni021B
ENCODING 539
SWIDTH 315 0
DWIDTH 10 0
BBX 9 30 1 -9
BITMAP
0800
1800
1800
3800
7800
FF00
3800
3800
3800
3800
3800
3800
3800
3800
3800
3800
3800
3800
3880
3F00
1E00
0000
0C00
1E00
1E00
1E00
0600
0600
0C00
1000
ENDCHAR
STARTCHAR uni0221
ENCODING 545
SWIDTH 674 0
DWIDTH 22 0
BBX 21 29 1 -5
BITMAP
000800
007800
00F800
003800
001800
001800
001800
001800
07D800
1C7800
303800
703800
601800
E01800
E01800
E01800
E01800
E01800
E01870
E01898
703908
787A18
3FDE70
1F0FC0
000400
000800
001800
001000
001000
ENDCHAR
STARTCHAR uni0228
ENCODING 552
SWIDTH 626 0
DWIDTH 20 0
BBX 18 29 1 -7
BITMAP
FFFF80
1FFF80
1C0180
1C0080
1C0080
1C0080
1C0000
1C0600
1C0600
1C0600
1FFE00
1C0E00
1C0600
1C0600
1C0200
1C0000
1C0040
1C0040
1C00C0
1C01C0
1C1F80
FFFF80
008000
008000
00E000
003000
001000
023000
01E000
ENDCHAR
STARTCHAR uni0229
ENCODING 553
SWIDTH 464 0
DWIDTH 15 0
BBX 13 23 1 -7
BITMAP
0F80
18E0
3070
6070
6030
E038
FFF8
E000
E000
E000
E000
7008
7010
3C30
1FE0
0F80
0200
0400
0780
01C0
00C0
08C0
0F80
ENDCHAR
STARTCHAR uni0234
ENCODING 564
SWIDTH 399 0
DWIDTH 13 0
BBX 13 29 0 -5
BITMAP
0800
7800
F800
1800
1800
1800
1800
1800
1800
1800
1800
1800
1800
1800
1800
1800
1800
1800
1870
1898
1908
1A18
1E70
0FC0
0400
0800
1800
1000
1000
ENDCHAR
STARTCHAR uni0235
ENCODING 565
SWIDTH 702 0
DWIDTH 22 0
BBX 22 21 1 -5
BITMAP
F9F000
3A3800
3C1C00
381C00
381C00
381C00
381C00
381C00
381C00
381C00
381C38
381C48
381C84
380D08
3C0F38
FE07E0
000200
000400
000C00
000800
001800
ENDCHAR
STARTCHAR uni0236
ENCODING 566
SWIDTH 406 0
DWIDTH 13 0
BBX 12 26 1 -5
BITMAP
0800
1800
1800
3800
7800
FF80
3800
3800
3800
3800
3800
3800
3800
3800
3800
38E0
3990
3B10
3A10
3C60
0FC0
0800
1800
1000
3000
2000
ENDCHAR
STARTCHAR uni0237
ENCODING 567
SWIDTH 263 0
DWIDTH 8 0
BBX 9 23 -3 -7
BITMAP
0380
0F80
0380
0380
0380
0380
0380
0380
0380
0380
0380
0380
0380
0380
0380
0380
0380
0380
0380
4300
E300
F600
7C00
ENDCHAR
STARTCHAR uni0250
ENCODING 592
SWIDTH 475 0
DWIDTH 15 0
BBX 14 16 0 0
BITMAP
38F0
7B38
9C1C
1C1C
1C1C
1C1C
1C38
1CE0
1F80
1C00
1C00
1C18
1C18
1C38
0E30
07E0
ENDCHAR
STARTCHAR uni0251
ENCODING 593
SWIDTH 542 0
DWIDTH 17 0
BBX 15 16 1 0
BITMAP
07C8
1C78
3038
7038
6038
E038
E038
E038
E038
E038
E038
E038
7038
7878
3FDE
1F1C
ENDCHAR
STARTCHAR uni0252
ENCODING 594
SWIDTH 544 0
DWIDTH 17 0
BBX 15 16 1 0
BITMAP
79F0
FBF8
3C3C
381E
380E
380E
380E
380E
3806
380E
380E
380E
380C
3818
3E70
37E0
ENDCHAR
STARTCHAR uni0253
ENCODING 595
SWIDTH 518 0
DWIDTH 17 0
BBX 13 24 2 0
BITMAP
0F80
33C0
21C0
60C0
6000
6000
E000
E000
E3C0
EFF0
F8F0
F078
E038
E038
E038
E018
E018
E038
E038
E038
E030
E060
F8E0
3F80
ENDCHAR
STARTCHAR uni0254
ENCODING 596
SWIDTH 454 0
DWIDTH 15 0
BBX 12 16 1 0
BITMAP
1F80
3FC0
61E0
C0F0
8070
0070
0030
0030
0030
0030
0030
6030
E060
F060
79C0
3F00
ENDCHAR
STARTCHAR uni0255
ENCODING 597
SWIDTH 447 0
DWIDTH 14 0
BBX 12 20 1 -4
BITMAP
0FC0
1CE0
3070
6070
6030
E000
E000
E000
E000
E000
E1E0
E330
7610
7C10
3E70
0FC0
1000
1000
2000
2000
ENDCHAR
STARTCHAR uni0256
ENCODING 598
SWIDTH 528 0
DWIDTH 17 0
BBX 19 31 1 -7
BITMAP
001800
00F800
003800
003800
003800
003800
003800
003800
07F800
1C7800
303800
703800
603800
E03800
E03800
E03800
E03800
E03800
E03800
E03800
703800
787800
3FD800
1F1800
001800
001800
001800
001820
001860
000CE0
0007C0
ENDCHAR
STARTCHAR uni0257
ENCODING 599
SWIDTH 542 0
DWIDTH 17 0
BBX 20 24 1 0
BITMAP
0003E0
000CF0
000870
001860
001800
001800
001800
003800
07F800
1C7800
303800
703800
603800
E03800
E03800
E03800
E03800
E03800
E03800
E03800
703800
787800
3FDF00
1F1C00
ENDCHAR
STARTCHAR uni0258
ENCODING 600
SWIDTH 466 0
DWIDTH 15 0
BBX 13 16 1 0
BITMAP
0F80
38E0
3060
7030
6030
E038
FFF8
0038
0038
0038
0038
8070
C0F0
61E0
3FC0
1F80
ENDCHAR
STARTCHAR uni0259
ENCODING 601
SWIDTH 464 0
DWIDTH 15 0
BBX 13 16 1 0
BITMAP
1F80
3FC0
61E0
C0F0
8070
0038
0038
0038
0038
FFF8
E038
E030
7030
7060
38C0
0F80
ENDCHAR
STARTCHAR uni025A
ENCODING 602
SWIDTH 642 0
DWIDTH 21 0
BBX 19 16 1 0
BITMAP
1F0000
3FC000
71E100
40F320
807F20
003320
0039E0
003800
003800
FFF800
E03800
E03000
703000
706000
38C000
0F8000
ENDCHAR
STARTCHAR uni025B
ENCODING 603
SWIDTH 399 0
DWIDTH 13 0
BBX 11 16 1 0
BITMAP
1F80
71E0
60E0
E060
E000
6000
3000
0F00
3800
6000
E000
E000
E000
E020
78C0
1F80
ENDCHAR
STARTCHAR uni025C
ENCODING 604
SWIDTH 398 0
DWIDTH 13 0
BBX 12 16 0 0
BITMAP
1F80
79C0
70E0
6060
0060
00E0
01C0
0F00
01C0
00E0
0060
0070
0070
C0E0
71C0
1F80
ENDCHAR
STARTCHAR uni025D
ENCODING 605
SWIDTH 575 0
DWIDTH 18 0
BBX 18 16 0 0
BITMAP
1F8000
79C000
70E000
606600
007E40
00E640
01C780
0F0000
01C000
00E000
006000
007000
007000
C0E000
71C000
1F8000
ENDCHAR
STARTCHAR uni025E
ENCODING 606
SWIDTH 500 0
DWIDTH 16 0
BBX 14 16 1 0
BITMAP
07E0
1C78
3818
701C
601C
E018
E030
E3C0
E070
E018
E01C
601C
701C
303C
1C78
07E0
ENDCHAR
STARTCHAR uni025F
ENCODING 607
SWIDTH 272 0
DWIDTH 9 0
BBX 11 23 -3 -7
BITMAP
0780
0F80
0380
0380
0380
0380
0FE0
0380
0380
0380
0380
0380
0380
0380
0380
0380
0380
0380
0380
4300
E300
F600
7C00
ENDCHAR
STARTCHAR uni0260
ENCODING 608
SWIDTH 541 0
DWIDTH 17 0
BBX 20 31 1 -7
BITMAP
0003E0
000CF0
000870
001830
001800
001800
003800
003800
07F800
1C7800
303800
703800
603800
E03800
E03800
E03800
E03800
E03800
E03800
E03800
703800
787800
3FF800
1F3800
003800
003800
003800
603000
707000
7CE000
1F8000
ENDCHAR
STARTCHAR uni0261
ENCODING 609
SWIDTH 521 0
DWIDTH 17 0
BBX 13 23 1 -7
BITMAP
07C8
1C78
3038
7038
6038
E038
E038
E038
E038
E038
E038
E038
7038
7878
3FF8
1F38
0038
0038
0038
6030
7070
7CE0
1F80
ENDCHAR
STARTCHAR uni0262
ENCODING 610
SWIDTH 535 0
DWIDTH 17 0
BBX 15 16 1 0
BITMAP
07E4
1E3C
381C
700C
6004
E004
E000
E000
E07E
E03C
E01C
701C
701C
381C
1E3C
07E0
ENDCHAR
STARTCHAR uni0263
ENCODING 611
SWIDTH 479 0
DWIDTH 15 0
BBX 16 23 0 -7
BITMAP
FC3F
780E
380C
3808
3818
1C18
1C10
0E30
0E20
0E60
0760
0740
03C0
0380
0380
03C0
03C0
06E0
04E0
0460
0460
06E0
03C0
ENDCHAR
STARTCHAR uni0264
ENCODING 612
SWIDTH 466 0
DWIDTH 15 0
BBX 15 16 0 0
BITMAP
3C78
E7CC
E38E
C3CE
06C0
04E0
08E0
0860
1870
1870
1070
1070
1870
1860
0CE0
07C0
ENDCHAR
STARTCHAR uni0265
ENCODING 613
SWIDTH 553 0
DWIDTH 18 0
BBX 17 23 1 -7
BITMAP
781C00
F87C00
381C00
381C00
381C00
381C00
381C00
381C00
381C00
381C00
381C00
381C00
381C00
3C7C00
1FDC00
0F1C00
001C00
001C00
001C00
001C00
001C00
001F00
001F80
ENDCHAR
STARTCHAR uni0266
ENCODING 614
SWIDTH 577 0
DWIDTH 18 0
BBX 17 24 1 0
BITMAP
03E000
0CF000
187000
183000
380000
380000
380000
380000
38F000
3BF800
3E3C00
3C1C00
380C00
380C00
380C00
380C00
380C00
380C00
380C00
380C00
380C00
380E00
7C1E00
FE7F80
ENDCHAR
STARTCHAR uni0267
ENCODING 615
SWIDTH 562 0
DWIDTH 18 0
BBX 14 31 1 -7
BITMAP
03E0
0CF0
1870
1830
3800
3800
3800
3800
38F0
3BF8
3E3C
3C1C
380C
380C
380C
380C
380C
380C
380C
380C
380C
380C
7C0C
FE0C
000C
000C
000C
020C
0398
03F8
01F0
ENDCHAR
STARTCHAR uni0268
ENCODING 616
SWIDTH 295 0
DWIDTH 9 0
BBX 7 23 1 0
BITMAP
18
3C
3C
18
00
00
00
38
F8
38
38
38
38
38
FE
38
38
38
38
38
38
3C
FE
ENDCHAR
STARTCHAR uni0269
ENCODING 617
SWIDTH 286 0
DWIDTH 9 0
BBX 9 16 1 0
BITMAP
3800
F800
3800
3800
3800
3800
3800
3800
3800
3800
3800
3800
3800
3880
3F00
1E00
ENDCHAR
STARTCHAR uni026A
ENCODING 618
SWIDTH 287 0
DWIDTH 9 0
BBX 7 16 1 0
BITMAP
FE
3C
38
38
38
38
38
38
38
38
38
38
38
38
3C
FE
ENDCHAR
STARTCHAR uni026B
ENCODING 619
SWIDTH 290 0
DWIDTH 9 0
BBX 9 24 0 0
BITMAP
0400
3C00
7C00
1C00
1C00
1C00
1C00
1C00
1C00
1C00
1C80
7C80
9F80
9C00
1C00
1C00
1C00
1C00
1C00
1C00
1C00
1C00
1E00
7F00
ENDCHAR
STARTCHAR uni026C
ENCODING 620
SWIDTH 318 0
DWIDTH 10 0
BBX 11 24 0 0
BITMAP
0200
3E00
3E00
0E00
0E00
0E00
0E00
0E00
3E00
EE00
CE00
CE00
CE60
CEC0
7F80
3E00
0E00
0E00
0E00
0E00
0E00
0E00
0F00
3F80
ENDCHAR
STARTCHAR uni026D
ENCODING 621
SWIDTH 248 0
DWIDTH 8 0
BBX 11 31 0 -7
BITMAP
1800
F800
3800
1800
1800
1800
1800
1800
1800
1800
1800
1800
1800
1800
1800
1800
1800
1800
1800
1800
1800
1800
1800
1800
1800
1800
1800
1860
1CE0
0FE0
07C0
ENDCHAR
STARTCHAR uni026E
ENCODING 622
SWIDTH 590 0
DWIDTH 19 0
BBX 17 31 1 -7
BITMAP
380000
F80000
380000
380000
380000
380000
380000
380000
3FFF80
380700
380700
380E00
381C00
381C00
383800
387000
387000
38E000
38F800
381E00
380700
380380
3C0380
FE0380
000380
000380
000380
060380
0F0700
079E00
03F000
ENDCHAR
STARTCHAR uni026F
ENCODING 623
SWIDTH 846 0
DWIDTH 27 0
BBX 25 16 1 0
BITMAP
381C0E00
F87C3E00
381C0E00
381C0E00
381C0E00
381C0E00
381C0E00
381C0E00
381C0E00
381C0E00
381C0E00
381C0E00
381C0E00
383C1E00
1CCE2E00
0F07CF80
ENDCHAR
STARTCHAR uni0270
ENCODING 624
SWIDTH 826 0
DWIDTH 26 0
BBX 25 23 1 -7
BITMAP
781C0E00
F87C3E00
381C0E00
381C0E00
381C0E00
381C0E00
381C0E00
381C0E00
381C0E00
381C0E00
381C0E00
381C0E00
383C1E00
3C7E3E00
1FCFEE00
0F078E00
00000E00
00000E00
00000E00
00000E00
00000E00
00000F00
00000F80
ENDCHAR
STARTCHAR uni0271
ENCODING 625
SWIDTH 835 0
DWIDTH 27 0
BBX 23 23 1 -7
BITMAP
38F078
F9F9FC
3E3F1E
3C1E0E
381C0E
381C06
381C06
381C06
381C06
381C06
381C06
381C06
381C06
381C06
3C1E06
FE7F86
000006
000006
00000E
00010E
00038C
0003FC
0001F0
ENDCHAR
STARTCHAR uni0272
ENCODING 626
SWIDTH 574 0
DWIDTH 18 0
BBX 21 23 -3 -7
BITMAP
0F8F00
03B380
03C1C0
0381C0
0380C0
0380C0
0380C0
0380C0
0380C0
0380C0
0380C0
0380C0
0380C0
0380C0
0381E0
0387F8
038000
038000
038000
430000
E30000
F60000
7C0000
ENDCHAR
STARTCHAR uni0273
ENCODING 627
SWIDTH 563 0
DWIDTH 18 0
BBX 20 23 1 -7
BITMAP
38F000
FBF800
3E3C00
3C1C00
380C00
380C00
380C00
380C00
380C00
380C00
380C00
380C00
380C00
380C00
3C0C00
FE0C00
000C00
000C00
000C00
000C10
000630
0007F0
0003E0
ENDCHAR
STARTCHAR uni0274
ENCODING 628
SWIDTH 568 0
DWIDTH 18 0
BBX 17 16 1 0
BITMAP
F81F80
780E00
3C0600
3E0400
2F0400
270400
238400
23C400
21E400
20F400
207400
203C00
203C00
201C00
700C00
FC0400
ENDCHAR
STARTCHAR uni0275
ENCODING 629
SWIDTH 514 0
DWIDTH 16 0
BBX 14 16 1 0
BITMAP
0FC0
1CF0
3038
7018
601C
E01C
E01C
FFFC
E01C
E01C
E01C
701C
7018
3838
1C70
0FC0
ENDCHAR
STARTCHAR uni0276
ENCODING 630
SWIDTH 732 0
DWIDTH 23 0
BBX 21 16 1 0
BITMAP
07FFF0
1C7830
383818
703808
703800
E03820
E03860
E03FE0
E03860
E03820
E03820
703808
703808
383808
1C7838
07FFF8
ENDCHAR
STARTCHAR uni0277
ENCODING 631
SWIDTH 672 0
DWIDTH 22 0
BBX 19 16 1 0
BITMAP
03F800
0F0E00
1C0380
3001C0
7000C0
6000E0
E0E0E0
E0F0E0
E0E0E0
E0E0E0
E0E0E0
E060E0
7060E0
70E1C0
399380
1F0F00
ENDCHAR
STARTCHAR uni0278
ENCODING 632
SWIDTH 658 0
DWIDTH 21 0
BBX 19 31 1 -7
BITMAP
002000
03E000
03E000
00E000
00E000
00E000
00E000
00E000
07FC00
1EEF00
38E380
70E1C0
70E1C0
E0E0E0
E0E0E0
E0E0E0
E0E0E0
E0E0E0
E0E0E0
70E0C0
70E1C0
38E380
1CE700
07FC00
00E000
00E000
00E000
00E000
00E000
00E000
03F800
ENDCHAR
STARTCHAR uni0279
ENCODING 633
SWIDTH 380 0
DWIDTH 12 0
BBX 11 16 0 0
BITMAP
1FE0
07C0
0380
0380
0380
0380
0380
0380
0380
0380
0380
0380
6780
FB80
FBE0
7380
ENDCHAR
STARTCHAR uni027A
ENCODING 634
SWIDTH 374 0
DWIDTH 12 0
BBX 11 24 0 0
BITMAP
0080
0780
0F80
0380
0380
0380
0380
0380
0380
0380
0380
0380
0380
0380
0380
0380
0380
0380
0380
0380
6780
FB80
FBE0
7380
ENDCHAR
STARTCHAR uni027B
ENCODING 635
SWIDTH 375 0
DWIDTH 12 0
BBX 15 23 0 -7
BITMAP
1FE0
07C0
0380
0380
0380
0380
0380
0380
0380
0380
0380
0380
6780
FB80
FB80
7380
0380
0380
0180
0184
018E
00DE
007C
ENDCHAR
STARTCHAR uni027C
ENCODING 636
SWIDTH 378 0
DWIDTH 12 0
BBX 11 23 1 -7
BITMAP
19C0
F9E0
3BE0
3CC0
3C00
3800
3800
3800
3800
3800
3800
3800
3800
3800
3800
3800
3800
3800
3800
3800
3800
3C00
FF00
ENDCHAR
STARTCHAR uni027D
ENCODING 637
SWIDTH 373 0
DWIDTH 12 0
BBX 11 23 1 -7
BITMAP
39C0
FBE0
3CC0
3800
3800
3800
3800
3800
3800
3800
3800
3800
3800
3800
3800
3800
3800
3800
3800
1840
18E0
0DE0
07C0
ENDCHAR
STARTCHAR uni027E
ENCODING 638
SWIDTH 371 0
DWIDTH 12 0
BBX 11 16 1 0
BITMAP
07C0
0DE0
18E0
1800
3800
3800
3800
3800
3800
3800
3800
3800
3800
3800
7C00
FF00
ENDCHAR
STARTCHAR uni027F
ENCODING 639
SWIDTH 371 0
DWIDTH 12 0
BBX 11 16 0 0
BITMAP
7C00
F600
E300
0300
0380
0380
0380
0380
0380
0380
0380
0380
0380
0380
07C0
1FE0
ENDCHAR
STARTCHAR uni0280
ENCODING 640
SWIDTH 494 0
DWIDTH 16 0
BBX 15 16 1 0
BITMAP
FFC0
38F0
3870
3830
3838
3830
3870
38E0
3F80
3B80
39C0
38E0
3870
3878
383C
FE1E
ENDCHAR
STARTCHAR uni0281
ENCODING 641
SWIDTH 494 0
DWIDTH 16 0
BBX 15 16 1 0
BITMAP
FE1E
383C
3878
3870
38E0
39C0
3B80
3F80
38E0
3870
3830
3838
3830
3870
38F0
FFC0
ENDCHAR
STARTCHAR uni0282
ENCODING 642
SWIDTH 395 0
DWIDTH 13 0
BBX 11 23 1 -7
BITMAP
1F40
71C0
60C0
E0C0
E040
F000
7C00
3F00
1F80
07C0
81E0
80E0
C0E0
C0C0
F1C0
DF00
C000
C000
C000
4000
4600
6E00
3C00
ENDCHAR
STARTCHAR uni0283
ENCODING 643
SWIDTH 253 0
DWIDTH 8 0
BBX 15 31 -3 -7
BITMAP
0078
019C
018E
0304
0300
0300
0300
0300
0300
0300
0300
0300
0300
0300
0300
0300
0300
0300
0300
0300
0300
0300
0300
0300
0300
0300
0300
8300
C300
E600
7C00
ENDCHAR
STARTCHAR uni0284
ENCODING 644
SWIDTH 286 0
DWIDTH 9 0
BBX 15 30 -3 -7
BITMAP
007C
00DE
018E
0180
0180
0380
0380
0380
0380
0380
0380
0380
0380
0380
0380
0380
0380
0380
0380
0380
0380
0380
0FE0
0380
0380
0380
0300
6300
F600
7C00
ENDCHAR
STARTCHAR uni0285
ENCODING 645
SWIDTH 361 0
DWIDTH 12 0
BBX 15 23 0 -7
BITMAP
7C00
F600
E300
4300
0380
0380
0380
0380
0380
0380
0380
0380
0380
0380
0380
0380
0380
0380
0380
0184
018E
00DE
007C
ENDCHAR
STARTCHAR uni0286
ENCODING 646
SWIDTH 253 0
DWIDTH 8 0
BBX 15 31 -3 -7
BITMAP
0078
019C
018E
0304
0300
0300
0300
0300
0300
0300
0300
0300
0300
0300
0300
0300
0300
0300
0300
0300
0300
0300
0300
0300
3F00
6380
C360
C320
C700
6600
3C00
ENDCHAR
STARTCHAR uni0287
ENCODING 647
SWIDTH 315 0
DWIDTH 10 0
BBX 9 20 0 -4
BITMAP
3C00
7E00
CE00
0E00
0E00
0E00
0E00
0E00
0E00
0E00
0E00
0E00
0E00
0E00
0E00
7F80
0F00
0E00
0C00
0C00
ENDCHAR
STARTCHAR uni0288
ENCODING 648
SWIDTH 309 0
DWIDTH 10 0
BBX 11 28 1 -7
BITMAP
0800
1800
1800
3800
7800
FF00
3800
3800
3800
3800
3800
3800
3800
3800
3800
3800
3800
3800
3800
3800
3800
3800
3800
3800
1840
18E0
0DE0
07C0
ENDCHAR
STARTCHAR uni0289
ENCODING 649
SWIDTH 580 0
DWIDTH 19 0
BBX 16 16 1 0
BITMAP
F87C
783C
381C
380C
380C
380C
FFFF
380C
380C
380C
380C
380C
381C
1C2C
1FCF
0F8E
ENDCHAR
STARTCHAR uni028A
ENCODING 650
SWIDTH 548 0
DWIDTH 18 0
BBX 15 16 1 0
BITMAP
7C7E
1838
1810
1018
300C
700C
700E
600E
E00E
E00E
E00E
700E
700C
381C
1C78
07E0
ENDCHAR
STARTCHAR uni028B
ENCODING 651
SWIDTH 530 0
DWIDTH 17 0
BBX 14 16 1 0
BITMAP
F838
F838
381C
381C
380C
3804
3804
3804
3804
3804
3804
380C
3808
3C18
1FF0
07C0
ENDCHAR
STARTCHAR uni028C
ENCODING 652
SWIDTH 495 0
DWIDTH 16 0
BBX 16 16 0 0
BITMAP
0180
0180
03C0
03C0
06C0
04E0
04E0
0C70
0870
1870
1838
3038
301C
201C
F01E
F87F
ENDCHAR
STARTCHAR uni028D
ENCODING 653
SWIDTH 764 0
DWIDTH 24 0
BBX 25 16 0 0
BITMAP
01808000
0381C000
0381C000
03C3E000
07C2E000
04C2E000
0CE67000
0CE47000
087C3800
18783800
18383800
10381C00
30381C00
30180E00
703C1F00
F87F3F80
ENDCHAR
STARTCHAR uni028E
ENCODING 654
SWIDTH 492 0
DWIDTH 16 0
BBX 16 23 0 0
BITMAP
001E
003E
006E
0040
00C0
0080
0180
0180
0380
0380
03C0
07C0
05C0
04E0
0CE0
0870
1870
1838
1038
301C
301C
701E
F87F
ENDCHAR
STARTCHAR uni028F
ENCODING 655
SWIDTH 454 0
DWIDTH 15 0
BBX 15 16 0 0
BITMAP
FC3E
781C
3818
3810
1C30
0C20
0E40
0740
0780
0380
0380
0380
0380
0380
0380
0FE0
ENDCHAR
STARTCHAR uni0290
ENCODING 656
SWIDTH 458 0
DWIDTH 15 0
BBX 18 23 1 -7
BITMAP
7FF000
607000
40E000
40E000
C1C000
038000
038000
070000
0F0000
0E0000
1C0000
3C1800
381000
701000
F07000
FFF000
001000
001000
001000
001000
0019C0
0009C0
000780
ENDCHAR
STARTCHAR uni0291
ENCODING 657
SWIDTH 458 0
DWIDTH 15 0
BBX 13 21 1 -5
BITMAP
7FF0
6070
40E0
40E0
41C0
8380
0380
0700
0F00
0E00
1C00
3C78
38C8
7108
F218
FFF0
0400
0C00
0800
1800
1000
ENDCHAR
STARTCHAR uni0292
ENCODING 658
SWIDTH 443 0
DWIDTH 14 0
BBX 13 23 1 -7
BITMAP
FFF0
E070
C0E0
81C0
83C0
0380
0700
0F00
0E00
1C00
0F80
01E0
0070
0070
0038
0038
0038
0038
4070
E070
E0E0
F3C0
7F00
ENDCHAR
STARTCHAR uni0293
ENCODING 659
SWIDTH 443 0
DWIDTH 14 0
BBX 13 28 1 -12
BITMAP
FFF0
E070
C0E0
81C0
81C0
0380
0700
0700
0E00
1C00
1F80
01C0
00E0
0070
0070
0038
0038
7030
C870
8470
C6E0
63C0
1F80
0180
0080
00C0
0040
0060
ENDCHAR
STARTCHAR uni0294
ENCODING 660
SWIDTH 383 0
DWIDTH 12 0
BBX 11 24 1 0
BITMAP
1F00
71C0
E0C0
E0E0
E0E0
00E0
00E0
00E0
00E0
00E0
01C0
0380
0700
3800
3800
3800
3800
3800
3800
3800
3800
3800
7C00
FF00
ENDCHAR
STARTCHAR uni0295
ENCODING 661
SWIDTH 383 0
DWIDTH 12 0
BBX 11 24 0 0
BITMAP
0F80
38E0
70E0
6060
E060
E000
E000
E000
E000
6000
7000
3800
1C00
0380
0380
0380
0380
0380
0380
0380
0380
0380
03C0
0FE0
ENDCHAR
STARTCHAR uni0296
ENCODING 662
SWIDTH 408 0
DWIDTH 13 0
BBX 11 24 1 0
BITMAP
0800
7800
F800
3800
1800
1800
1800
1800
1800
1800
1800
1E00
0380
01C0
01C0
00E0
00E0
00E0
00E0
C0E0
E0E0
E0C0
61C0
3F00
ENDCHAR
STARTCHAR uni0297
ENCODING 663
SWIDTH 437 0
DWIDTH 14 0
BBX 13 22 1 -6
BITMAP
07C0
1CE0
3070
3070
6030
6000
6000
E000
E000
E000
E000
E000
E000
E000
E000
E000
6000
7008
3810
3C60
1FE0
0F80
ENDCHAR
STARTCHAR uni0298
ENCODING 664
SWIDTH 736 0
DWIDTH 24 0
BBX 22 23 1 0
BITMAP
01FC00
078F00
0E01C0
1C00E0
380070
700070
700038
600038
E00038
E07038
E07818
E0781C
E0703C
E00038
E00038
600038
700038
700070
380070
1C00E0
0E01C0
078F00
01FC00
ENDCHAR
STARTCHAR uni0299
ENCODING 665
SWIDTH 485 0
DWIDTH 16 0
BBX 13 16 1 0
BITMAP
FFC0
38F0
3870
3838
3838
3870
3860
3F80
38F0
3838
3838
3838
3838
3838
3870
FFE0
ENDCHAR
STARTCHAR uni029A
ENCODING 666
SWIDTH 500 0
DWIDTH 16 0
BBX 14 16 1 0
BITMAP
1F80
78E0
6070
E038
E018
601C
301C
0F1C
381C
601C
E01C
E018
E038
F030
78E0
1F80
ENDCHAR
STARTCHAR uni029B
ENCODING 667
SWIDTH 536 0
DWIDTH 17 0
BBX 19 22 1 0
BITMAP
0003C0
0006E0
000460
000400
000400
000C00
07EC00
1E3C00
380C00
700C00
700400
E00000
E00000
E00000
E07F00
E01C00
E01C00
701C00
701C00
381C00
1E3C00
07E000
ENDCHAR
STARTCHAR uni029C
ENCODING 668
SWIDTH 599 0
DWIDTH 19 0
BBX 17 16 1 0
BITMAP
FE3F80
3C0F00
380E00
380E00
380E00
380E00
380E00
3FFE00
380E00
380E00
380E00
380E00
380E00
380E00
3C0F00
FE3F80
ENDCHAR
STARTCHAR uni029D
ENCODING 669
SWIDTH 263 0
DWIDTH 8 0
BBX 11 29 -2 -7
BITMAP
0700
0700
0700
0700
0000
0000
0700
1F00
0700
0700
0700
0700
0700
0700
0700
0700
0700
0700
0700
0700
0700
0700
3F00
E780
87C0
8660
8600
CC00
7800
ENDCHAR
STARTCHAR uni029E
ENCODING 670
SWIDTH 542 0
DWIDTH 17 0
BBX 17 23 0 -7
BITMAP
FE7F00
3C3E00
1C1C00
0E1C00
071C00
039C00
03DC00
01FC00
00FC00
007C00
00DC00
019C00
031C00
061C00
1E1C00
7F1C00
001C00
001C00
001C00
001C00
001C00
001F00
001F80
ENDCHAR
STARTCHAR uni029F
ENCODING 671
SWIDTH 440 0
DWIDTH 14 0
BBX 13 16 1 0
BITMAP
FE00
7C00
3800
3800
3800
3800
3800
3800
3800
3800
3800
3808
3810
3810
3830
FFF0
ENDCHAR
STARTCHAR uni02A0
ENCODING 672
SWIDTH 541 0
DWIDTH 17 0
BBX 20 31 1 -7
BITMAP
0003E0
000CF0
000870
001830
001800
001800
003800
003800
07F800
1C7800
303800
703800
603800
E03800
E03800
E03800
E03800
E03800
E03800
E03800
703800
787800
3FF800
1F3800
003800
003800
003800
003800
003800
007C00
01FE00
ENDCHAR
STARTCHAR uni02A1
ENCODING 673
SWIDTH 393 0
DWIDTH 13 0
BBX 11 24 1 0
BITMAP
1F00
71C0
E0C0
E0E0
E0E0
40E0
00E0
00E0
00E0
00E0
01C0
01C0
0300
1E00
3800
3800
3800
FF80
3800
3800
3800
3800
3C00
FF00
ENDCHAR
STARTCHAR uni02A2
ENCODING 674
SWIDTH 393 0
DWIDTH 13 0
BBX 12 24 0 0
BITMAP
0F80
38E0
7060
6070
E070
E020
E000
E000
E000
7000
7000
3800
1C00
0700
0180
0180
0180
1FF0
0180
0180
0180
0380
03C0
0FF0
ENDCHAR
STARTCHAR uni02A3
ENCODING 675
SWIDTH 830 0
DWIDTH 27 0
BBX 25 24 1 0
BITMAP
00080000
00780000
00F80000
00380000
00180000
00180000
00180000
00180000
07DFFF00
1C780700
30380F00
70181E00
60181C00
E0183C00
E0183800
E0187000
E018F000
E018E000
E019C080
E01B8100
701B8100
787F0300
3FDE0F00
1F1FFF00
ENDCHAR
STARTCHAR uni02A4
ENCODING 676
SWIDTH 838 0
DWIDTH 27 0
BBX 25 31 1 -7
BITMAP
00180000
00F80000
00380000
00380000
00180000
00180000
00180000
00180000
07DFFF80
1C780780
30380F00
70380E00
60181E00
E0181C00
E0183800
E0187800
E0187000
E018E000
E018F800
E0181E00
70180700
78780780
3FDE0380
1F1C0380
00000380
00000380
00000380
00060300
000E0700
00070C00
0003F000
ENDCHAR
STARTCHAR uni02A5
ENCODING 677
SWIDTH 829 0
DWIDTH 27 0
BBX 25 29 1 -5
BITMAP
00080000
00780000
00F80000
00380000
00180000
00180000
00180000
00180000
07DFFF00
1C780700
30380F00
70181E00
60181C00
E0183C00
E0187800
E0187000
E018F000
E018E000
E019C700
E01BCD80
703B9080
787F3080
3FDF2380
1F1FFE00
00004000
00008000
00008000
00010000
00010000
ENDCHAR
STARTCHAR uni02A6
ENCODING 678
SWIDTH 614 0
DWIDTH 20 0
BBX 18 21 1 0
BITMAP
080000
180000
180000
380000
380000
7FFE80
B8E380
39C180
39C180
39C080
38E000
38F800
387E00
381F00
380780
3803C0
3801C0
3801C0
3C0380
1F0F00
07FC00
ENDCHAR
STARTCHAR uni02A7
ENCODING 679
SWIDTH 513 0
DWIDTH 16 0
BBX 19 31 1 -7
BITMAP
0007C0
0009E0
0018E0
081840
183800
183800
383800
783800
FFF800
383800
383800
383800
383800
383800
383800
383800
383800
383800
383800
383800
383800
38B800
3F3800
1E3800
003800
003800
003000
043000
0E3000
0F6000
07C000
ENDCHAR
STARTCHAR uni02A8
ENCODING 680
SWIDTH 687 0
DWIDTH 22 0
BBX 20 21 1 0
BITMAP
080000
180000
180000
380000
380000
FF0FC0
3839E0
3830F0
386070
38E020
38C000
38C000
38C000
38C000
38E000
38E1E0
38E730
387810
387830
3CFE60
1F0FC0
ENDCHAR
STARTCHAR uni02A9
ENCODING 681
SWIDTH 866 0
DWIDTH 28 0
BBX 24 31 1 -7
BITMAP
07C000
0DE000
18E000
186000
180000
380000
380000
380000
FFFE3C
381EFE
380F8F
380F07
380E07
380E03
380E03
380E03
380E03
380E03
380E03
380E03
380E03
380E03
7C1E03
FF3F83
000003
000003
000007
000087
0001C6
0001FE
0000F8
ENDCHAR
STARTCHAR uni02AA
ENCODING 682
SWIDTH 595 0
DWIDTH 19 0
BBX 18 24 0 0
BITMAP
080000
780000
F80000
180000
180000
180000
180000
180000
183E80
186380
18C180
18C080
18C080
18F000
18F800
187E00
181F80
1807C0
1801C0
1801C0
1801C0
1C01C0
0E0780
03FC00
ENDCHAR
STARTCHAR uni02AB
ENCODING 683
SWIDTH 580 0
DWIDTH 19 0
BBX 16 24 1 0
BITMAP
0800
F800
F800
3800
3800
3800
3800
3800
3FFF
3807
380E
381E
381C
3838
3838
3870
38E0
38E0
39C0
39C1
3B81
3F03
3F0F
FFFF
ENDCHAR
STARTCHAR uni02AC
ENCODING 684
SWIDTH 599 0
DWIDTH 19 0
BBX 19 24 0 0
BITMAP
F9F1E0
70E0C0
306080
386080
187100
1CB100
0CB900
0C9A00
0F1A00
071E00
070C00
020C00
000000
F9F1E0
70E0C0
306080
386080
187100
1CB100
0CBB00
0E9A00
071A00
070C00
060C00
ENDCHAR
STARTCHAR uni02AD
ENCODING 685
SWIDTH 479 0
DWIDTH 15 0
BBX 11 22 2 0
BITMAP
FFE0
FFE0
C060
C060
C060
C060
C060
C060
C060
C060
0000
0000
FFE0
FFE0
C060
C060
C060
C060
C060
C060
C060
C060
ENDCHAR
STARTCHAR uni02AE
ENCODING 686
SWIDTH 595 0
DWIDTH 19 0
BBX 20 23 -1 -7
BITMAP
780180
E60780
C60180
070180
070180
070180
070180
070180
070180
070180
070180
030180
038380
038780
03F980
00F180
000180
000180
000180
000180
0001C0
0001E0
0001F0
ENDCHAR
STARTCHAR uni02AF
ENCODING 687
SWIDTH 600 0
DWIDTH 19 0
BBX 24 23 -1 -7
BITMAP
780180
E60780
C60180
070180
070180
070180
070180
070180
070180
070180
070180
030180
038380
038780
03F980
00F180
000180
000180
0001C0
0001C2
0000C7
0000FE
00003C
ENDCHAR
STARTCHAR uni02B0
ENCODING 688
SWIDTH 488 0
DWIDTH 16 0
BBX 14 18 1 8
BITMAP
F000
7000
3000
3000
3000
33C0
37E0
3870
3070
3030
3030
3030
3030
3030
3030
3030
7070
FCFC
ENDCHAR
STARTCHAR uni02B1
ENCODING 689
SWIDTH 488 0
DWIDTH 16 0
BBX 14 19 1 8
BITMAP
07C0
19C0
30C0
3000
3000
3000
33C0
37E0
3870
3070
3030
3030
3030
3030
3030
3030
3030
7070
FCFC
ENDCHAR
STARTCHAR uni02B2
ENCODING 690
SWIDTH 222 0
DWIDTH 7 0
BBX 7 23 -2 3
BITMAP
06
0E
06
00
00
1E
0E
06
06
06
06
06
06
06
06
06
06
06
06
06
C6
EC
F8
ENDCHAR
STARTCHAR uni02B3
ENCODING 691
SWIDTH 325 0
DWIDTH 10 0
BBX 9 13 1 8
BITMAP
F380
7780
3980
3000
3000
3000
3000
3000
3000
3000
3000
7000
FC00
ENDCHAR
STARTCHAR uni02B4
ENCODING 692
SWIDTH 325 0
DWIDTH 10 0
BBX 9 13 1 8
BITMAP
1F80
0E00
0600
0600
0600
0600
0600
0600
0600
0E00
CE00
F700
E780
ENDCHAR
STARTCHAR uni02B5
ENCODING 693
SWIDTH 325 0
DWIDTH 10 0
BBX 12 17 1 4
BITMAP
1F80
0E00
0600
0600
0600
0600
0600
0600
0600
0E00
CE00
F600
E600
0600
0600
0230
01E0
ENDCHAR
STARTCHAR uni02B6
ENCODING 694
SWIDTH 443 0
DWIDTH 14 0
BBX 13 13 1 8
BITMAP
FC78
30E0
30C0
31C0
3380
3300
3F00
31C0
30E0
30E0
30E0
30C0
FF80
ENDCHAR
STARTCHAR uni02B7
ENCODING 695
SWIDTH 653 0
DWIDTH 21 0
BBX 21 13 0 8
BITMAP
FCF8F8
707030
303020
383060
183840
1C58C0
1C5880
0CDC80
0E8D80
068D00
070F00
070700
030600
ENDCHAR
STARTCHAR uni02B8
ENCODING 696
SWIDTH 427 0
DWIDTH 14 0
BBX 14 18 0 3
BITMAP
FC7C
7030
3830
3820
1820
1C60
0C40
0E40
0680
0680
0380
0300
0300
0200
0600
6400
7C00
7800
ENDCHAR
STARTCHAR uni02B9
ENCODING 697
SWIDTH 296 0
DWIDTH 9 0
BBX 5 10 2 13
BITMAP
18
38
38
38
30
70
60
40
C0
80
ENDCHAR
STARTCHAR uni02BA
ENCODING 698
SWIDTH 456 0
DWIDTH 15 0
BBX 10 10 2 13
BITMAP
18C0
38C0
39C0
39C0
3180
7380
6300
4300
C200
8600
ENDCHAR
STARTCHAR uni02BB
ENCODING 699
SWIDTH 245 0
DWIDTH 8 0
BBX 4 8 2 15
BITMAP
30
40
C0
C0
F0
F0
F0
70
ENDCHAR
STARTCHAR uni02BC
ENCODING 700
SWIDTH 244 0
DWIDTH 8 0
BBX 4 9 2 15
BITMAP
E0
F0
F0
F0
30
20
60
C0
80
ENDCHAR
STARTCHAR uni02BD
ENCODING 701
SWIDTH 244 0
DWIDTH 8 0
BBX 4 9 2 15
BITMAP
70
F0
F0
F0
C0
C0
40
30
10
ENDCHAR
STARTCHAR uni02BE
ENCODING 702
SWIDTH 203 0
DWIDTH 7 0
BBX 5 7 1 17
BITMAP
E0
30
18
18
18
30
E0
ENDCHAR
STARTCHAR uni02BF
ENCODING 703
SWIDTH 203 0
DWIDTH 7 0
BBX 5 7 1 17
BITMAP
78
C0
C0
C0
C0
C0
78
ENDCHAR
STARTCHAR uni02C0
ENCODING 704
SWIDTH 364 0
DWIDTH 12 0
BBX 10 12 1 12
BITMAP
3E00
7300
E180
6180
01C0
01C0
0180
0380
0700
1C00
1800
1800
ENDCHAR
STARTCHAR uni02C1
ENCODING 705
SWIDTH 364 0
DWIDTH 12 0
BBX 9 12 1 12
BITMAP
1F00
7380
6180
E180
E000
E000
E000
6000
3800
0E00
0600
0600
ENDCHAR
STARTCHAR uni02C2
ENCODING 706
SWIDTH 324 0
DWIDTH 10 0
BBX 8 11 1 14
BITMAP
01
01
07
1C
38
E0
70
38
0E
03
01
ENDCHAR
STARTCHAR uni02C3
ENCODING 707
SWIDTH 324 0
DWIDTH 10 0
BBX 8 11 1 14
BITMAP
80
C0
F0
38
0E
07
07
1C
70
E0
80
ENDCHAR
STARTCHAR uni02C4
ENCODING 708
SWIDTH 324 0
DWIDTH 10 0
BBX 11 9 0 16
BITMAP
0400
0C00
0E00
1E00
3300
3180
6180
60C0
C0E0
ENDCHAR
STARTCHAR uni02C5
ENCODING 709
SWIDTH 324 0
DWIDTH 10 0
BBX 11 9 0 16
BITMAP
C060
C0C0
6180
3180
3300
1B00
1E00
0E00
0C00
ENDCHAR
STARTCHAR circumflex
ENCODING 710
SWIDTH 342 0
DWIDTH 11 0
BBX 9 5 1 17
BITMAP
1C00
3E00
3600
6300
C180
ENDCHAR
STARTCHAR caron
ENCODING 711
SWIDTH 342 0
DWIDTH 11 0
BBX 9 5 1 17
BITMAP
C180
6300
3600
3E00
1C00
ENDCHAR
STARTCHAR uni02C8
ENCODING 712
SWIDTH 284 0
DWIDTH 9 0
BBX 1 9 4 15
BITMAP
80
80
80
80
80
80
80
80
80
ENDCHAR
STARTCHAR uni02C9
ENCODING 713
SWIDTH 350 0
DWIDTH 11 0
BBX 9 1 1 19
BITMAP
FF80
ENDCHAR
STARTCHAR uni02CA
ENCODING 714
SWIDTH 222 0
DWIDTH 7 0
BBX 5 5 1 17
BITMAP
38
30
60
60
C0
ENDCHAR
STARTCHAR uni02CB
ENCODING 715
SWIDTH 222 0
DWIDTH 7 0
BBX 5 5 1 17
BITMAP
E0
70
30
10
18
ENDCHAR
STARTCHAR uni02CC
ENCODING 716
SWIDTH 284 0
DWIDTH 9 0
BBX 1 9 4 -7
BITMAP
80
80
80
80
80
80
80
80
80
ENDCHAR
STARTCHAR uni02CD
ENCODING 717
SWIDTH 342 0
DWIDTH 11 0
BBX 11 1 0 -5
BITMAP
FFE0
ENDCHAR
STARTCHAR uni02CE
ENCODING 718
SWIDTH 222 0
DWIDTH 7 0
BBX 5 5 1 -6
BITMAP
E0
70
30
10
18
ENDCHAR
STARTCHAR uni02CF
ENCODING 719
SWIDTH 223 0
DWIDTH 7 0
BBX 5 5 1 -6
BITMAP
38
30
60
60
C0
ENDCHAR
STARTCHAR uni02D0
ENCODING 720
SWIDTH 341 0
DWIDTH 11 0
BBX 5 15 3 1
BITMAP
F8
F0
70
70
20
00
00
00
00
00
20
70
70
F0
F8
ENDCHAR
STARTCHAR uni02D1
ENCODING 721
SWIDTH 341 0
DWIDTH 11 0
BBX 5 5 3 10
BITMAP
F8
F0
70
70
20
ENDCHAR
STARTCHAR uni02D2
ENCODING 722
SWIDTH 341 0
DWIDTH 11 0
BBX 7 9 2 3
BITMAP
F0
1C
0C
06
06
06
0C
1C
F8
ENDCHAR
STARTCHAR uni02D3
ENCODING 723
SWIDTH 341 0
DWIDTH 11 0
BBX 7 9 2 3
BITMAP
1E
70
60
C0
C0
C0
40
60
3E
ENDCHAR
STARTCHAR uni02D4
ENCODING 724
SWIDTH 341 0
DWIDTH 11 0
BBX 7 6 2 6
BITMAP
10
10
10
10
10
FE
ENDCHAR
STARTCHAR uni02D5
ENCODING 725
SWIDTH 341 0
DWIDTH 11 0
BBX 7 6 2 6
BITMAP
FE
10
10
10
10
10
ENDCHAR
STARTCHAR uni02D6
ENCODING 726
SWIDTH 341 0
DWIDTH 11 0
BBX 7 6 2 5
BITMAP
10
10
FE
10
10
10
ENDCHAR
STARTCHAR uni02D7
ENCODING 727
SWIDTH 341 0
DWIDTH 11 0
BBX 7 1 2 8
BITMAP
FE
ENDCHAR
STARTCHAR breve
ENCODING 728
SWIDTH 353 0
DWIDTH 11 0
BBX 9 5 1 17
BITMAP
8080
8080
E180
7F00
3E00
ENDCHAR
STARTCHAR dotaccent
ENCODING 729
SWIDTH 194 0
DWIDTH 6 0
BBX 4 4 1 18
BITMAP
60
F0
F0
60
ENDCHAR
STARTCHAR ring
ENCODING 730
SWIDTH 265 0
DWIDTH 8 0
BBX 7 6 1 18
BITMAP
78
CC
84
C6
C4
78
ENDCHAR
STARTCHAR ogonek
ENCODING 731
SWIDTH 277 0
DWIDTH 9 0
BBX 7 7 1 -7
BITMAP
18
60
40
C0
C2
FC
78
ENDCHAR
STARTCHAR tilde
ENCODING 732
SWIDTH 381 0
DWIDTH 12 0
BBX 10 3 1 18
BITMAP
7C40
FFC0
8780
ENDCHAR
STARTCHAR hungarumlaut
ENCODING 733
SWIDTH 350 0
DWIDTH 11 0
BBX 9 5 1 17
BITMAP
3B80
7300
6700
4600
CC00
ENDCHAR
STARTCHAR uni02DE
ENCODING 734
SWIDTH 205 0
DWIDTH 7 0
BBX 7 4 -1 7
BITMAP
20
E2
B2
3C
ENDCHAR
STARTCHAR uni02DF
ENCODING 735
SWIDTH 302 0
DWIDTH 10 0
BBX 8 8 1 16
BITMAP
42
C3
66
3C
18
3C
67
C2
ENDCHAR
STARTCHAR uni02E0
ENCODING 736
SWIDTH 413 0
DWIDTH 13 0
BBX 13 18 0 3
BITMAP
FC78
7030
3820
3820
1860
1C40
0CC0
0E80
0E80
0700
0700
0300
0780
0580
0D80
0980
0980
0700
ENDCHAR
STARTCHAR uni02E1
ENCODING 737
SWIDTH 244 0
DWIDTH 8 0
BBX 6 18 1 8
BITMAP
F0
70
30
30
30
30
30
30
30
30
30
30
30
30
30
30
30
FC
ENDCHAR
STARTCHAR uni02E2
ENCODING 738
SWIDTH 337 0
DWIDTH 11 0
BBX 9 13 1 8
BITMAP
3F00
4300
C100
C100
F000
7C00
3E00
0F00
8780
8380
C180
C300
BE00
ENDCHAR
STARTCHAR uni02E3
ENCODING 739
SWIDTH 445 0
DWIDTH 14 0
BBX 13 13 1 8
BITMAP
FCF0
7860
38C0
1C80
0D00
0F00
0700
0F00
0B80
11C0
30C0
60E0
F1F8
ENDCHAR
STARTCHAR uni02E4
ENCODING 740
SWIDTH 364 0
DWIDTH 12 0
BBX 11 18 1 8
BITMAP
1F80
31C0
60E0
60C0
E000
E000
E000
6000
7000
3800
0F00
0300
0300
0300
0300
0300
0700
1FC0
ENDCHAR
STARTCHAR uni02E5
ENCODING 741
SWIDTH 423 0
DWIDTH 14 0
BBX 10 22 2 0
BITMAP
FFC0
0040
0040
0040
0040
0040
0040
0040
0040
0040
0040
0040
0040
0040
0040
0040
0040
0040
0040
0040
0040
0040
ENDCHAR
STARTCHAR uni02E6
ENCODING 742
SWIDTH 414 0
DWIDTH 13 0
BBX 11 23 1 0
BITMAP
0060
0060
0060
0060
0060
0060
0060
FFE0
0060
0060
0060
0060
0060
0060
0060
0060
0060
0060
0060
0060
0060
0060
0060
ENDCHAR
STARTCHAR uni02E7
ENCODING 743
SWIDTH 414 0
DWIDTH 13 0
BBX 11 23 1 0
BITMAP
0060
0060
0060
0060
0060
0060
0060
0060
0060
0060
0060
FFE0
0060
0060
0060
0060
0060
0060
0060
0060
0060
0060
0060
ENDCHAR
STARTCHAR uni02E8
ENCODING 744
SWIDTH 414 0
DWIDTH 13 0
BBX 11 22 1 1
BITMAP
0060
0060
0060
0060
0060
0060
0060
0060
0060
0060
0060
0060
0060
0060
0060
FFE0
0060
0060
0060
0060
0060
0060
ENDCHAR
STARTCHAR uni02E9
ENCODING 745
SWIDTH 414 0
DWIDTH 13 0
BBX 11 22 1 0
BITMAP
0060
0060
0060
0060
0060
0060
0060
0060
0060
0060
0060
0060
0060
0060
0060
0060
0060
0060
0060
0060
0060
FFE0
ENDCHAR
STARTCHAR uni02EC
ENCODING 748
SWIDTH 341 0
DWIDTH 11 0
BBX 9 8 1 -5
BITMAP
C180
E380
6300
7600
3600
1C00
1C00
0800
ENDCHAR
STARTCHAR uni02ED
ENCODING 749
SWIDTH 380 0
DWIDTH 12 0
BBX 10 5 1 18
BITMAP
FFC0
0000
0000
0000
FFC0
ENDCHAR
STARTCHAR uni02F7
ENCODING 759
SWIDTH 381 0
DWIDTH 12 0
BBX 10 3 1 -5
BITMAP
7C40
FFC0
8780
ENDCHAR
STARTCHAR uni0300
ENCODING 768
SWIDTH 0 0
DWIDTH 0 0
BBX 5 5 -11 17
BITMAP
E0
70
30
18
08
ENDCHAR
STARTCHAR uni0301
ENCODING 769
SWIDTH 0 0
DWIDTH 0 0
BBX 5 5 -9 17
BITMAP
38
70
60
60
C0
ENDCHAR
STARTCHAR uni0302
ENCODING 770
SWIDTH 0 0
DWIDTH 0 0
BBX 9 5 -12 17
BITMAP
1C00
1E00
3600
6300
C180
ENDCHAR
STARTCHAR uni0303
ENCODING 771
SWIDTH 0 0
DWIDTH 0 0
BBX 10 3 -12 18
BITMAP
7840
FF80
8F00
ENDCHAR
STARTCHAR uni0304
ENCODING 772
SWIDTH 0 0
DWIDTH 0 0
BBX 9 1 -12 19
BITMAP
FF80
ENDCHAR
STARTCHAR uni0305
ENCODING 773
SWIDTH 0 0
DWIDTH 0 0
BBX 13 1 -13 19
BITMAP
FFF8
ENDCHAR
STARTCHAR uni0306
ENCODING 774
SWIDTH 0 0
DWIDTH 0 0
BBX 9 5 -12 17
BITMAP
8080
8080
C180
7F00
3E00
ENDCHAR
STARTCHAR uni0307
ENCODING 775
SWIDTH 0 0
DWIDTH 0 0
BBX 3 4 -9 18
BITMAP
E0
E0
E0
E0
ENDCHAR
STARTCHAR uni0308
ENCODING 776
SWIDTH 0 0
DWIDTH 0 0
BBX 11 4 -13 18
BITMAP
60C0
F1E0
F1E0
60C0
ENDCHAR
STARTCHAR uni0309
ENCODING 777
SWIDTH 0 0
DWIDTH 0 0
BBX 6 7 -10 17
BITMAP
78
CC
CC
0C
08
30
20
ENDCHAR
STARTCHAR uni030A
ENCODING 778
SWIDTH 0 0
DWIDTH 0 0
BBX 7 6 -11 18
BITMAP
3C
64
C6
C6
46
7C
ENDCHAR
STARTCHAR uni030B
ENCODING 779
SWIDTH 0 0
DWIDTH 0 0
BBX 9 5 -10 17
BITMAP
7B80
7700
6600
CC00
8C00
ENDCHAR
STARTCHAR uni030C
ENCODING 780
SWIDTH 0 0
DWIDTH 0 0
BBX 9 5 -12 17
BITMAP
C180
6300
3600
1E00
1C00
ENDCHAR
STARTCHAR uni030D
ENCODING 781
SWIDTH 0 0
DWIDTH 0 0
BBX 2 7 -8 17
BITMAP
C0
C0
C0
C0
C0
C0
C0
ENDCHAR
STARTCHAR uni030E
ENCODING 782
SWIDTH 0 0
DWIDTH 0 0
BBX 7 7 -11 17
BITMAP
C6
C6
C6
C6
C6
C6
C6
ENDCHAR
STARTCHAR uni030F
ENCODING 783
SWIDTH 0 0
DWIDTH 0 0
BBX 10 5 -14 17
BITMAP
F700
7700
3380
1980
08C0
ENDCHAR
STARTCHAR uni0310
ENCODING 784
SWIDTH 0 0
DWIDTH 0 0
BBX 9 7 -12 17
BITMAP
1C00
1C00
9C80
9C80
C180
7F00
3E00
ENDCHAR
STARTCHAR uni0311
ENCODING 785
SWIDTH 0 0
DWIDTH 0 0
BBX 9 5 -12 17
BITMAP
3E00
7F00
6300
C180
8080
ENDCHAR
STARTCHAR uni0312
ENCODING 786
SWIDTH 0 0
DWIDTH 0 0
BBX 5 8 -10 17
BITMAP
10
38
40
40
F0
F8
78
70
ENDCHAR
STARTCHAR uni0313
ENCODING 787
SWIDTH 0 0
DWIDTH 0 0
BBX 4 8 -9 17
BITMAP
E0
F0
F0
F0
30
20
40
80
ENDCHAR
STARTCHAR uni0314
ENCODING 788
SWIDTH 0 0
DWIDTH 0 0
BBX 5 8 -10 17
BITMAP
70
78
F8
F0
40
40
30
18
ENDCHAR
STARTCHAR uni0315
ENCODING 789
SWIDTH 0 0
DWIDTH 0 0
BBX 3 7 -8 16
BITMAP
60
E0
E0
E0
C0
C0
40
ENDCHAR
STARTCHAR uni0316
ENCODING 790
SWIDTH 0 0
DWIDTH 0 0
BBX 5 5 -11 -7
BITMAP
E0
70
30
18
08
ENDCHAR
STARTCHAR uni0317
ENCODING 791
SWIDTH 0 0
DWIDTH 0 0
BBX 6 5 -9 -7
BITMAP
3C
38
70
60
C0
ENDCHAR
STARTCHAR uni0318
ENCODING 792
SWIDTH 0 0
DWIDTH 0 0
BBX 5 6 -10 -8
BITMAP
08
08
F8
08
08
08
ENDCHAR
STARTCHAR uni0319
ENCODING 793
SWIDTH 0 0
DWIDTH 0 0
BBX 5 6 -10 -8
BITMAP
C0
C0
F8
C0
C0
C0
ENDCHAR
STARTCHAR uni031A
ENCODING 794
SWIDTH 0 0
DWIDTH 0 0
BBX 7 6 -11 17
BITMAP
FE
06
06
06
06
06
ENDCHAR
STARTCHAR uni031B
ENCODING 795
SWIDTH 0 0
DWIDTH 0 0
BBX 6 6 -6 15
BITMAP
18
1C
1C
0C
08
F0
ENDCHAR
STARTCHAR uni031C
ENCODING 796
SWIDTH 0 0
DWIDTH 0 0
BBX 4 6 -10 -8
BITMAP
70
E0
C0
C0
C0
70
ENDCHAR
STARTCHAR uni031D
ENCODING 797
SWIDTH 0 0
DWIDTH 0 0
BBX 7 5 -11 -7
BITMAP
10
10
10
10
FE
ENDCHAR
STARTCHAR uni031E
ENCODING 798
SWIDTH 0 0
DWIDTH 0 0
BBX 7 5 -11 -7
BITMAP
FE
10
10
10
10
ENDCHAR
STARTCHAR uni031F
ENCODING 799
SWIDTH 0 0
DWIDTH 0 0
BBX 7 7 -11 -8
BITMAP
10
10
10
FE
10
10
10
ENDCHAR
STARTCHAR uni0320
ENCODING 800
SWIDTH 0 0
DWIDTH 0 0
BBX 7 1 -11 -5
BITMAP
FE
ENDCHAR
STARTCHAR uni0321
ENCODING 801
SWIDTH 0 0
DWIDTH 0 0
BBX 9 9 -14 -7
BITMAP
0380
0380
0380
0380
0380
4380
E300
F300
7E00
ENDCHAR
STARTCHAR uni0322
ENCODING 802
SWIDTH 0 0
DWIDTH 0 0
BBX 9 9 -8 -7
BITMAP
E000
E000
E000
6000
6000
6100
6380
3380
1F80
ENDCHAR
STARTCHAR uni0323
ENCODING 803
SWIDTH 0 0
DWIDTH 0 0
BBX 3 4 -9 -6
BITMAP
E0
E0
E0
E0
ENDCHAR
STARTCHAR uni0324
ENCODING 804
SWIDTH 0 0
DWIDTH 0 0
BBX 11 4 -13 -6
BITMAP
60C0
F1E0
F1E0
60C0
ENDCHAR
STARTCHAR uni0325
ENCODING 805
SWIDTH 0 0
DWIDTH 0 0
BBX 7 6 -11 -8
BITMAP
3C
64
C6
C6
46
7C
ENDCHAR
STARTCHAR uni0326
ENCODING 806
SWIDTH 0 0
DWIDTH 0 0
BBX 4 8 -9 -9
BITMAP
E0
F0
F0
F0
30
20
40
80
ENDCHAR
STARTCHAR uni0327
ENCODING 807
SWIDTH 0 0
DWIDTH 0 0
BBX 6 7 -10 -7
BITMAP
20
40
78
0C
0C
8C
F8
ENDCHAR
STARTCHAR uni0328
ENCODING 808
SWIDTH 0 0
DWIDTH 0 0
BBX 7 7 -11 -7
BITMAP
18
20
60
60
E2
7E
38
ENDCHAR
STARTCHAR uni0329
ENCODING 809
SWIDTH 0 0
DWIDTH 0 0
BBX 2 6 -8 -7
BITMAP
C0
C0
C0
C0
C0
C0
ENDCHAR
STARTCHAR uni032A
ENCODING 810
SWIDTH 0 0
DWIDTH 0 0
BBX 8 4 -11 -6
BITMAP
FF
83
83
83
ENDCHAR
STARTCHAR uni032B
ENCODING 811
SWIDTH 0 0
DWIDTH 0 0
BBX 10 4 -12 -5
BITMAP
88C0
88C0
8C80
F780
ENDCHAR
STARTCHAR uni032C
ENCODING 812
SWIDTH 0 0
DWIDTH 0 0
BBX 9 5 -12 -7
BITMAP
C180
6300
3600
1E00
1C00
ENDCHAR
STARTCHAR uni032D
ENCODING 813
SWIDTH 0 0
DWIDTH 0 0
BBX 9 5 -12 -7
BITMAP
1C00
1E00
3600
6300
C180
ENDCHAR
STARTCHAR uni032E
ENCODING 814
SWIDTH 0 0
DWIDTH 0 0
BBX 9 5 -12 -7
BITMAP
8080
8080
C180
7F00
3E00
ENDCHAR
STARTCHAR uni032F
ENCODING 815
SWIDTH 0 0
DWIDTH 0 0
BBX 9 5 -12 -7
BITMAP
3E00
7F00
C180
8080
8080
ENDCHAR
STARTCHAR uni0330
ENCODING 816
SWIDTH 0 0
DWIDTH 0 0
BBX 11 3 -13 -5
BITMAP
3C60
7FC0
C780
ENDCHAR
STARTCHAR uni0331
ENCODING 817
SWIDTH 0 0
DWIDTH 0 0
BBX 9 1 -12 -4
BITMAP
FF80
ENDCHAR
STARTCHAR uni0332
ENCODING 818
SWIDTH 0 0
DWIDTH 0 0
BBX 17 1 -16 -4
BITMAP
FFFF80
ENDCHAR
STARTCHAR uni0333
ENCODING 819
SWIDTH 0 0
DWIDTH 0 0
BBX 17 5 -16 -8
BITMAP
FFFF80
000000
000000
000000
FFFF80
ENDCHAR
STARTCHAR uni0334
ENCODING 820
SWIDTH 0 0
DWIDTH 0 0
BBX 11 3 -13 7
BITMAP
3820
7E40
C7C0
ENDCHAR
STARTCHAR uni0335
ENCODING 821
SWIDTH 0 0
DWIDTH 0 0
BBX 10 1 -12 8
BITMAP
FFC0
ENDCHAR
STARTCHAR uni0336
ENCODING 822
SWIDTH 0 0
DWIDTH 0 0
BBX 17 1 -16 8
BITMAP
FFFF80
ENDCHAR
STARTCHAR uni0337
ENCODING 823
SWIDTH 0 0
DWIDTH 0 0
BBX 9 6 -12 9
BITMAP
0180
0300
0C00
1800
3000
C000
ENDCHAR
STARTCHAR uni0338
ENCODING 824
SWIDTH 0 0
DWIDTH 0 0
BBX 14 28 -14 -5
BITMAP
000C
0018
0018
0010
0030
0030
0060
0060
00C0
00C0
0080
0180
0180
0300
0300
0200
0600
0400
0C00
0C00
1800
1800
1000
3000
2000
6000
6000
C000
ENDCHAR
STARTCHAR uni0339
ENCODING 825
SWIDTH 0 0
DWIDTH 0 0
BBX 4 6 -9 -8
BITMAP
E0
30
10
10
30
E0
ENDCHAR
STARTCHAR uni033A
ENCODING 826
SWIDTH 0 0
DWIDTH 0 0
BBX 8 4 -11 -6
BITMAP
83
83
83
FF
ENDCHAR
STARTCHAR uni033B
ENCODING 827
SWIDTH 0 0
DWIDTH 0 0
BBX 5 6 -10 -7
BITMAP
F8
88
88
88
88
F8
ENDCHAR
STARTCHAR uni033C
ENCODING 828
SWIDTH 0 0
DWIDTH 0 0
BBX 9 4 -12 -6
BITMAP
F380
9C80
0800
0800
ENDCHAR
STARTCHAR uni033D
ENCODING 829
SWIDTH 0 0
DWIDTH 0 0
BBX 7 6 -11 17
BITMAP
C6
2C
18
38
66
44
ENDCHAR
STARTCHAR uni033E
ENCODING 830
SWIDTH 0 0
DWIDTH 0 0
BBX 3 11 -9 16
BITMAP
20
40
C0
C0
C0
60
60
20
60
C0
80
ENDCHAR
STARTCHAR uni033F
ENCODING 831
SWIDTH 0 0
DWIDTH 0 0
BBX 13 5 -14 17
BITMAP
FFF8
0000
0000
0000
FFF8
ENDCHAR
STARTCHAR uni0346
ENCODING 838
SWIDTH 0 0
DWIDTH 0 0
BBX 9 4 -12 18
BITMAP
FF80
C180
C180
C180
ENDCHAR
STARTCHAR uni0347
ENCODING 839
SWIDTH 0 0
DWIDTH 0 0
BBX 10 5 -12 -7
BITMAP
FFC0
0000
0000
0000
FFC0
ENDCHAR
STARTCHAR uni034C
ENCODING 844
SWIDTH 0 0
DWIDTH 0 0
BBX 10 8 -12 17
BITMAP
7840
FCC0
8F80
8700
0000
7840
FF80
8F00
ENDCHAR
STARTCHAR uni034D
ENCODING 845
SWIDTH 0 0
DWIDTH 0 0
BBX 15 7 -15 -9
BITMAP
0810
1018
600C
FFFE
600C
3008
0810
ENDCHAR
STARTCHAR uni0359
ENCODING 857
SWIDTH 0 0
DWIDTH 0 0
BBX 9 11 -12 -12
BITMAP
0C00
0C00
C980
EB80
7F00
0800
7F00
EB80
C980
0C00
0C00
ENDCHAR
STARTCHAR uni035C
ENCODING 860
SWIDTH 0 0
DWIDTH 0 0
BBX 22 5 -11 -8
BITMAP
800004
C0000C
780078
3FFFF0
07FF80
ENDCHAR
STARTCHAR uni0360
ENCODING 864
SWIDTH 0 0
DWIDTH 0 0
BBX 16 4 -8 17
BITMAP
3E00
7FC1
C3FE
007C
ENDCHAR
STARTCHAR uni0361
ENCODING 865
SWIDTH 0 0
DWIDTH 0 0
BBX 16 5 -8 18
BITMAP
0FF0
3FFC
700E
C002
8001
ENDCHAR
STARTCHAR uni0362
ENCODING 866
SWIDTH 0 0
DWIDTH 0 0
BBX 25 7 -12 -9
BITMAP
00000800
00000400
00000600
FFFFFF80
00000600
00000400
00000800
ENDCHAR
STARTCHAR uni037E
ENCODING 894
SWIDTH 261 0
DWIDTH 8 0
BBX 5 21 2 -5
BITMAP
70
F0
F0
70
00
00
00
00
00
00
00
00
70
F0
F8
78
18
10
30
60
80
ENDCHAR
STARTCHAR tonos
ENCODING 900
SWIDTH 165 0
DWIDTH 5 0
BBX 3 6 1 17
BITMAP
E0
E0
E0
C0
C0
80
ENDCHAR
STARTCHAR dieresistonos
ENCODING 901
SWIDTH 426 0
DWIDTH 14 0
BBX 12 6 1 17
BITMAP
0700
0700
E660
E6F0
E460
0C00
ENDCHAR
STARTCHAR Alphatonos
ENCODING 902
SWIDTH 718 0
DWIDTH 23 0
BBX 23 22 0 0
BITMAP
383000
383800
303800
307800
205C00
20DC00
00DE00
008E00
018F00
018700
030700
030780
070380
0603C0
07FFC0
0C01E0
0C01E0
1800E0
1800F0
3800F0
7800FC
FE03FE
ENDCHAR
STARTCHAR anoteleia
ENCODING 903
SWIDTH 261 0
DWIDTH 8 0
BBX 4 4 2 12
BITMAP
70
F0
F0
70
ENDCHAR
STARTCHAR Epsilontonos
ENCODING 904
SWIDTH 745 0
DWIDTH 24 0
BBX 23 22 0 0
BITMAP
E7FFFC
E1FFFC
C0E00C
C0E00C
80E004
80E004
00E000
00E020
00E020
00E060
00FFE0
00E060
00E020
00E020
00E020
00E000
00E002
00E006
00E006
00E00C
00E0FC
07FFFC
ENDCHAR
STARTCHAR Etatonos
ENCODING 905
SWIDTH 896 0
DWIDTH 29 0
BBX 28 22 0 0
BITMAP
E7FC3FF0
E1F00FC0
C0E00780
C0E00700
80E00700
80E00700
00E00700
00E00700
00E00700
00E00700
00FFFF00
00E00700
00E00700
00E00700
00E00700
00E00700
00E00700
00E00700
00E00700
00E00780
01F00780
07FC3FF0
ENDCHAR
STARTCHAR Iotatonos
ENCODING 906
SWIDTH 478 0
DWIDTH 15 0
BBX 14 22 0 0
BITMAP
E7FC
E1F0
C0E0
C0E0
80E0
80E0
00E0
00E0
00E0
00E0
00E0
00E0
00E0
00E0
00E0
00E0
00E0
00E0
00E0
00E0
01F0
07FC
ENDCHAR
STARTCHAR Omicrontonos
ENCODING 908
SWIDTH 806 0
DWIDTH 26 0
BBX 24 22 0 0
BITMAP
E01FC0
E0F0F0
C1C038
C3801C
87801E
87000E
0F000F
0E000F
0E0007
0E0007
0E0007
0E0007
0E0007
0E0007
0E000F
0F000E
07000E
07800C
03801C
01C038
00F0F0
001F80
ENDCHAR
STARTCHAR Upsilontonos
ENCODING 910
SWIDTH 787 0
DWIDTH 25 0
BBX 26 22 -1 0
BITMAP
E7FC1FC0
E1F00780
E0F00600
C0700600
C0780C00
803C0C00
001C1800
001E1000
000E3000
000F2000
00076000
0003C000
00038000
00038000
00038000
00038000
00038000
00038000
00038000
0003C000
0007E000
001FF800
ENDCHAR
STARTCHAR Omegatonos
ENCODING 911
SWIDTH 830 0
DWIDTH 27 0
BBX 25 22 0 0
BITMAP
E01FC000
E0F0F000
C1C03800
C3801C00
87800E00
87000E00
07000F00
0F000700
0F000700
0F000700
0F000700
0F000F00
07000F00
07000E00
07800E00
03801C00
11C01880
18C03080
18606180
0FF0FF80
0FF0FF80
0FF0FF00
ENDCHAR
STARTCHAR iotadieresistonos
ENCODING 912
SWIDTH 259 0
DWIDTH 8 0
BBX 12 24 -2 0
BITMAP
0700
0700
6660
F6F0
6460
0400
0000
0000
0E00
0E00
0E00
0E00
0E00
0E00
0C00
0C00
0C00
0C00
0C00
0C00
0C00
0E40
07C0
0780
ENDCHAR
STARTCHAR Alpha
ENCODING 913
SWIDTH 718 0
DWIDTH 23 0
BBX 23 22 0 0
BITMAP
003000
003800
003800
007800
005C00
00DC00
00DE00
008E00
018F00
018700
030700
030780
070380
0603C0
07FFC0
0C01E0
0C01E0
1800E0
1800F0
3800F0
7800FC
FE03FE
ENDCHAR
STARTCHAR Beta
ENCODING 914
SWIDTH 618 0
DWIDTH 20 0
BBX 18 22 1 0
BITMAP
FFF800
1C3E00
1C0F00
1C0700
1C0780
1C0780
1C0700
1C0700
1C0600
1C1C00
1FF800
1C3E00
1C0700
1C0380
1C0380
1C03C0
1C03C0
1C03C0
1C0380
1C0780
1C1F00
FFFC00
ENDCHAR
STARTCHAR Gamma
ENCODING 915
SWIDTH 569 0
DWIDTH 18 0
BBX 17 22 1 0
BITMAP
FFFF00
1FFF00
1C0300
1C0100
1C0180
1C0180
1C0000
1C0000
1C0000
1C0000
1C0000
1C0000
1C0000
1C0000
1C0000
1C0000
1C0000
1C0000
1C0000
1C0000
1E0000
FFC000
ENDCHAR
STARTCHAR Delta
ENCODING 916
SWIDTH 667 0
DWIDTH 21 0
BBX 19 22 1 0
BITMAP
006000
00E000
00E000
00F000
01F000
017800
033800
033800
061C00
061C00
041E00
0C0E00
080F00
180700
180700
300780
300380
6003C0
6001C0
7FFFC0
FFFFE0
FFFFE0
ENDCHAR
STARTCHAR Epsilon
ENCODING 917
SWIDTH 626 0
DWIDTH 20 0
BBX 18 22 1 0
BITMAP
FFFF80
1FFF80
1C0180
1C0080
1C0080
1C0080
1C0000
1C0600
1C0600
1C0600
1FFE00
1C0E00
1C0600
1C0600
1C0200
1C0000
1C0040
1C0040
1C00C0
1C01C0
1C1F80
FFFF80
ENDCHAR
STARTCHAR Zeta
ENCODING 918
SWIDTH 594 0
DWIDTH 19 0
BBX 17 22 1 0
BITMAP
7FFF80
780700
600F00
601E00
401C00
403C00
003800
007800
00F000
00E000
01E000
03C000
038000
078000
0F0000
0E0000
1E0080
3C0080
380180
780180
F00F00
FFFF00
ENDCHAR
STARTCHAR Eta
ENCODING 919
SWIDTH 777 0
DWIDTH 25 0
BBX 23 22 1 0
BITMAP
FF83FE
3F01F8
1C00F0
1C0070
1C0070
1C0070
1C0070
1C0070
1C0070
1C0070
1FFFF0
1C0070
1C0070
1C0070
1C0070
1C0070
1C0070
1C0070
1C0070
1C0070
3E00F8
FF83FE
ENDCHAR
STARTCHAR Theta
ENCODING 920
SWIDTH 738 0
DWIDTH 24 0
BBX 20 22 2 0
BITMAP
03F800
0F0E00
1C0380
3801C0
7001C0
7000E0
F000E0
E000F0
E204F0
E3FCF0
E3FC70
E3FCF0
E204F0
E204F0
E000F0
F000E0
7000E0
7001C0
3801C0
1C0380
0F0F00
03F800
ENDCHAR
STARTCHAR Iota
ENCODING 921
SWIDTH 357 0
DWIDTH 11 0
BBX 9 22 1 0
BITMAP
FF80
3E00
1C00
1C00
1C00
1C00
1C00
1C00
1C00
1C00
1C00
1C00
1C00
1C00
1C00
1C00
1C00
1C00
1C00
1C00
3E00
FF80
ENDCHAR
STARTCHAR Kappa
ENCODING 922
SWIDTH 702 0
DWIDTH 22 0
BBX 21 22 1 0
BITMAP
FF8FF0
3E07C0
1C0380
1C0700
1C0600
1C0C00
1C1800
1C3000
1C4000
1C8000
1D8000
1FC000
1DE000
1CF000
1C7800
1C3C00
1C1E00
1C0F00
1C0780
1C03C0
3E03F0
FF8FF8
ENDCHAR
STARTCHAR Lambda
ENCODING 923
SWIDTH 710 0
DWIDTH 23 0
BBX 23 22 0 0
BITMAP
003000
003000
007800
007800
007C00
00DC00
009C00
018E00
018E00
010F00
030700
030780
020380
060380
0403C0
0C01C0
0C01E0
0801E0
1800E0
1800F0
3800F8
FE03FE
ENDCHAR
STARTCHAR Mu
ENCODING 924
SWIDTH 895 0
DWIDTH 29 0
BBX 26 22 1 0
BITMAP
FE000FC0
3E001F00
1F001F00
1F001E00
1F003600
1F803600
1B806600
1BC06600
19C06600
19C0C600
19E0C600
18E18600
18F18600
18710600
18730600
187B0600
183E0600
183E0600
181C0E00
181C0F00
3C0C0F00
FE083FC0
ENDCHAR
STARTCHAR Nu
ENCODING 925
SWIDTH 742 0
DWIDTH 24 0
BBX 22 22 1 0
BITMAP
FC03FC
7C00F0
1E0060
1F0060
1F8060
1F8060
1BC060
19E060
18F060
18F060
187860
183C60
181E60
181E60
180F60
1807E0
1803E0
1803E0
1801E0
1800E0
3C0060
FE0020
ENDCHAR
STARTCHAR Xi
ENCODING 926
SWIDTH 648 0
DWIDTH 21 0
BBX 18 22 1 0
BITMAP
7FFFC0
7FFFC0
7FFFC0
6000C0
4000C0
400040
000000
080200
080600
0FFE00
0FFE00
0FFE00
0C0600
080200
080200
000000
C00040
400040
4000C0
7FFFC0
7FFFC0
7FFFC0
ENDCHAR
STARTCHAR Omicron
ENCODING 927
SWIDTH 738 0
DWIDTH 24 0
BBX 20 22 2 0
BITMAP
03F800
0F1F00
1C0780
3803C0
7001C0
7000E0
F000E0
E000F0
E00070
E00070
E00070
E00070
E00070
E000F0
E000F0
F000E0
7000E0
7001C0
3801C0
1C0380
0F0E00
03F800
ENDCHAR
STARTCHAR Pi
ENCODING 928
SWIDTH 759 0
DWIDTH 24 0
BBX 22 22 1 0
BITMAP
FFFFFC
1C00F0
1C00E0
1C00E0
1C00E0
1C00E0
1C00E0
1C00E0
1C00E0
1C00E0
1C00E0
1C00E0
1C00E0
1C00E0
1C00E0
1C00E0
1C00E0
1C00E0
1C00E0
1C00E0
1E00F0
FF87FC
ENDCHAR
STARTCHAR Rho
ENCODING 929
SWIDTH 569 0
DWIDTH 18 0
BBX 16 22 1 0
BITMAP
7FF8
1C7E
1C0F
1C07
1C07
1C07
1C07
1C07
1C07
1C0E
1C1C
1FF0
1C00
1C00
1C00
1C00
1C00
1C00
1C00
1C00
3E00
FF80
ENDCHAR
STARTCHAR Sigma
ENCODING 931
SWIDTH 604 0
DWIDTH 19 0
BBX 17 22 1 0
BITMAP
FFFF00
FFFF00
780300
3C0100
1C0100
0E0100
0F0000
078000
03C000
01E000
00C000
00C000
018000
030000
060000
0C0080
0C0080
180180
300180
7FFF80
FFFF80
FFFF00
ENDCHAR
STARTCHAR Tau
ENCODING 932
SWIDTH 603 0
DWIDTH 19 0
BBX 19 22 0 0
BITMAP
7FFFE0
70E1E0
40E060
40E060
40E020
C0E020
00E000
00E000
00E000
00E000
00E000
00E000
00E000
00E000
00E000
00E000
00E000
00E000
00E000
00E000
01F000
07FC00
ENDCHAR
STARTCHAR Upsilon
ENCODING 933
SWIDTH 647 0
DWIDTH 21 0
BBX 21 22 0 0
BITMAP
FF03F8
7E00E0
3C00C0
1E0180
0E0180
070300
078200
038600
03C400
01CC00
00F800
00F800
007000
007000
007000
007000
007000
007000
007000
007000
00F800
03FE00
ENDCHAR
STARTCHAR Phi
ENCODING 934
SWIDTH 718 0
DWIDTH 23 0
BBX 21 22 1 0
BITMAP
03FE00
00F800
007000
007000
03FE00
1F77C0
3870E0
707070
F07078
E07078
E07038
E07038
E07078
F07078
707070
7870F0
3E71C0
0FFF80
007000
007000
00F800
03FE00
ENDCHAR
STARTCHAR Chi
ENCODING 935
SWIDTH 664 0
DWIDTH 21 0
BBX 21 22 0 0
BITMAP
7F87F8
3F01E0
0E01C0
0F0180
078300
038200
03C600
01CC00
00F800
00F000
007000
007800
00FC00
019C00
011E00
030F00
060700
0C0780
0C03C0
1803C0
3803F0
FE0FF8
ENDCHAR
STARTCHAR Psi
ENCODING 936
SWIDTH 720 0
DWIDTH 23 0
BBX 23 22 0 0
BITMAP
E1FF0E
307C18
383838
383838
383838
383838
383838
383838
383838
383838
383838
1C3870
0C3860
0739C0
03FF80
003800
003800
003800
003800
003800
007C00
01FF00
ENDCHAR
STARTCHAR Omega
ENCODING 937
SWIDTH 777 0
DWIDTH 25 0
BBX 22 22 1 0
BITMAP
00FE00
038380
0F01E0
1E00F0
1C0070
3C0078
380038
380038
380038
380038
380038
380038
380078
3C0078
1C0070
1C00E0
CE00E4
4701C4
43038C
7F87FC
7FC7FC
7FC7FC
ENDCHAR
STARTCHAR Iotadieresis
ENCODING 938
SWIDTH 357 0
DWIDTH 11 0
BBX 11 27 0 0
BITMAP
60C0
F0E0
F1E0
60C0
0000
7FC0
1F00
0E00
0E00
0E00
0E00
0E00
0E00
0E00
0E00
0E00
0E00
0E00
0E00
0E00
0E00
0E00
0E00
0E00
0E00
1F00
7FC0
ENDCHAR
STARTCHAR Upsilondieresis
ENCODING 939
SWIDTH 647 0
DWIDTH 21 0
BBX 21 27 0 0
BITMAP
038700
038700
038700
038700
000000
FF03F8
7E00E0
3C00C0
1E0180
0E0180
070300
078200
038600
03C400
01CC00
00F800
00F800
007000
007000
007000
007000
007000
007000
007000
007000
00F800
03FE00
ENDCHAR
STARTCHAR alphatonos
ENCODING 940
SWIDTH 561 0
DWIDTH 18 0
BBX 17 23 1 0
BITMAP
01C000
01C000
018000
018000
010000
010000
000000
0F8700
1FCE00
3FCE00
706C00
603C00
C03800
C03800
C03000
C03000
C03000
C07000
C05000
619880
7F9F00
3F1F00
1E0E00
ENDCHAR
STARTCHAR epsilontonos
ENCODING 941
SWIDTH 381 0
DWIDTH 12 0
BBX 10 23 1 0
BITMAP
0380
0380
0380
0300
0300
0200
0000
0FC0
3FC0
7FC0
6040
6000
6000
2200
3E00
2E00
6000
C000
C000
E0C0
7FC0
7FC0
1F00
ENDCHAR
STARTCHAR etatonos
ENCODING 942
SWIDTH 510 0
DWIDTH 16 0
BBX 14 30 0 -7
BITMAP
0070
0070
0060
0060
0040
00C0
0000
3870
78F8
F9FC
9D8C
0F0C
0E0C
0E04
0C04
0C04
0C04
1C04
1C0C
1C0C
1C0C
1C0C
1C0C
000C
000C
001C
001C
001C
001C
001C
ENDCHAR
STARTCHAR iotatonos
ENCODING 943
SWIDTH 259 0
DWIDTH 8 0
BBX 6 23 2 0
BITMAP
38
70
70
60
60
60
00
E0
E0
E0
E0
E0
E0
C0
C0
C0
C0
C0
C0
C0
E4
7C
78
ENDCHAR
STARTCHAR upsilondieresistonos
ENCODING 944
SWIDTH 491 0
DWIDTH 16 0
BBX 14 24 0 0
BITMAP
0380
0380
33B8
7B38
3338
0200
0000
0000
3860
7830
FC18
9C0C
180C
180C
180C
180C
100C
100C
101C
101C
1838
1FF0
0FF0
07C0
ENDCHAR
STARTCHAR alpha
ENCODING 945
SWIDTH 561 0
DWIDTH 18 0
BBX 17 16 1 0
BITMAP
0F8700
1FCE00
3FCE00
706C00
603C00
C03800
C03800
C03000
C03000
C03000
C07000
C05000
619880
7F9F00
3F1F00
1E0E00
ENDCHAR
STARTCHAR beta
ENCODING 946
SWIDTH 530 0
DWIDTH 17 0
BBX 15 31 1 -7
BITMAP
01F0
07F8
07FC
0C1C
180C
180C
100C
3008
3018
3030
33C0
33E0
2230
6018
600C
600C
6006
7006
7006
700E
681C
6FFC
67F8
63E0
6000
6000
6000
7000
7000
F000
C000
ENDCHAR
STARTCHAR gamma
ENCODING 947
SWIDTH 466 0
DWIDTH 15 0
BBX 14 23 0 -7
BITMAP
381C
7C1C
FC38
8C38
0E30
0670
0670
0660
06E0
02C0
02C0
0380
0380
0300
0300
0300
0700
0700
0700
0E00
0E00
0E00
0600
ENDCHAR
STARTCHAR delta
ENCODING 948
SWIDTH 479 0
DWIDTH 15 0
BBX 13 24 1 0
BITMAP
0FC0
1FF0
10F8
1030
1810
0C00
0700
0380
03C0
0FE0
3FF0
3870
6038
4038
C018
8018
8018
8018
C018
C038
6070
7FE0
3FC0
1F00
ENDCHAR
STARTCHAR epsilon
ENCODING 949
SWIDTH 381 0
DWIDTH 12 0
BBX 10 16 1 0
BITMAP
0FC0
3FC0
7FC0
6040
6000
6000
2200
3E00
2E00
6000
C000
C000
E0C0
7FC0
7FC0
1F00
ENDCHAR
STARTCHAR zeta
ENCODING 950
SWIDTH 386 0
DWIDTH 12 0
BBX 12 33 1 -8
BITMAP
0400
0C00
0C10
1830
1CF0
0FF0
03C0
0700
0E00
1C00
3800
3000
6000
6000
4000
C000
C000
8000
8000
C000
C000
F000
7F00
3FC0
1FE0
01E0
0020
0020
0020
0040
0FC0
0F00
0C00
ENDCHAR
STARTCHAR eta
ENCODING 951
SWIDTH 510 0
DWIDTH 16 0
BBX 14 23 0 -7
BITMAP
3870
78F8
F9FC
9D8C
0F0C
0E0C
0E04
0C04
0C04
0C04
1C04
1C0C
1C0C
1C0C
1C0C
1C0C
000C
000C
001C
001C
001C
001C
001C
ENDCHAR
STARTCHAR theta
ENCODING 952
SWIDTH 514 0
DWIDTH 16 0
BBX 13 24 2 0
BITMAP
0F80
1FC0
3FE0
7060
6030
4030
C010
C018
8018
8018
FFF8
FFF8
8018
8018
8018
C018
C018
C010
C030
6030
7060
3FE0
1FC0
0F80
ENDCHAR
STARTCHAR iota
ENCODING 953
SWIDTH 259 0
DWIDTH 8 0
BBX 6 16 2 0
BITMAP
E0
E0
E0
E0
E0
E0
C0
C0
C0
C0
C0
C0
C0
E4
7C
78
ENDCHAR
STARTCHAR kappa
ENCODING 954
SWIDTH 495 0
DWIDTH 16 0
BBX 16 16 0 0
BITMAP
3806
7C1E
FC3C
9C78
0CE0
0DC0
0D80
0B00
0B80
0E80
0CC0
0CC0
1C61
1C7F
1C3E
1C1C
ENDCHAR
STARTCHAR lambda
ENCODING 955
SWIDTH 506 0
DWIDTH 16 0
BBX 17 24 0 0
BITMAP
070000
0F0000
1F8000
118000
018000
008000
00C000
00C000
00C000
00C000
01C000
01C000
034000
036000
066000
066000
0E6000
0C6000
1C3000
383000
383880
783F00
701F00
F01E00
ENDCHAR
STARTCHAR mu
ENCODING 956
SWIDTH 552 0
DWIDTH 18 0
BBX 17 23 1 -7
BITMAP
701C00
701800
701800
701800
701800
701800
701800
603000
603000
603000
605000
705800
70D880
7D9D00
6F9F00
6F0E00
600000
600000
600000
E00000
E00000
E00000
C00000
ENDCHAR
STARTCHAR nu
ENCODING 957
SWIDTH 453 0
DWIDTH 15 0
BBX 15 17 -1 -1
BITMAP
3C18
7C1C
7E0E
CE0E
060E
060E
060E
021C
021C
0218
0238
0270
0260
02E0
03C0
0380
0300
ENDCHAR
STARTCHAR xi
ENCODING 958
SWIDTH 390 0
DWIDTH 12 0
BBX 12 33 1 -8
BITMAP
1800
3000
3020
30E0
3BE0
0FE0
0F00
3C00
3000
7000
6000
2000
3000
13C0
0FC0
33C0
6000
4000
C000
C000
C000
E000
7E00
7FC0
3FE0
07E0
0070
0030
0030
0020
0FE0
0F80
0600
ENDCHAR
STARTCHAR omicron
ENCODING 959
SWIDTH 475 0
DWIDTH 15 0
BBX 13 16 1 0
BITMAP
0FC0
1FE0
3FF0
7030
6018
C018
C018
C008
C008
C018
C018
E038
7070
7FE0
3FC0
0F80
ENDCHAR
STARTCHAR pi
ENCODING 960
SWIDTH 591 0
DWIDTH 19 0
BBX 17 16 1 0
BITMAP
1FFF80
7FFF80
FFFF80
821800
861800
061800
041800
041000
0C1000
0C3000
0C3000
183800
183880
383F80
381F00
701E00
ENDCHAR
STARTCHAR rho
ENCODING 961
SWIDTH 515 0
DWIDTH 16 0
BBX 13 23 2 -7
BITMAP
07C0
1FE0
3FF0
3838
6018
6008
4008
C008
C008
C008
E018
E018
F070
DFF0
CFE0
C780
C000
C000
E000
E000
E000
E000
C000
ENDCHAR
STARTCHAR uni03C2
ENCODING 962
SWIDTH 377 0
DWIDTH 12 0
BBX 11 23 1 -7
BITMAP
0FE0
1FC0
3FC0
6000
4000
C000
8000
8000
C000
C000
E000
7800
7E00
3F80
0FC0
03E0
0060
0020
0020
0060
0FC0
0F80
0E00
ENDCHAR
STARTCHAR sigma
ENCODING 963
SWIDTH 545 0
DWIDTH 17 0
BBX 16 16 1 0
BITMAP
07FF
1FFF
3FFF
7030
6010
C018
C018
C008
C00C
C018
C018
E018
7078
7FF0
3FE0
1F80
ENDCHAR
STARTCHAR tau
ENCODING 964
SWIDTH 392 0
DWIDTH 13 0
BBX 13 16 0 0
BITMAP
1FF8
7FF8
FFF0
8200
8200
0200
0600
0600
0600
0600
0600
0600
0620
07E0
07C0
0380
ENDCHAR
STARTCHAR upsilon
ENCODING 965
SWIDTH 491 0
DWIDTH 16 0
BBX 14 16 0 0
BITMAP
3860
7830
FC18
9C0C
180C
180C
180C
180C
100C
100C
101C
101C
1838
1FF0
0FF0
07C0
ENDCHAR
STARTCHAR phi
ENCODING 966
SWIDTH 603 0
DWIDTH 19 0
BBX 17 24 1 -7
BITMAP
010000
0E1E00
1E7F00
3C7F00
70E380
60C180
C0C080
C18080
C18080
C18180
C18180
C18180
618700
799E00
3FFC00
1FF800
03C000
018000
018000
018000
018000
01C000
01C000
010000
ENDCHAR
STARTCHAR chi
ENCODING 967
SWIDTH 462 0
DWIDTH 15 0
BBX 17 23 -1 -7
BITMAP
380780
7C0700
7E0E00
860E00
031C00
033800
033800
017000
016000
01E000
01C000
018000
03C000
07C000
064000
0E4000
1C6000
1C6000
386000
783100
703F00
F03E00
E01E00
ENDCHAR
STARTCHAR psi
ENCODING 968
SWIDTH 620 0
DWIDTH 20 0
BBX 18 31 0 -7
BITMAP
007000
007000
007000
007000
007000
007000
006000
006000
386300
7C6180
FC6180
9C60C0
1860C0
1860C0
1860C0
1860C0
1060C0
1060C0
1061C0
1861C0
1C6780
0FFF00
0FFE00
03F800
006000
006000
006000
006000
00E000
00E000
00C000
ENDCHAR
STARTCHAR omega
ENCODING 969
SWIDTH 660 0
DWIDTH 21 0
BBX 19 16 1 0
BITMAP
060600
1C0300
3C0180
7800C0
60E0C0
C0E0C0
C0E060
C0E060
C0E060
C0C060
C0C060
40C0E0
60E1C0
7FBFC0
3F3F80
1E1F00
ENDCHAR
STARTCHAR iotadieresis
ENCODING 970
SWIDTH 259 0
DWIDTH 8 0
BBX 10 22 -1 0
BITMAP
E1C0
E1C0
E1C0
E1C0
0000
0000
1C00
1C00
1C00
1C00
1C00
1C00
1800
1800
1800
1800
1800
1800
1800
1C80
0F80
0F00
ENDCHAR
STARTCHAR upsilondieresis
ENCODING 971
SWIDTH 491 0
DWIDTH 16 0
BBX 14 22 0 0
BITMAP
3870
3878
3870
3870
0000
0000
3860
7830
FC18
9C0C
180C
180C
180C
180C
100C
100C
101C
101C
1838
1FF0
0FF0
07C0
ENDCHAR
STARTCHAR omicrontonos
ENCODING 972
SWIDTH 475 0
DWIDTH 15 0
BBX 13 23 1 0
BITMAP
01C0
01C0
0180
0180
0180
0100
0000
0FC0
1FE0
3FF0
7030
6018
C018
C018
C008
C008
C018
C018
E038
7070
7FE0
3FC0
0F80
ENDCHAR
STARTCHAR upsilontonos
ENCODING 973
SWIDTH 491 0
DWIDTH 16 0
BBX 14 23 0 0
BITMAP
01C0
01C0
01C0
0180
0180
0100
0000
3860
7830
FC18
9C0C
180C
180C
180C
180C
100C
100C
101C
101C
1838
1FF0
0FF0
07C0
ENDCHAR
STARTCHAR omegatonos
ENCODING 974
SWIDTH 660 0
DWIDTH 21 0
BBX 19 23 1 0
BITMAP
007000
007000
006000
006000
006000
004000
000000
060600
1C0300
3C0180
7800C0
60E0C0
C0E0C0
C0E060
C0E060
C0E060
C0C060
C0C060
40C0E0
60E1C0
7FBFC0
3F3F80
1E1F00
ENDCHAR
STARTCHAR uni03D0
ENCODING 976
SWIDTH 438 0
DWIDTH 14 0
BBX 11 24 2 0
BITMAP
0380
0FC0
1FE0
1820
3020
2020
6020
7860
DFE0
CFC0
C380
C000
CF00
FFC0
FFC0
F060
C020
C020
E020
E020
7060
7FC0
3FC0
0F00
ENDCHAR
STARTCHAR uni03D1
ENCODING 977
SWIDTH 541 0
DWIDTH 17 0
BBX 16 24 0 0
BITMAP
03E0
07F0
0FF8
0C18
080C
080C
080C
0804
0804
0C06
0607
03FF
01FF
187E
3C02
7E06
CC06
0C06
0C06
040C
061C
07F8
07F8
01E0
ENDCHAR
STARTCHAR uni03D2
ENCODING 978
SWIDTH 616 0
DWIDTH 20 0
BBX 20 22 0 0
BITMAP
3E01E0
FF0660
078470
038870
01C860
01D800
00D000
00D000
00F000
00F000
00F000
00E000
00E000
00E000
00E000
00E000
00E000
00E000
00E000
00E000
00F000
07FE00
ENDCHAR
STARTCHAR uni03D5
ENCODING 981
SWIDTH 575 0
DWIDTH 18 0
BBX 16 30 1 -7
BITMAP
00E0
00E0
00C0
00C0
00C0
00C0
00C0
03F0
0FFC
3FFE
39CE
71C7
6183
C181
C181
C181
C181
C183
E183
718E
7FFC
3FF8
0FF0
0180
0180
0380
0380
0380
0380
0380
ENDCHAR
STARTCHAR uni03D6
ENCODING 982
SWIDTH 821 0
DWIDTH 26 0
BBX 26 16 0 0
BITMAP
1FFFFFC0
7FFFFFC0
7FFFFFC0
83000C00
86000400
06070600
040E0600
0C0E0600
0C0E0600
0C0E0600
04040600
06040E00
060E1E00
03FBFC00
03F1F800
01E0F000
ENDCHAR
STARTCHAR uni03D8
ENCODING 984
SWIDTH 627 0
DWIDTH 20 0
BBX 18 22 1 0
BITMAP
03F800
1E1E00
380700
700380
700380
F003C0
F001C0
E001C0
E001C0
F003C0
F003C0
700380
700380
380700
1E1E00
07F800
00C000
00C000
01C000
01E000
01E000
0FFC00
ENDCHAR
STARTCHAR uni03D9
ENCODING 985
SWIDTH 475 0
DWIDTH 15 0
BBX 13 23 1 -7
BITMAP
0FC0
1FE0
3FF0
7070
6018
C018
C018
C008
C008
C018
C018
C018
6030
7FE0
3FE0
0F80
0600
0600
0600
0600
0700
0700
0600
ENDCHAR
STARTCHAR uni03DA
ENCODING 986
SWIDTH 578 0
DWIDTH 19 0
BBX 16 22 1 0
BITMAP
03F1
1E1F
3807
7007
7003
7003
E001
E001
E000
E000
F000
7000
7800
3C00
1E00
07F0
0070
0070
0070
0070
00F8
03FE
ENDCHAR
STARTCHAR uni03DB
ENCODING 987
SWIDTH 490 0
DWIDTH 16 0
BBX 15 23 1 -7
BITMAP
03FE
0FFE
3FFC
7000
4000
C000
8000
8000
C000
C000
E000
7800
7E00
3F80
0FC0
03C0
00E0
0060
0060
00C0
1F80
0F00
0E00
ENDCHAR
STARTCHAR uni03DC
ENCODING 988
SWIDTH 588 0
DWIDTH 19 0
BBX 17 22 1 0
BITMAP
FFFF80
1FFF80
1C0180
1C0080
1C0080
1C0080
1C0000
1C0400
1C0400
1C0C00
1FFC00
1C0C00
1C0400
1C0400
1C0400
1C0000
1C0000
1C0000
1C0000
1C0000
3F0000
FFC000
ENDCHAR
STARTCHAR uni03DD
ENCODING 989
SWIDTH 386 0
DWIDTH 12 0
BBX 16 24 -4 -8
BITMAP
03FF
01FF
01FF
0180
0180
0180
0180
0180
0180
01BC
01FC
01BC
0100
0100
0100
0300
0300
0300
0300
0200
8600
7C00
7C00
3800
ENDCHAR
STARTCHAR uni03DE
ENCODING 990
SWIDTH 525 0
DWIDTH 17 0
BBX 15 22 1 0
BITMAP
1FC0
0700
0600
0400
0C00
1800
1800
3000
2000
6000
7FFE
FFFE
FFFC
0008
0018
0010
0030
0060
0060
00C0
01C0
07F0
ENDCHAR
STARTCHAR uni03DF
ENCODING 991
SWIDTH 434 0
DWIDTH 14 0
BBX 15 22 -1 0
BITMAP
3800
7C00
FC00
8C00
0C00
0C00
0C00
0800
0808
0870
17F0
1FF0
1F30
3020
0020
0060
0060
0060
0062
007C
007C
0038
ENDCHAR
STARTCHAR uni03E0
ENCODING 992
SWIDTH 697 0
DWIDTH 22 0
BBX 21 22 1 0
BITMAP
03C000
01C000
01E000
00E000
00F000
007000
00F800
01B800
01BC00
031C00
031E00
061E00
063E00
0C3F00
0C6700
186780
18C380
30C3C0
3181C0
6181E0
C301F0
C707F8
ENDCHAR
STARTCHAR uni03E1
ENCODING 993
SWIDTH 458 0
DWIDTH 15 0
BBX 14 31 -1 -8
BITMAP
4000
F000
FC00
7E00
1F00
0F80
0380
01C0
00E0
0060
0070
07B0
3F38
3E18
3818
000C
001C
00FC
07EC
07CC
030C
0004
0004
0004
0004
000C
000C
000C
0008
0008
0018
ENDCHAR
STARTCHAR uni03F0
ENCODING 1008
SWIDTH 504 0
DWIDTH 16 0
BBX 17 16 0 0
BITMAP
380F00
780E00
FC1E00
8C1C00
0C3800
047000
046000
04E000
05E000
07A000
0F6000
0F6000
0E3080
1C3F00
3C3F00
781E00
ENDCHAR
STARTCHAR uni03F1
ENCODING 1009
SWIDTH 467 0
DWIDTH 15 0
BBX 12 24 2 -8
BITMAP
0F80
1FC0
3FE0
6060
4030
C030
C030
8030
C030
C030
E0E0
BFE0
DFC0
C700
E000
7000
3C00
1F00
0700
0180
0100
3F00
3E00
1800
ENDCHAR
STARTCHAR uni03F4
ENCODING 1012
SWIDTH 737 0
DWIDTH 24 0
BBX 20 22 2 0
BITMAP
03F800
0F0F00
1C0380
3801C0
7001C0
7000E0
E000E0
E000F0
E00070
FFFFF0
FFFFF0
E00070
E000F0
E000F0
E000F0
F000E0
7000E0
7001C0
3801C0
1C0380
0F0E00
03F800
ENDCHAR
STARTCHAR uni03F5
ENCODING 1013
SWIDTH 380 0
DWIDTH 12 0
BBX 10 16 1 0
BITMAP
0F80
1FC0
3FC0
6040
4000
C000
C000
FF80
C200
C000
C000
6000
70C0
7FC0
3FC0
0F00
ENDCHAR
STARTCHAR uni03F6
ENCODING 1014
SWIDTH 382 0
DWIDTH 12 0
BBX 10 16 1 0
BITMAP
7C00
FF00
FF80
8180
00C0
00C0
0040
3FC0
10C0
00C0
00C0
01C0
C180
FF80
FF00
3E00
ENDCHAR
STARTCHAR uni0400
ENCODING 1024
SWIDTH 626 0
DWIDTH 20 0
BBX 18 27 1 0
BITMAP
038000
01C000
006000
003000
000000
FFFF80
1FFF80
1C0180
1C0080
1C0080
1C0080
1C0000
1C0600
1C0600
1C0600
1FFE00
1C0E00
1C0600
1C0600
1C0200
1C0000
1C0040
1C0040
1C00C0
1C01C0
1C1F80
FFFF80
ENDCHAR
STARTCHAR uni0401
ENCODING 1025
SWIDTH 626 0
DWIDTH 20 0
BBX 18 27 1 0
BITMAP
0E0C00
0E1E00
0F1E00
0E0C00
000000
FFFF80
1FFF80
1C0180
1C0080
1C0080
1C0080
1C0000
1C0600
1C0600
1C0600
1FFE00
1C0E00
1C0600
1C0600
1C0200
1C0000
1C0040
1C0040
1C00C0
1C01C0
1C1F80
FFFF80
ENDCHAR
STARTCHAR uni0402
ENCODING 1026
SWIDTH 731 0
DWIDTH 23 0
BBX 21 22 1 0
BITMAP
FFFFC0
E1C3C0
C1C0C0
81C040
81C040
81C040
01C000
01C000
01C000
01DFC0
01F1F0
01C070
01C038
01C038
01C038
01C038
01C038
01C038
01CC38
01CE30
03CE70
0FC7C0
ENDCHAR
STARTCHAR uni0403
ENCODING 1027
SWIDTH 548 0
DWIDTH 18 0
BBX 16 27 1 0
BITMAP
0070
00E0
01C0
0300
0000
FFFF
1FFF
1C03
1C03
1C03
1C01
1C01
1C00
1C00
1C00
1C00
1C00
1C00
1C00
1C00
1C00
1C00
1C00
1C00
1C00
3F00
FFC0
ENDCHAR
STARTCHAR uni0404
ENCODING 1028
SWIDTH 668 0
DWIDTH 21 0
BBX 18 22 2 0
BITMAP
03FC80
0F1F80
1C0380
380180
700180
700080
E00080
E00080
E00000
E00000
FFF800
E00000
E00000
E00000
E00000
E00000
700000
700040
380180
1E0700
0FFE00
03F800
ENDCHAR
STARTCHAR uni0405
ENCODING 1029
SWIDTH 504 0
DWIDTH 16 0
BBX 14 22 1 0
BITMAP
0FC8
38F8
7038
7018
6018
7008
7008
7800
3E00
3F00
0FC0
07F0
01F8
0078
003C
801C
C01C
C01C
C01C
E038
FC70
CFC0
ENDCHAR
STARTCHAR uni0406
ENCODING 1030
SWIDTH 357 0
DWIDTH 11 0
BBX 9 22 1 0
BITMAP
FF80
3E00
1C00
1C00
1C00
1C00
1C00
1C00
1C00
1C00
1C00
1C00
1C00
1C00
1C00
1C00
1C00
1C00
1C00
1C00
3E00
FF80
ENDCHAR
STARTCHAR uni0407
ENCODING 1031
SWIDTH 357 0
DWIDTH 11 0
BBX 11 27 0 0
BITMAP
60C0
F0E0
F1E0
60C0
0000
7FC0
1F00
0E00
0E00
0E00
0E00
0E00
0E00
0E00
0E00
0E00
0E00
0E00
0E00
0E00
0E00
0E00
0E00
0E00
0E00
1F00
7FC0
ENDCHAR
STARTCHAR uni0408
ENCODING 1032
SWIDTH 396 0
DWIDTH 13 0
BBX 12 22 0 0
BITMAP
1FF0
07C0
0380
0380
0380
0380
0380
0380
0380
0380
0380
0380
0380
0380
0380
0380
0380
0380
E380
E380
F700
7E00
ENDCHAR
STARTCHAR uni0409
ENCODING 1033
SWIDTH 924 0
DWIDTH 30 0
BBX 30 22 -1 0
BITMAP
07FFF800
00C1E000
0041C000
0041C000
0041C000
00C1C000
00C1C000
00C1C000
00C1C000
00C1FFC0
0081C1E0
0081C070
0081C038
0181C038
0181C03C
0101C03C
0301C03C
0301C038
6601C038
FE01C070
FC01C1E0
7807FF80
ENDCHAR
STARTCHAR uni040A
ENCODING 1034
SWIDTH 1013 0
DWIDTH 32 0
BBX 30 22 1 0
BITMAP
FF87FC00
3F01F800
1C00E000
1C00E000
1C00E000
1C00E000
1C00E000
1C00E000
1C00E000
1C00E000
1FFFFFE0
1C00E0F0
1C00E038
1C00E01C
1C00E01C
1C00E01C
1C00E01C
1C00E01C
1C00E01C
1C00E038
3E01E0F0
FF87FFC0
ENDCHAR
STARTCHAR uni040B
ENCODING 1035
SWIDTH 761 0
DWIDTH 24 0
BBX 23 22 1 0
BITMAP
FFFFC0
F1C3C0
C1C0C0
81C040
81C040
81C040
01C000
01C000
01C000
01C000
01DFC0
01F0E0
01C070
01C070
01C070
01C070
01C070
01C070
01C070
01C078
03E078
0FF9FE
ENDCHAR
STARTCHAR uni040C
ENCODING 1036
SWIDTH 658 0
DWIDTH 21 0
BBX 21 27 1 0
BITMAP
001C00
003800
006000
00C000
000000
FF81E0
3E03F0
1C03F0
1C0660
1C0400
1C0400
1C0C00
1C0800
1C1800
1C1000
1FF000
1C7800
1C3800
1C1C00
1C1C00
1C0E00
1C0F00
1C0700
1C0780
1C0380
3E03C0
FF81F8
ENDCHAR
STARTCHAR uni040D
ENCODING 1037
SWIDTH 780 0
DWIDTH 25 0
BBX 23 27 1 0
BITMAP
03C000
01C000
006000
003000
000000
FF83FE
3F00F8
1C0070
1C0070
1C00F0
1C01F0
1C0370
1C0270
1C0470
1C0C70
1C1870
1C3070
1C6070
1C4070
1CC070
1D8070
1F0070
1E0070
1C0070
1C0070
3E00F8
FF83FE
ENDCHAR
STARTCHAR uni040E
ENCODING 1038
SWIDTH 625 0
DWIDTH 20 0
BBX 21 30 0 0
BITMAP
010200
038700
078700
070700
030600
01FC00
000000
000000
FF03F8
7E01E0
1C00C0
1C0080
0E0180
0E0100
070300
070300
038600
038600
01C400
01CC00
00E800
00F800
007000
007000
002000
006000
184000
1FC000
1F8000
0F0000
ENDCHAR
STARTCHAR uni040F
ENCODING 1039
SWIDTH 759 0
DWIDTH 24 0
BBX 22 29 1 -7
BITMAP
FF87FC
3E01F0
1C00E0
1C00E0
1C00E0
1C00E0
1C00E0
1C00E0
1C00E0
1C00E0
1C00E0
1C00E0
1C00E0
1C00E0
1C00E0
1C00E0
1C00E0
1C00E0
1C00E0
1C00E0
1C00E0
FFFFFC
003000
003000
003000
003800
003800
007800
003000
ENDCHAR
STARTCHAR uni0410
ENCODING 1040
SWIDTH 718 0
DWIDTH 23 0
BBX 23 22 0 0
BITMAP
003000
003800
003800
007800
005C00
00DC00
00DE00
008E00
018F00
018700
030700
030780
070380
0603C0
07FFC0
0C01E0
0C01E0
1800E0
1800F0
3800F0
7800FC
FE03FE
ENDCHAR
STARTCHAR uni0411
ENCODING 1041
SWIDTH 617 0
DWIDTH 20 0
BBX 17 22 1 0
BITMAP
FFFF00
1FFF00
1C0300
1C0300
1C0100
1C0100
1C0000
1C0000
1C0000
1C0000
1FFC00
1C1E00
1C0700
1C0380
1C0380
1C0380
1C0380
1C0380
1C0380
1C0700
1C1E00
FFF800
ENDCHAR
STARTCHAR uni0412
ENCODING 1042
SWIDTH 618 0
DWIDTH 20 0
BBX 18 22 1 0
BITMAP
FFF800
1C3E00
1C0F00
1C0700
1C0780
1C0780
1C0700
1C0700
1C0600
1C1C00
1FF800
1C3E00
1C0700
1C0380
1C0380
1C03C0
1C03C0
1C03C0
1C0380
1C0780
1C1F00
FFFC00
ENDCHAR
STARTCHAR uni0413
ENCODING 1043
SWIDTH 548 0
DWIDTH 18 0
BBX 16 22 1 0
BITMAP
FFFF
1FFF
1C03
1C03
1C03
1C01
1C01
1C00
1C00
1C00
1C00
1C00
1C00
1C00
1C00
1C00
1C00
1C00
1C00
1C00
3F00
FFC0
ENDCHAR
STARTCHAR uni0414
ENCODING 1044
SWIDTH 663 0
DWIDTH 21 0
BBX 20 29 0 -7
BITMAP
0FFFF0
030380
030380
030380
030380
030380
030380
030380
030380
020380
020380
060380
060380
060380
040380
0C0380
0C0380
080380
180380
300380
7003C0
FFFFF0
E00070
C00030
C00030
C00030
800030
800030
800010
ENDCHAR
STARTCHAR uni0415
ENCODING 1045
SWIDTH 626 0
DWIDTH 20 0
BBX 18 22 1 0
BITMAP
FFFF80
1FFF80
1C0180
1C0080
1C0080
1C0080
1C0000
1C0600
1C0600
1C0600
1FFE00
1C0E00
1C0600
1C0600
1C0200
1C0000
1C0040
1C0040
1C00C0
1C01C0
1C1F80
FFFF80
ENDCHAR
STARTCHAR uni0416
ENCODING 1046
SWIDTH 937 0
DWIDTH 30 0
BBX 30 22 0 0
BITMAP
783FE078
7C0FC0F8
7E0781F8
66030198
02030100
03030300
03030300
01030200
01830600
00C30C00
007FF800
00E31C00
01C30E00
03830700
03830700
07030380
07030380
0E0301C0
0E0301C0
1C0780E0
3C07C0F0
F83FE07C
ENDCHAR
STARTCHAR uni0417
ENCODING 1047
SWIDTH 545 0
DWIDTH 17 0
BBX 15 22 1 0
BITMAP
4FE0
7C78
703C
601C
601C
401C
401C
001C
0038
0060
07E0
00F8
001C
001E
000E
000E
000E
800E
401E
703C
1FF8
07E0
ENDCHAR
STARTCHAR uni0418
ENCODING 1048
SWIDTH 780 0
DWIDTH 25 0
BBX 23 22 1 0
BITMAP
FF83FE
3F00F8
1C0070
1C0070
1C00F0
1C01F0
1C0370
1C0270
1C0470
1C0C70
1C1870
1C3070
1C6070
1C4070
1CC070
1D8070
1F0070
1E0070
1C0070
1C0070
3E00F8
FF83FE
ENDCHAR
STARTCHAR uni0419
ENCODING 1049
SWIDTH 780 0
DWIDTH 25 0
BBX 23 29 1 0
BITMAP
018300
038780
038380
038380
018300
00FE00
000000
FF83FE
3F00F8
1C0070
1C0070
1C00F0
1C01F0
1C0370
1C0270
1C0470
1C0C70
1C1870
1C3070
1C6070
1C4070
1CC070
1D8070
1F0070
1E0070
1C0070
1C0070
3E00F8
FF83FE
ENDCHAR
STARTCHAR uni041A
ENCODING 1050
SWIDTH 658 0
DWIDTH 21 0
BBX 21 22 1 0
BITMAP
FF81E0
3E03F0
1C03F0
1C0660
1C0400
1C0400
1C0C00
1C0800
1C1800
1C1000
1FF000
1C7800
1C3800
1C1C00
1C1C00
1C0E00
1C0F00
1C0700
1C0780
1C0380
3E03C0
FF81F8
ENDCHAR
STARTCHAR uni041B
ENCODING 1051
SWIDTH 684 0
DWIDTH 22 0
BBX 22 22 -1 0
BITMAP
07FFFC
00C0E0
0040E0
0040E0
0040E0
00C0E0
00C0E0
00C0E0
00C0E0
00C0E0
0080E0
0080E0
0080E0
0180E0
0180E0
0100E0
0300E0
0300E0
6600E0
FE01E0
FC01F0
7807FC
ENDCHAR
STARTCHAR uni041C
ENCODING 1052
SWIDTH 895 0
DWIDTH 29 0
BBX 26 22 1 0
BITMAP
FE000FC0
3E001F00
1F001F00
1F001E00
1F003600
1F803600
1B806600
1BC06600
19C06600
19C0C600
19E0C600
18E18600
18F18600
18710600
18730600
187B0600
183E0600
183E0600
181C0E00
181C0F00
3C0C0F00
FE083FC0
ENDCHAR
STARTCHAR uni041D
ENCODING 1053
SWIDTH 777 0
DWIDTH 25 0
BBX 23 22 1 0
BITMAP
FF83FE
3F01F8
1C00F0
1C0070
1C0070
1C0070
1C0070
1C0070
1C0070
1C0070
1FFFF0
1C0070
1C0070
1C0070
1C0070
1C0070
1C0070
1C0070
1C0070
1C0070
3E00F8
FF83FE
ENDCHAR
STARTCHAR uni041E
ENCODING 1054
SWIDTH 738 0
DWIDTH 24 0
BBX 20 22 2 0
BITMAP
03F800
0F1F00
1C0780
3803C0
7001C0
7000E0
F000E0
E000F0
E00070
E00070
E00070
E00070
E00070
E000F0
E000F0
F000E0
7000E0
7001C0
3801C0
1C0380
0F0E00
03F800
ENDCHAR
STARTCHAR uni041F
ENCODING 1055
SWIDTH 759 0
DWIDTH 24 0
BBX 22 22 1 0
BITMAP
FFFFFC
1C00F0
1C00E0
1C00E0
1C00E0
1C00E0
1C00E0
1C00E0
1C00E0
1C00E0
1C00E0
1C00E0
1C00E0
1C00E0
1C00E0
1C00E0
1C00E0
1C00E0
1C00E0
1C00E0
1E00F0
FF87FC
ENDCHAR
STARTCHAR uni0420
ENCODING 1056
SWIDTH 569 0
DWIDTH 18 0
BBX 16 22 1 0
BITMAP
7FF8
1C7E
1C0F
1C07
1C07
1C07
1C07
1C07
1C07
1C0E
1C1C
1FF0
1C00
1C00
1C00
1C00
1C00
1C00
1C00
1C00
3E00
FF80
ENDCHAR
STARTCHAR uni0421
ENCODING 1057
SWIDTH 670 0
DWIDTH 21 0
BBX 18 22 2 0
BITMAP
01FC80
0F0F80
1C0380
380180
700180
700080
E00080
E00080
E00000
E00000
E00000
E00000
E00000
E00000
E00000
F00000
700000
780040
3C00C0
1F0380
0FFE00
03F800
ENDCHAR
STARTCHAR uni0422
ENCODING 1058
SWIDTH 603 0
DWIDTH 19 0
BBX 19 22 0 0
BITMAP
7FFFE0
70E1E0
40E060
40E060
40E020
C0E020
00E000
00E000
00E000
00E000
00E000
00E000
00E000
00E000
00E000
00E000
00E000
00E000
00E000
00E000
01F000
07FC00
ENDCHAR
STARTCHAR uni0423
ENCODING 1059
SWIDTH 625 0
DWIDTH 20 0
BBX 21 22 0 0
BITMAP
FF03F8
7E01E0
1C00C0
1C0080
0E0180
0E0100
070300
070300
038600
038600
01C400
01CC00
00E800
00F800
007000
007000
002000
006000
184000
1FC000
1F8000
0F0000
ENDCHAR
STARTCHAR uni0424
ENCODING 1060
SWIDTH 725 0
DWIDTH 23 0
BBX 21 22 1 0
BITMAP
03FE00
00F800
007000
01F800
0FFFC0
3C71E0
7870F0
707070
E07038
E07038
E07038
E07038
E07038
707038
707070
3870E0
1C71C0
0FFF80
007000
007000
00F800
03FE00
ENDCHAR
STARTCHAR uni0425
ENCODING 1061
SWIDTH 664 0
DWIDTH 21 0
BBX 21 22 0 0
BITMAP
7F87F8
3F01E0
0E01C0
0F0180
078300
038200
03C600
01CC00
00F800
00F000
007000
007800
00FC00
019C00
011E00
030F00
060700
0C0780
0C03C0
1803C0
3803F0
FE0FF8
ENDCHAR
STARTCHAR uni0426
ENCODING 1062
SWIDTH 756 0
DWIDTH 24 0
BBX 22 29 1 -7
BITMAP
FF87FC
3E01F0
1C00E0
1C00E0
1C00E0
1C00E0
1C00E0
1C00E0
1C00E0
1C00E0
1C00E0
1C00E0
1C00E0
1C00E0
1C00E0
1C00E0
1C00E0
1C00E0
1C00E0
1C00E0
1C00F0
FFFFFC
00001C
00000C
00000C
00000C
00000C
000004
000004
ENDCHAR
STARTCHAR uni0427
ENCODING 1063
SWIDTH 650 0
DWIDTH 21 0
BBX 20 22 0 0
BITMAP
FF1FF0
3E0FC0
1C0780
1C0380
1C0380
1C0380
1C0380
1C0380
1C0380
1C0380
1C0380
0E0780
07FB80
000380
000380
000380
000380
000380
000380
000780
0007C0
003FF0
ENDCHAR
STARTCHAR uni0428
ENCODING 1064
SWIDTH 1053 0
DWIDTH 34 0
BBX 32 22 1 0
BITMAP
FF8FF1FF
3E07E0FC
1C038078
1C038030
1C038030
1C038030
1C038030
1C038030
1C038030
1C038030
1C038030
1C038030
1C038030
1C038030
1C038030
1C038030
1C038030
1C038030
1C038030
1C038038
1C038038
FFFFFFFF
ENDCHAR
STARTCHAR uni0429
ENCODING 1065
SWIDTH 1044 0
DWIDTH 33 0
BBX 31 29 1 -7
BITMAP
FF9FF3FE
3E07C0F8
1C038070
1C038070
1C038070
1C038070
1C038070
1C038070
1C038070
1C038070
1C038070
1C038070
1C038070
1C038070
1C038070
1C038070
1C038070
1C038070
1C038070
1C038070
1C038078
FFFFFFFE
0000000E
00000006
00000006
00000006
00000002
00000002
00000002
ENDCHAR
STARTCHAR uni042A
ENCODING 1066
SWIDTH 723 0
DWIDTH 23 0
BBX 22 22 0 0
BITMAP
7FFC00
7FF000
60E000
40E000
40E000
40E000
80E000
00E000
00E000
00E000
00FFC0
00E1F0
00E038
00E03C
00E01C
00E01C
00E01C
00E01C
00E03C
00E038
00E0F0
07FFC0
ENDCHAR
STARTCHAR uni042B
ENCODING 1067
SWIDTH 887 0
DWIDTH 28 0
BBX 26 22 1 0
BITMAP
FF807FC0
3E001F00
1C000E00
1C000E00
1C000E00
1C000E00
1C000E00
1C000E00
1C000E00
1C000E00
1FF80E00
1C3E0E00
1C0F0E00
1C070E00
1C078E00
1C038E00
1C038E00
1C078E00
1C070E00
1C0F0E00
3C3E1F00
FFF07FC0
ENDCHAR
STARTCHAR uni042C
ENCODING 1068
SWIDTH 606 0
DWIDTH 19 0
BBX 17 22 1 0
BITMAP
FF8000
3E0000
1C0000
1C0000
1C0000
1C0000
1C0000
1C0000
1C0000
1C0000
1FFC00
1C1E00
1C0700
1C0380
1C0380
1C0380
1C0380
1C0380
1C0380
1C0700
1C1E00
FFF800
ENDCHAR
STARTCHAR uni042D
ENCODING 1069
SWIDTH 667 0
DWIDTH 21 0
BBX 19 22 1 0
BITMAP
47F000
7E3E00
780F00
700780
600380
6001C0
4001C0
4001C0
0001E0
0001E0
07FFE0
0001E0
0001E0
0001C0
0001C0
0001C0
0003C0
C00380
600700
381E00
1FFC00
07F000
ENDCHAR
STARTCHAR uni042E
ENCODING 1070
SWIDTH 1042 0
DWIDTH 33 0
BBX 31 22 1 0
BITMAP
FF803F00
3E01E3C0
1C0380F0
1C070078
1C070038
1C0E001C
1C0E001C
1C1E001C
1C1C001E
1C1C001E
1FFC000E
1C1C001E
1C1C001E
1C1C001E
1C1E001C
1C0E001C
1C0E001C
1C070038
1C070030
1C038070
3E01E1C0
FF803F00
ENDCHAR
STARTCHAR uni042F
ENCODING 1071
SWIDTH 654 0
DWIDTH 21 0
BBX 19 22 0 0
BITMAP
00FFE0
07C380
0F0380
0E0380
1E0380
1C0380
1C0380
1E0380
0E0380
0F0380
078380
01FF80
01E380
03C380
038380
078380
070380
0F0380
0E0380
1E0380
7C07C0
FC1FE0
ENDCHAR
STARTCHAR uni0430
ENCODING 1072
SWIDTH 480 0
DWIDTH 15 0
BBX 14 16 1 0
BITMAP
0F80
31C0
70E0
70E0
7060
0060
0060
07E0
1C60
3060
6060
E060
E060
E0E4
737C
3C78
ENDCHAR
STARTCHAR uni0431
ENCODING 1073
SWIDTH 520 0
DWIDTH 17 0
BBX 15 24 1 0
BITMAP
0004
001C
01F8
07F0
1FC0
3C00
3000
6000
67E0
4C70
D838
F01C
F01C
F01C
E00C
E00E
E00E
600C
701C
701C
3018
3838
1E70
07C0
ENDCHAR
STARTCHAR uni0432
ENCODING 1074
SWIDTH 505 0
DWIDTH 16 0
BBX 14 16 1 0
BITMAP
FFE0
3878
3838
381C
3818
3838
3870
3FC0
3870
3838
381C
381C
381C
381C
3878
FFE0
ENDCHAR
STARTCHAR uni0433
ENCODING 1075
SWIDTH 429 0
DWIDTH 14 0
BBX 12 16 1 0
BITMAP
FFF0
3870
3830
3810
3810
3810
3800
3800
3800
3800
3800
3800
3800
3800
7C00
FF00
ENDCHAR
STARTCHAR uni0434
ENCODING 1076
SWIDTH 530 0
DWIDTH 17 0
BBX 16 22 0 -6
BITMAP
1FFF
061C
061C
061C
061C
041C
041C
041C
041C
0C1C
081C
081C
181C
301C
701C
FFFF
E007
C003
C003
C001
8001
8001
ENDCHAR
STARTCHAR uni0435
ENCODING 1077
SWIDTH 464 0
DWIDTH 15 0
BBX 13 16 1 0
BITMAP
0F80
18E0
3070
6070
6030
E038
FFF8
E000
E000
E000
E000
7008
7010
3C30
1FE0
0F80
ENDCHAR
STARTCHAR uni0436
ENCODING 1078
SWIDTH 754 0
DWIDTH 24 0
BBX 24 16 0 0
BITMAP
707E0E
783C1F
7C183F
241822
061820
061860
0318C0
03FFC0
0399C0
0718E0
0E1870
0E1870
1C1838
1C1838
383C1C
F87E1F
ENDCHAR
STARTCHAR uni0437
ENCODING 1079
SWIDTH 435 0
DWIDTH 14 0
BBX 12 16 1 0
BITMAP
5F80
F1C0
C0E0
C0E0
80E0
00E0
01C0
0F00
03C0
00E0
0060
0070
0070
80E0
61C0
1F00
ENDCHAR
STARTCHAR uni0438
ENCODING 1080
SWIDTH 609 0
DWIDTH 19 0
BBX 17 16 1 0
BITMAP
FE3F80
3C0F00
380E00
380E00
381E00
383E00
386E00
384E00
388E00
390E00
3A0E00
3C0E00
380E00
380E00
7C0F00
FE3F80
ENDCHAR
STARTCHAR uni0439
ENCODING 1081
SWIDTH 609 0
DWIDTH 19 0
BBX 17 23 1 0
BITMAP
0C1C00
1E1C00
1C1C00
0C1C00
07F000
000000
000000
FE3F80
3C0F00
380E00
380E00
381E00
383E00
386E00
384E00
388E00
390E00
3A0E00
3C0E00
380E00
380E00
7C0F00
FE3F80
ENDCHAR
STARTCHAR uni043A
ENCODING 1082
SWIDTH 521 0
DWIDTH 17 0
BBX 16 16 1 0
BITMAP
FE1E
3C3E
383E
3864
3860
3840
38C0
3F80
39C0
38E0
38E0
3870
3870
3838
3C3C
FE1F
ENDCHAR
STARTCHAR uni043B
ENCODING 1083
SWIDTH 553 0
DWIDTH 18 0
BBX 17 16 0 0
BITMAP
0FFF80
030E00
030C00
030C00
030C00
020C00
020C00
020C00
020C00
060C00
040C00
040C00
0C0C00
F80C00
F81E00
F07F80
ENDCHAR
STARTCHAR uni043C
ENCODING 1084
SWIDTH 697 0
DWIDTH 22 0
BBX 20 16 1 0
BITMAP
F801F0
7C03E0
3C03C0
2E03C0
2E07C0
2F05C0
270DC0
2709C0
2399C0
2399C0
21D1C0
21F1C0
20E1C0
20E1C0
70C1E0
FC47F0
ENDCHAR
STARTCHAR uni043D
ENCODING 1085
SWIDTH 605 0
DWIDTH 19 0
BBX 17 16 1 0
BITMAP
FE3F80
3C0F00
380E00
380E00
380E00
380E00
380E00
3FFE00
380E00
380E00
380E00
380E00
380E00
380E00
3C0F00
FE3F80
ENDCHAR
STARTCHAR uni043E
ENCODING 1086
SWIDTH 514 0
DWIDTH 16 0
BBX 14 16 1 0
BITMAP
0FC0
1CF0
3038
7018
601C
E01C
E01C
E01C
E01C
E01C
E01C
701C
7018
3838
1C70
0FC0
ENDCHAR
STARTCHAR uni043F
ENCODING 1087
SWIDTH 591 0
DWIDTH 19 0
BBX 17 16 1 0
BITMAP
FFFF80
380E00
380E00
380E00
380E00
380E00
380E00
380E00
380E00
380E00
380E00
380E00
380E00
380E00
3C1E00
FE3F80
ENDCHAR
STARTCHAR uni0440
ENCODING 1088
SWIDTH 537 0
DWIDTH 17 0
BBX 15 23 1 -7
BITMAP
38F0
FBF8
3E3C
381C
380E
380E
380E
380E
380E
380E
380E
380C
381C
3C18
3E70
3FE0
3800
3800
3800
3800
3800
7C00
FF00
ENDCHAR
STARTCHAR uni0441
ENCODING 1089
SWIDTH 446 0
DWIDTH 14 0
BBX 13 16 1 0
BITMAP
0FC0
1CE0
3070
6070
6030
E000
E000
E000
E000
E000
E000
F008
7010
7C70
3FE0
0F80
ENDCHAR
STARTCHAR uni0442
ENCODING 1090
SWIDTH 456 0
DWIDTH 15 0
BBX 14 16 0 0
BITMAP
FFFC
F39C
C384
C384
8384
8384
0380
0380
0380
0380
0380
0380
0380
0380
0780
1FE0
ENDCHAR
STARTCHAR uni0443
ENCODING 1091
SWIDTH 483 0
DWIDTH 15 0
BBX 16 23 0 -7
BITMAP
FC3F
780E
380C
3808
3C18
1C18
1C10
0E30
0E30
0720
0760
0340
03C0
01C0
0180
0180
0100
0300
0300
0600
F600
FC00
7800
ENDCHAR
STARTCHAR uni0444
ENCODING 1092
SWIDTH 710 0
DWIDTH 23 0
BBX 21 31 1 -7
BITMAP
001000
01F000
01F000
007000
007000
007000
007000
007000
0F7780
39F8E0
30F060
707070
607070
E07070
E07030
E07038
E07030
E07030
E07070
607070
707070
70F060
39F8C0
1F7780
007000
007000
007000
007000
007000
00F000
01FC00
ENDCHAR
STARTCHAR uni0445
ENCODING 1093
SWIDTH 479 0
DWIDTH 15 0
BBX 15 16 0 0
BITMAP
FE3E
3C1C
1C18
1C30
0E20
0740
0780
0380
03C0
06E0
04E0
0C70
1878
3038
703E
F87E
ENDCHAR
STARTCHAR uni0446
ENCODING 1094
SWIDTH 590 0
DWIDTH 19 0
BBX 17 22 1 -6
BITMAP
FE3F80
3C1E00
380C00
380C00
380C00
380C00
380C00
380C00
380C00
380C00
380C00
380C00
380C00
380C00
381E00
FFFF80
000380
000180
000180
000180
000080
000080
ENDCHAR
STARTCHAR uni0447
ENCODING 1095
SWIDTH 535 0
DWIDTH 17 0
BBX 16 16 0 0
BITMAP
FE7F
781E
381C
381C
381C
381C
381C
381C
1C3C
0FFC
001C
001C
001C
001C
001E
007F
ENDCHAR
STARTCHAR uni0448
ENCODING 1096
SWIDTH 812 0
DWIDTH 26 0
BBX 24 16 1 0
BITMAP
FE7E7F
3C3C3E
38181C
38181C
38181C
38181C
38181C
38181C
38181C
38181C
38181C
38181C
38181C
38181C
383C3E
FFFFFF
ENDCHAR
STARTCHAR uni0449
ENCODING 1097
SWIDTH 814 0
DWIDTH 26 0
BBX 24 22 1 -6
BITMAP
FE7E7F
3C3C3E
38181C
38181C
38181C
38181C
38181C
38181C
38181C
38181C
38181C
38181C
38181C
38181C
383C3C
FFFFFF
000007
000003
000003
000001
000001
000001
ENDCHAR
STARTCHAR uni044A
ENCODING 1098
SWIDTH 568 0
DWIDTH 18 0
BBX 17 16 0 0
BITMAP
7FE000
F38000
C38000
C38000
838000
838000
038000
03FE00
038F00
038380
038380
038380
038380
038380
038F00
0FFC00
ENDCHAR
STARTCHAR uni044B
ENCODING 1099
SWIDTH 728 0
DWIDTH 23 0
BBX 21 16 1 0
BITMAP
FE03F8
3C00F0
3800E0
3800E0
3800E0
3800E0
3800E0
3FE0E0
38F0E0
3838E0
3838E0
3818E0
3838E0
3838E0
78F0F0
FFC3F8
ENDCHAR
STARTCHAR uni044C
ENCODING 1100
SWIDTH 489 0
DWIDTH 16 0
BBX 14 16 1 0
BITMAP
FE00
3C00
3800
3800
3800
3800
3800
3FE0
3878
3838
381C
381C
381C
3838
3870
FFE0
ENDCHAR
STARTCHAR uni044D
ENCODING 1101
SWIDTH 467 0
DWIDTH 15 0
BBX 13 16 1 0
BITMAP
5F80
F1C0
C060
C070
8030
0038
0038
0FF8
0038
0038
0038
0070
8070
C0E0
71C0
1F80
ENDCHAR
STARTCHAR uni044E
ENCODING 1102
SWIDTH 774 0
DWIDTH 25 0
BBX 23 16 1 0
BITMAP
FE07E0
3C1E70
383838
38301C
38701C
38700C
38700E
3FF00E
38700E
38700E
38700C
38701C
38301C
383818
3C1E70
FE07C0
ENDCHAR
STARTCHAR uni044F
ENCODING 1103
SWIDTH 518 0
DWIDTH 17 0
BBX 16 16 0 0
BITMAP
07FF
1E1C
3818
3818
3818
3818
3818
1E18
07F8
0798
0718
0E18
1E18
1C18
3C3C
F8FF
ENDCHAR
STARTCHAR uni0450
ENCODING 1104
SWIDTH 464 0
DWIDTH 15 0
BBX 13 22 1 0
BITMAP
1C00
0E00
0600
0300
0100
0000
0F80
18E0
3070
6070
6030
E038
FFF8
E000
E000
E000
E000
7008
7010
3C30
1FE0
0F80
ENDCHAR
STARTCHAR uni0451
ENCODING 1105
SWIDTH 464 0
DWIDTH 15 0
BBX 13 22 1 0
BITMAP
3060
78F0
78F0
3060
0000
0000
0F80
18E0
3070
6070
6030
E038
FFF8
E000
E000
E000
E000
7008
7010
3C30
1FE0
0F80
ENDCHAR
STARTCHAR uni0452
ENCODING 1106
SWIDTH 563 0
DWIDTH 18 0
BBX 15 31 1 -7
BITMAP
0800
F800
F800
3800
3800
FFC0
3800
3800
38F0
39F8
3F3C
3C1C
380C
380E
380E
380E
380E
380E
380E
380E
380E
380E
7C0C
FE0C
000C
000C
000C
0418
0718
07F0
03E0
ENDCHAR
STARTCHAR uni0453
ENCODING 1107
SWIDTH 429 0
DWIDTH 14 0
BBX 12 22 1 0
BITMAP
0380
0380
0700
0600
0C00
0000
FFF0
3870
3830
3810
3810
3810
3800
3800
3800
3800
3800
3800
3800
3800
7C00
FF00
ENDCHAR
STARTCHAR uni0454
ENCODING 1108
SWIDTH 460 0
DWIDTH 15 0
BBX 13 16 1 0
BITMAP
07C0
18F0
3070
7038
6010
E000
E000
FFC0
E000
E000
E000
7000
7008
3830
3FE0
0FC0
ENDCHAR
STARTCHAR uni0455
ENCODING 1109
SWIDTH 394 0
DWIDTH 13 0
BBX 11 16 1 0
BITMAP
1F40
71C0
60C0
E0C0
E040
F000
7C00
3F00
1F80
07C0
81E0
80E0
C0E0
C0C0
F1C0
9F00
ENDCHAR
STARTCHAR uni0456
ENCODING 1110
SWIDTH 285 0
DWIDTH 9 0
BBX 7 22 1 0
BITMAP
38
38
38
38
00
00
38
F8
38
38
38
38
38
38
38
38
38
38
38
38
3C
FE
ENDCHAR
STARTCHAR uni0457
ENCODING 1111
SWIDTH 285 0
DWIDTH 9 0
BBX 10 22 -1 0
BITMAP
6180
F3C0
F3C0
6180
0000
0000
0E00
3E00
0E00
0E00
0E00
0E00
0E00
0E00
0E00
0E00
0E00
0E00
0E00
0E00
0F00
3F80
ENDCHAR
STARTCHAR uni0458
ENCODING 1112
SWIDTH 263 0
DWIDTH 8 0
BBX 9 29 -3 -7
BITMAP
0380
0380
0380
0380
0000
0000
0380
0F80
0380
0380
0380
0380
0380
0380
0380
0380
0380
0380
0380
0380
0380
0380
0380
0380
0380
4300
E300
F600
7C00
ENDCHAR
STARTCHAR uni0459
ENCODING 1113
SWIDTH 742 0
DWIDTH 24 0
BBX 23 16 0 0
BITMAP
0FFF00
031C00
031C00
031C00
031C00
021C00
021C00
021FF0
021C3C
061C1E
041C0E
041C0E
0C1C0E
F81C1C
F81C3C
F07FF0
ENDCHAR
STARTCHAR uni045A
ENCODING 1114
SWIDTH 790 0
DWIDTH 25 0
BBX 24 16 1 0
BITMAP
FE3F80
3C0F00
380E00
380E00
380E00
380E00
380E00
3FFFF8
380E1E
380E0E
380E07
380E07
380E07
380E0E
3C0E1C
FE3FF8
ENDCHAR
STARTCHAR uni045B
ENCODING 1115
SWIDTH 579 0
DWIDTH 19 0
BBX 17 24 1 0
BITMAP
080000
F80000
F80000
380000
380000
FFC000
380000
380000
38F000
3BF800
3F3C00
3C1C00
380C00
380C00
380C00
380C00
380C00
380C00
380C00
380C00
380C00
380E00
7C1E00
FE7F80
ENDCHAR
STARTCHAR uni045C
ENCODING 1116
SWIDTH 521 0
DWIDTH 17 0
BBX 16 22 1 0
BITMAP
01E0
01C0
0180
0300
0600
0000
FE1E
3C3E
383E
3864
3860
3840
38C0
3F80
39C0
38E0
38E0
3870
3870
3838
3C3C
FE1F
ENDCHAR
STARTCHAR uni045D
ENCODING 1117
SWIDTH 609 0
DWIDTH 19 0
BBX 17 22 1 0
BITMAP
070000
030000
038000
018000
00C000
000000
FE3F80
3C0F00
380E00
380E00
381E00
383E00
386E00
384E00
388E00
390E00
3A0E00
3C0E00
380E00
380E00
7C0F00
FE3F80
ENDCHAR
STARTCHAR uni045E
ENCODING 1118
SWIDTH 483 0
DWIDTH 15 0
BBX 16 30 0 -7
BITMAP
1C38
1C3C
1C1C
1C18
07F0
0000
0000
FC3F
780E
380C
3808
3C18
1C18
1C10
0E30
0E30
0720
0720
0340
03C0
03C0
0180
0180
0180
0100
0300
0200
F600
FC00
7800
ENDCHAR
STARTCHAR uni045F
ENCODING 1119
SWIDTH 587 0
DWIDTH 19 0
BBX 17 22 1 -6
BITMAP
FE3F80
3C1F00
380E00
380E00
380E00
380E00
380E00
380E00
380E00
380E00
380E00
380E00
380E00
380E00
381E00
FFFF80
008000
018000
01C000
01C000
01C000
01C000
ENDCHAR
STARTCHAR uni0462
ENCODING 1122
SWIDTH 727 0
DWIDTH 23 0
BBX 21 24 1 0
BITMAP
0FF800
03E000
01C000
01C000
FFFFE0
E1C0E0
81C060
81C020
81C020
81C020
01C000
01C000
01FF80
01C3E0
01C0F0
01C078
01C078
01C038
01C038
01C078
01C070
01C0F0
03C3E0
0FFF80
ENDCHAR
STARTCHAR uni0463
ENCODING 1123
SWIDTH 561 0
DWIDTH 18 0
BBX 17 24 0 0
BITMAP
010000
0F0000
1F0000
030000
030000
030000
030000
030000
FFFC00
E31C00
C30400
C30400
830400
030000
030000
03FE00
030F00
030380
030380
030380
030380
030380
070F00
0FFC00
ENDCHAR
STARTCHAR uni046A
ENCODING 1130
SWIDTH 881 0
DWIDTH 28 0
BBX 30 22 -1 0
BITMAP
03FFFF00
01C00600
01E00600
00F00C00
00701800
00781800
00383000
001C6000
001E6000
000EC000
00078000
003FF800
00F33C00
01E30E00
01C30F00
03830700
07830780
07030380
0F0303C0
0E0381E0
3E0781F0
FC1FE0FC
ENDCHAR
STARTCHAR uni046B
ENCODING 1131
SWIDTH 667 0
DWIDTH 21 0
BBX 23 16 -1 0
BITMAP
0FFFC0
0700C0
038180
01C100
01E300
00E600
007400
003C00
01FF80
03B9C0
0739C0
0738E0
0E38E0
1C3870
1C3878
FCFE3E
ENDCHAR
STARTCHAR uni0472
ENCODING 1138
SWIDTH 737 0
DWIDTH 24 0
BBX 20 22 2 0
BITMAP
03F800
0F0F00
1C0380
3801C0
7001C0
7000E0
E000E0
E000F0
E38070
EFE070
F1F9F0
E07F70
E03C70
E00070
E000F0
E000E0
7000E0
7001C0
3801C0
1C0380
0F0E00
03F800
ENDCHAR
STARTCHAR uni0473
ENCODING 1139
SWIDTH 514 0
DWIDTH 16 0
BBX 14 16 1 0
BITMAP
07C0
1CF0
3038
7018
601C
E01C
EF1C
F7FC
E1DC
E01C
E01C
701C
7018
3838
1C70
0FC0
ENDCHAR
STARTCHAR uni0474
ENCODING 1140
SWIDTH 705 0
DWIDTH 23 0
BBX 23 22 0 0
BITMAP
FF001E
7E003E
3C007E
1C0064
1E00C0
0E00C0
0E0080
0F0180
070180
078300
038300
03C300
03C600
01C600
01E400
00EC00
00EC00
007800
007800
007800
003000
003000
ENDCHAR
STARTCHAR uni0475
ENCODING 1141
SWIDTH 520 0
DWIDTH 17 0
BBX 18 16 0 0
BITMAP
FC0780
780FC0
380F80
381880
381800
1C1000
1C3000
0E3000
0E2000
0E6000
074000
074000
034000
038000
038000
018000
ENDCHAR
STARTCHAR uni0490
ENCODING 1168
SWIDTH 525 0
DWIDTH 17 0
BBX 16 27 1 0
BITMAP
0001
0003
0003
0003
0006
FFFE
1FFE
1C00
1C00
1C00
1C00
1C00
1C00
1C00
1C00
1C00
1C00
1C00
1C00
1C00
1C00
1C00
1C00
1C00
1C00
3F00
FFC0
ENDCHAR
STARTCHAR uni0491
ENCODING 1169
SWIDTH 404 0
DWIDTH 13 0
BBX 12 20 1 0
BITMAP
0010
0030
0030
0070
FFF0
3800
3800
3800
3800
3800
3800
3800
3800
3800
3800
3800
3800
3800
3C00
FF00
ENDCHAR
STARTCHAR uni1D00
ENCODING 7424
SWIDTH 511 0
DWIDTH 16 0
BBX 18 16 -1 0
BITMAP
00C000
00E000
01E000
01E000
037000
027000
023800
063800
043800
0C1C00
0FFC00
181E00
180E00
100F00
300F80
FC1FC0
ENDCHAR
STARTCHAR uni1D07
ENCODING 7431
SWIDTH 495 0
DWIDTH 16 0
BBX 14 16 1 0
BITMAP
FFF8
3838
3808
3808
3800
3820
3820
3FE0
3860
3820
3820
3800
380C
380C
3838
FFF8
ENDCHAR
STARTCHAR uni1D1C
ENCODING 7452
SWIDTH 584 0
DWIDTH 19 0
BBX 17 16 1 0
BITMAP
FE1F80
780700
380600
380600
380600
380600
380600
380600
380600
380600
380600
380600
380400
180400
1E1800
07F000
ENDCHAR
STARTCHAR uni1D81
ENCODING 7553
SWIDTH 539 0
DWIDTH 17 0
BBX 15 31 1 -7
BITMAP
0018
00F8
0038
0038
0018
0018
0018
0018
07D8
1C78
3038
7038
6018
E018
E018
E018
E018
E018
E018
E018
7018
7878
3FDE
1F1E
0002
0002
0002
0002
0062
0076
003C
ENDCHAR
STARTCHAR uni1D84
ENCODING 7556
SWIDTH 542 0
DWIDTH 17 0
BBX 16 31 1 -7
BITMAP
3800
F800
3800
3800
3800
3800
3800
3800
38FE
3878
3870
3860
3880
3900
3A00
3F00
3B80
39C0
39E0
38F0
3878
3838
7C3E
FE7F
0001
0001
0001
0001
0071
0032
003C
ENDCHAR
STARTCHAR uni1D85
ENCODING 7557
SWIDTH 283 0
DWIDTH 9 0
BBX 7 31 1 -7
BITMAP
38
F8
38
38
38
38
38
38
38
38
38
38
38
38
38
38
38
38
38
38
38
38
3C
FE
02
02
02
02
62
64
38
ENDCHAR
STARTCHAR uni1D8A
ENCODING 7562
SWIDTH 395 0
DWIDTH 13 0
BBX 11 23 1 -7
BITMAP
1F40
71C0
60C0
E0C0
E040
F000
7C00
3F00
1F80
07C0
81E0
80E0
C0E0
C0C0
F1C0
9FC0
00C0
00C0
00C0
00C0
18C0
1D80
0F00
ENDCHAR
STARTCHAR uni1D8D
ENCODING 7565
SWIDTH 479 0
DWIDTH 15 0
BBX 15 23 0 -7
BITMAP
FE3E
3C1C
1C18
1C30
0E20
0740
0780
0380
03C0
06E0
04E0
0C70
1878
3038
703E
F87E
0002
0002
0002
0002
0062
0066
003C
ENDCHAR
STARTCHAR uni1D8E
ENCODING 7566
SWIDTH 458 0
DWIDTH 15 0
BBX 13 23 1 -7
BITMAP
7FF0
6070
40E0
40E0
C1C0
0380
0380
0700
0F00
0E00
1C00
3C18
3810
7010
F070
FFF0
0010
0010
0010
0010
0710
0320
03C0
ENDCHAR
STARTCHAR uni1D98
ENCODING 7576
SWIDTH 368 0
DWIDTH 12 0
BBX 15 31 0 -7
BITMAP
007C
00DE
018E
0184
0180
0380
0380
0380
0380
0380
0380
0380
0380
0380
0380
0380
0380
0380
0380
0380
0380
E380
F300
FE00
C000
C000
C000
4200
4600
6E00
3C00
ENDCHAR
STARTCHAR uni1D9B
ENCODING 7579
SWIDTH 462 0
DWIDTH 15 0
BBX 14 13 0 8
BITMAP
F9E0
3FF0
3838
3818
381C
381C
381C
381C
3818
3818
3830
3C60
37C0
ENDCHAR
STARTCHAR uni1DA3
ENCODING 7587
SWIDTH 488 0
DWIDTH 16 0
BBX 14 18 1 3
BITMAP
FCFC
7070
3030
3030
3030
3030
3030
3030
3030
3030
38F0
3FB0
1E30
0030
0030
0030
0030
003C
ENDCHAR
STARTCHAR uni1E00
ENCODING 7680
SWIDTH 718 0
DWIDTH 23 0
BBX 23 30 0 -8
BITMAP
003000
003800
003800
007800
005C00
00DC00
00DE00
008E00
018F00
018700
030700
030780
070380
0603C0
07FFC0
0C01E0
0C01E0
1800E0
1800F0
3800F0
7800FC
FE03FE
000000
000000
007800
00CC00
018400
018400
008C00
00F800
ENDCHAR
STARTCHAR uni1E01
ENCODING 7681
SWIDTH 480 0
DWIDTH 15 0
BBX 14 24 1 -8
BITMAP
0F80
31C0
70E0
70E0
7060
0060
0060
07E0
1C60
3060
6060
E060
E060
E0E4
737C
3C78
0000
0000
0F00
1980
18C0
18C0
1880
0F80
ENDCHAR
STARTCHAR uni1E02
ENCODING 7682
SWIDTH 618 0
DWIDTH 20 0
BBX 18 27 1 0
BITMAP
01C000
01C000
01C000
01C000
000000
FFF800
1C3E00
1C0F00
1C0700
1C0780
1C0780
1C0700
1C0700
1C0600
1C1C00
1FF800
1C3E00
1C0700
1C0380
1C0380
1C03C0
1C03C0
1C03C0
1C0380
1C0780
1C1F00
FFFC00
ENDCHAR
STARTCHAR uni1E03
ENCODING 7683
SWIDTH 522 0
DWIDTH 17 0
BBX 16 28 0 0
BITMAP
0180
03C0
03C0
0180
0800
7800
F800
1800
1800
1800
1800
1800
18F0
19FC
1A3C
1C0E
180E
180E
1807
1807
1807
1806
180E
180E
180C
181C
1E38
0FE0
ENDCHAR
STARTCHAR uni1E04
ENCODING 7684
SWIDTH 618 0
DWIDTH 20 0
BBX 18 28 1 -6
BITMAP
FFF800
1C3E00
1C0F00
1C0700
1C0780
1C0780
1C0700
1C0700
1C0600
1C1C00
1FF800
1C3E00
1C0700
1C0380
1C0380
1C03C0
1C03C0
1C03C0
1C0380
1C0780
1C1F00
FFFC00
000000
000000
01C000
01C000
01C000
01C000
ENDCHAR
STARTCHAR uni1E05
ENCODING 7685
SWIDTH 522 0
DWIDTH 17 0
BBX 16 30 0 -6
BITMAP
0800
7800
F800
1800
1800
1800
1800
1800
18F0
19FC
1A3C
1C0E
180E
180E
1807
1807
1807
1806
180E
180E
180C
181C
1E38
0FE0
0000
0000
0180
03C0
03C0
0180
ENDCHAR
STARTCHAR uni1E06
ENCODING 7686
SWIDTH 618 0
DWIDTH 20 0
BBX 18 26 1 -4
BITMAP
FFF800
1C3E00
1C0F00
1C0700
1C0780
1C0780
1C0700
1C0700
1C0600
1C1C00
1FF800
1C3E00
1C0700
1C0380
1C0380
1C03C0
1C03C0
1C03C0
1C0380
1C0780
1C1F00
FFFC00
000000
000000
000000
0FF800
ENDCHAR
STARTCHAR uni1E07
ENCODING 7687
SWIDTH 522 0
DWIDTH 17 0
BBX 16 28 0 -4
BITMAP
0800
7800
F800
1800
1800
1800
1800
1800
18F0
19FC
1A3C
1C0E
180E
180E
1807
1807
1807
1806
180E
180E
180C
181C
1E38
0FE0
0000
0000
0000
1FF8
ENDCHAR
STARTCHAR uni1E08
ENCODING 7688
SWIDTH 670 0
DWIDTH 21 0
BBX 18 34 2 -7
BITMAP
003C00
007000
00E000
018000
000000
01FC80
0F0F80
1C0380
380180
700180
700080
E00080
E00080
E00000
E00000
E00000
E00000
E00000
E00000
E00000
F00000
700000
780040
3C00C0
1F0380
0FFE00
03F800
008000
008000
00E000
003000
001000
023000
01E000
ENDCHAR
STARTCHAR uni1E09
ENCODING 7689
SWIDTH 446 0
DWIDTH 14 0
BBX 13 29 1 -7
BITMAP
01C0
0180
0300
0300
0600
0000
0FC0
1CE0
3070
6070
6030
E000
E000
E000
E000
E000
E000
F008
7010
7C70
3FE0
1F80
0200
0200
0780
00C0
00C0
09C0
0780
ENDCHAR
STARTCHAR uni1E0A
ENCODING 7690
SWIDTH 730 0
DWIDTH 23 0
BBX 21 27 1 0
BITMAP
006000
00F000
00F000
006000
000000
FFF800
1C3F00
1C0780
1C01C0
1C00E0
1C00F0
1C0070
1C0070
1C0078
1C0078
1C0078
1C0078
1C0078
1C0078
1C0070
1C0070
1C0070
1C00E0
1C01C0
1C0380
1C1F00
FFFC00
ENDCHAR
STARTCHAR uni1E0B
ENCODING 7691
SWIDTH 539 0
DWIDTH 17 0
BBX 15 28 1 0
BITMAP
0380
0380
0380
0380
0008
0078
00F8
0038
0018
0018
0018
0018
07D8
1C78
3038
7038
6018
E018
E018
E018
E018
E018
E018
E018
7018
7878
3FDE
1F1C
ENDCHAR
STARTCHAR uni1E0C
ENCODING 7692
SWIDTH 730 0
DWIDTH 23 0
BBX 21 28 1 -6
BITMAP
FFF800
1C3F00
1C0780
1C01C0
1C00E0
1C00F0
1C0070
1C0070
1C0078
1C0078
1C0078
1C0078
1C0078
1C0078
1C0070
1C0070
1C0070
1C00E0
1C01C0
1C0380
1C1F00
FFFC00
000000
000000
00E000
01E000
00E000
00E000
ENDCHAR
STARTCHAR uni1E0D
ENCODING 7693
SWIDTH 539 0
DWIDTH 17 0
BBX 15 30 1 -6
BITMAP
0008
0078
00F8
0038
0018
0018
0018
0018
07D8
1C78
3038
7038
6018
E018
E018
E018
E018
E018
E018
E018
7018
7878
3FDE
1F1C
0000
0000
0380
0380
0380
0380
ENDCHAR
STARTCHAR uni1E0E
ENCODING 7694
SWIDTH 730 0
DWIDTH 23 0
BBX 21 26 1 -4
BITMAP
FFF800
1C3F00
1C0780
1C01C0
1C00E0
1C00F0
1C0070
1C0070
1C0078
1C0078
1C0078
1C0078
1C0078
1C0078
1C0070
1C0070
1C0070
1C00E0
1C01C0
1C0380
1C1F00
FFFC00
000000
000000
000000
07FC00
ENDCHAR
STARTCHAR uni1E0F
ENCODING 7695
SWIDTH 539 0
DWIDTH 17 0
BBX 15 28 1 -4
BITMAP
0008
0078
00F8
0038
0018
0018
0018
0018
07D8
1C78
3038
7038
6018
E018
E018
E018
E018
E018
E018
E018
7018
7878
3FDE
1F1C
0000
0000
0000
1FF0
ENDCHAR
STARTCHAR uni1E10
ENCODING 7696
SWIDTH 730 0
DWIDTH 23 0
BBX 21 31 1 -9
BITMAP
FFF800
1C3F00
1C0780
1C01C0
1C00E0
1C00F0
1C0070
1C0070
1C0078
1C0078
1C0078
1C0078
1C0078
1C0078
1C0070
1C0070
1C0070
1C00E0
1C01C0
1C0380
1C1F00
FFFC00
000000
00E000
01E000
01E000
00E000
002000
006000
00C000
018000
ENDCHAR
STARTCHAR uni1E11
ENCODING 7697
SWIDTH 539 0
DWIDTH 17 0
BBX 15 33 1 -9
BITMAP
0008
0078
00F8
0038
0018
0018
0018
0018
07D8
1C78
3038
7038
6018
E018
E018
E018
E018
E018
E018
E018
7018
7878
3FDE
1F1C
0000
0380
03C0
03C0
03C0
00C0
0080
0100
0200
ENDCHAR
STARTCHAR uni1E12
ENCODING 7698
SWIDTH 730 0
DWIDTH 23 0
BBX 21 29 1 -7
BITMAP
FFF800
1C3F00
1C0780
1C01C0
1C00E0
1C00F0
1C0070
1C0070
1C0078
1C0078
1C0078
1C0078
1C0078
1C0078
1C0070
1C0070
1C0070
1C00E0
1C01C0
1C0380
1C1F00
FFFC00
000000
000000
00E000
01E000
03B000
031800
060C00
ENDCHAR
STARTCHAR uni1E13
ENCODING 7699
SWIDTH 539 0
DWIDTH 17 0
BBX 15 31 1 -7
BITMAP
0008
0078
00F8
0038
0018
0018
0018
0018
07D8
1C78
3038
7038
6018
E018
E018
E018
E018
E018
E018
E018
7018
7878
3FDE
1F1C
0000
0000
0380
07C0
06C0
0C60
1830
ENDCHAR
STARTCHAR uni1E14
ENCODING 7700
SWIDTH 626 0
DWIDTH 20 0
BBX 18 31 1 0
BITMAP
038000
01C000
006000
003000
000000
000000
07FC00
000000
000000
FFFF80
1FFF80
1C0180
1C0080
1C0080
1C0080
1C0000
1C0600
1C0600
1C0600
1FFE00
1C0E00
1C0600
1C0600
1C0200
1C0000
1C0040
1C0040
1C00C0
1C01C0
1C1F80
FFFF80
ENDCHAR
STARTCHAR uni1E15
ENCODING 7701
SWIDTH 464 0
DWIDTH 15 0
BBX 13 26 1 0
BITMAP
1C00
0E00
0600
0300
0100
0000
3FE0
0000
0000
0000
0F80
18E0
3070
6070
6030
E038
FFF8
E000
E000
E000
E000
7008
7010
3C30
1FE0
0F80
ENDCHAR
STARTCHAR uni1E16
ENCODING 7702
SWIDTH 626 0
DWIDTH 20 0
BBX 18 31 1 0
BITMAP
007800
00E000
01C000
030000
000000
000000
07FC00
000000
000000
FFFF80
1FFF80
1C0180
1C0080
1C0080
1C0080
1C0000
1C0600
1C0600
1C0600
1FFE00
1C0E00
1C0600
1C0600
1C0200
1C0000
1C0040
1C0040
1C00C0
1C01C0
1C1F80
FFFF80
ENDCHAR
STARTCHAR uni1E17
ENCODING 7703
SWIDTH 464 0
DWIDTH 15 0
BBX 13 26 1 0
BITMAP
01C0
0180
0380
0300
0600
0000
3FE0
0000
0000
0000
0F80
18E0
3070
6070
6030
E038
FFF8
E000
E000
E000
E000
7008
7010
3C30
1FE0
0F80
ENDCHAR
STARTCHAR uni1E18
ENCODING 7704
SWIDTH 626 0
DWIDTH 20 0
BBX 18 29 1 -7
BITMAP
FFFF80
1FFF80
1C0180
1C0080
1C0080
1C0080
1C0000
1C0600
1C0600
1C0600
1FFE00
1C0E00
1C0600
1C0600
1C0200
1C0000
1C0040
1C0040
1C00C0
1C01C0
1C1F80
FFFF80
000000
000000
00E000
01E000
03B000
031800
060C00
ENDCHAR
STARTCHAR uni1E19
ENCODING 7705
SWIDTH 464 0
DWIDTH 15 0
BBX 13 23 1 -7
BITMAP
0F80
18E0
3070
6070
6030
E038
FFF8
E000
E000
E000
E000
7008
7010
3C30
1FE0
0F80
0000
0000
0700
0780
0DC0
18C0
3020
ENDCHAR
STARTCHAR uni1E1A
ENCODING 7706
SWIDTH 626 0
DWIDTH 20 0
BBX 18 27 1 -5
BITMAP
FFFF80
1FFF80
1C0180
1C0080
1C0080
1C0080
1C0000
1C0600
1C0600
1C0600
1FFE00
1C0E00
1C0600
1C0600
1C0200
1C0000
1C0040
1C0040
1C00C0
1C01C0
1C1F80
FFFF80
000000
000000
078400
0FFC00
087800
ENDCHAR
STARTCHAR uni1E1B
ENCODING 7707
SWIDTH 464 0
DWIDTH 15 0
BBX 13 21 1 -5
BITMAP
0F80
18E0
3070
6070
6030
E038
FFF8
E000
E000
E000
E000
7008
7010
3C30
1FE0
0F80
0000
0000
1E10
3FE0
63C0
ENDCHAR
STARTCHAR uni1E1C
ENCODING 7708
SWIDTH 626 0
DWIDTH 20 0
BBX 18 35 1 -7
BITMAP
0C0400
040C00
061800
03F800
01F000
000000
FFFF80
1FFF80
1C0180
1C0080
1C0080
1C0080
1C0000
1C0600
1C0600
1C0600
1FFE00
1C0E00
1C0600
1C0600
1C0200
1C0000
1C0040
1C0040
1C00C0
1C01C0
1C1F80
FFFF80
008000
008000
00E000
003000
001000
023000
01E000
ENDCHAR
STARTCHAR uni1E1D
ENCODING 7709
SWIDTH 464 0
DWIDTH 15 0
BBX 13 29 1 -7
BITMAP
2020
3020
1860
1FC0
0F80
0000
0F80
18E0
3070
6070
6030
E038
FFF8
E000
E000
E000
E000
7008
7010
3C30
1FE0
0F80
0200
0400
0780
01C0
00C0
08C0
0F80
ENDCHAR
STARTCHAR uni1E1E
ENCODING 7710
SWIDTH 588 0
DWIDTH 19 0
BBX 17 27 1 0
BITMAP
00E000
00E000
00E000
00E000
000000
FFFF80
1FFF80
1C0180
1C0080
1C0080
1C0080
1C0000
1C0400
1C0400
1C0C00
1FFC00
1C0C00
1C0400
1C0400
1C0400
1C0000
1C0000
1C0000
1C0000
1C0000
3F0000
FFC000
ENDCHAR
STARTCHAR uni1E1F
ENCODING 7711
SWIDTH 307 0
DWIDTH 10 0
BBX 11 28 1 0
BITMAP
1800
3C00
3C00
1800
07C0
0DE0
18E0
1840
3800
3800
3800
3800
FF80
3800
3800
3800
3800
3800
3800
3800
3800
3800
3800
3800
3800
3800
7C00
FF00
ENDCHAR
STARTCHAR uni1E20
ENCODING 7712
SWIDTH 720 0
DWIDTH 23 0
BBX 20 25 2 0
BITMAP
07FE00
000000
000000
01FCC0
0F0FC0
1C03C0
3801C0
7001C0
7000C0
E000C0
E000C0
E00000
E00000
E00000
E00FF0
E003E0
E001C0
E001C0
F001C0
7001C0
7001C0
3801C0
3C03C0
0F0F80
03FC00
ENDCHAR
STARTCHAR uni1E21
ENCODING 7713
SWIDTH 484 0
DWIDTH 15 0
BBX 14 27 1 -7
BITMAP
3FE0
0000
0000
0000
0FFC
39E0
7070
7070
6070
6070
7070
7070
38E0
1FC0
2000
6000
6000
FFE0
7FF8
3FFC
201C
400C
C00C
C008
E018
F860
3F80
ENDCHAR
STARTCHAR uni1E22
ENCODING 7714
SWIDTH 777 0
DWIDTH 25 0
BBX 23 27 1 0
BITMAP
003800
003800
003800
003800
000000
FF83FE
3F01F8
1C00F0
1C0070
1C0070
1C0070
1C0070
1C0070
1C0070
1C0070
1FFFF0
1C0070
1C0070
1C0070
1C0070
1C0070
1C0070
1C0070
1C0070
1C0070
3E00F8
FF83FE
ENDCHAR
STARTCHAR uni1E23
ENCODING 7715
SWIDTH 577 0
DWIDTH 18 0
BBX 17 28 1 0
BITMAP
01C000
01C000
01C000
01C000
080000
F80000
F80000
380000
380000
380000
380000
380000
38F000
3BF800
3E3C00
3C1C00
380C00
380C00
380C00
380C00
380C00
380C00
380C00
380C00
380C00
380E00
7C1E00
FE7F80
ENDCHAR
STARTCHAR uni1E24
ENCODING 7716
SWIDTH 777 0
DWIDTH 25 0
BBX 23 28 1 -6
BITMAP
FF83FE
3F01F8
1C00F0
1C0070
1C0070
1C0070
1C0070
1C0070
1C0070
1C0070
1FFFF0
1C0070
1C0070
1C0070
1C0070
1C0070
1C0070
1C0070
1C0070
1C0070
3E00F8
FF83FE
000000
000000
003800
003800
003800
003800
ENDCHAR
STARTCHAR uni1E25
ENCODING 7717
SWIDTH 577 0
DWIDTH 18 0
BBX 17 30 1 -6
BITMAP
080000
F80000
F80000
380000
380000
380000
380000
380000
38F000
3BF800
3E3C00
3C1C00
380C00
380C00
380C00
380C00
380C00
380C00
380C00
380C00
380C00
380E00
7C1E00
FE7F80
000000
000000
01C000
01C000
01C000
01C000
ENDCHAR
STARTCHAR uni1E26
ENCODING 7718
SWIDTH 777 0
DWIDTH 25 0
BBX 23 27 1 0
BITMAP
018300
03C780
03C780
018300
000000
FF83FE
3F01F8
1C00F0
1C0070
1C0070
1C0070
1C0070
1C0070
1C0070
1C0070
1FFFF0
1C0070
1C0070
1C0070
1C0070
1C0070
1C0070
1C0070
1C0070
1C0070
3E00F8
FF83FE
ENDCHAR
STARTCHAR uni1E27
ENCODING 7719
SWIDTH 577 0
DWIDTH 18 0
BBX 17 28 1 0
BITMAP
0C1800
1E3C00
1E3C00
0C1800
080000
F80000
F80000
380000
380000
380000
380000
380000
38F000
3BF800
3E3C00
3C1C00
380C00
380C00
380C00
380C00
380C00
380C00
380C00
380C00
380C00
380E00
7C1E00
FE7F80
ENDCHAR
STARTCHAR uni1E28
ENCODING 7720
SWIDTH 777 0
DWIDTH 25 0
BBX 23 29 1 -7
BITMAP
FF83FE
3F01F8
1C00F0
1C0070
1C0070
1C0070
1C0070
1C0070
1C0070
1C0070
1FFFF0
1C0070
1C0070
1C0070
1C0070
1C0070
1C0070
1C0070
1C0070
1C0070
3E00F8
FF83FE
080000
100000
1E0000
070000
030000
270000
3E0000
ENDCHAR
STARTCHAR uni1E29
ENCODING 7721
SWIDTH 577 0
DWIDTH 18 0
BBX 17 31 1 -7
BITMAP
080000
F80000
F80000
380000
380000
380000
380000
380000
38F000
3BF800
3E3C00
3C1C00
380C00
380C00
380C00
380C00
380C00
380C00
380C00
380C00
380C00
380E00
7C1E00
FE7F80
200000
200000
3C0000
0C0000
060000
8C0000
7C0000
ENDCHAR
STARTCHAR uni1E2A
ENCODING 7722
SWIDTH 777 0
DWIDTH 25 0
BBX 23 29 1 -7
BITMAP
FF83FE
3F01F8
1C00F0
1C0070
1C0070
1C0070
1C0070
1C0070
1C0070
1C0070
1FFFF0
1C0070
1C0070
1C0070
1C0070
1C0070
1C0070
1C0070
1C0070
1C0070
3E00F8
FF83FE
000000
000000
010100
010100
018300
00FE00
007C00
ENDCHAR
STARTCHAR uni1E2B
ENCODING 7723
SWIDTH 577 0
DWIDTH 18 0
BBX 17 31 1 -7
BITMAP
080000
F80000
F80000
380000
380000
380000
380000
380000
38F000
3BF800
3E3C00
3C1C00
380C00
380C00
380C00
380C00
380C00
380C00
380C00
380C00
380C00
380E00
7C1E00
FE7F80
000000
000000
080800
081800
0C1000
07F000
03E000
ENDCHAR
STARTCHAR uni1E2C
ENCODING 7724
SWIDTH 357 0
DWIDTH 11 0
BBX 11 27 0 -5
BITMAP
7FC0
1F00
0E00
0E00
0E00
0E00
0E00
0E00
0E00
0E00
0E00
0E00
0E00
0E00
0E00
0E00
0E00
0E00
0E00
0E00
1F00
7FC0
0000
0000
3C20
7FC0
C780
ENDCHAR
STARTCHAR uni1E2D
ENCODING 7725
SWIDTH 285 0
DWIDTH 9 0
BBX 11 27 -1 -5
BITMAP
0E00
0E00
0E00
0E00
0000
0000
0E00
3E00
0E00
0E00
0E00
0E00
0E00
0E00
0E00
0E00
0E00
0E00
0E00
0E00
0F00
3F80
0000
0000
3C60
7FC0
C780
ENDCHAR
STARTCHAR uni1E2E
ENCODING 7726
SWIDTH 357 0
DWIDTH 11 0
BBX 11 31 0 0
BITMAP
0380
0700
0C00
1800
60E0
F0E0
F1E0
60C0
0000
7FC0
1F00
0E00
0E00
0E00
0E00
0E00
0E00
0E00
0E00
0E00
0E00
0E00
0E00
0E00
0E00
0E00
0E00
0E00
0E00
1F00
7FC0
ENDCHAR
STARTCHAR uni1E2F
ENCODING 7727
SWIDTH 285 0
DWIDTH 9 0
BBX 10 27 -1 0
BITMAP
0700
0700
0E00
0C00
1800
6180
F3C0
F3C0
6180
0000
0000
0E00
3E00
0E00
0E00
0E00
0E00
0E00
0E00
0E00
0E00
0E00
0E00
0E00
0E00
0F00
3F80
ENDCHAR
STARTCHAR uni1E30
ENCODING 7728
SWIDTH 702 0
DWIDTH 22 0
BBX 21 27 1 0
BITMAP
003C00
007800
00E000
018000
000000
FF8FF0
3E07C0
1C0380
1C0700
1C0600
1C0C00
1C1800
1C3000
1C4000
1C8000
1D8000
1FC000
1DE000
1CF000
1C7800
1C3C00
1C1E00
1C0F00
1C0780
1C03C0
3E03F0
FF8FF8
ENDCHAR
STARTCHAR uni1E31
ENCODING 7729
SWIDTH 542 0
DWIDTH 17 0
BBX 16 28 1 0
BITMAP
00E0
01C0
0300
0600
0800
F800
F800
3800
3800
3800
3800
3800
38FE
3878
3870
3860
3880
3900
3A00
3F00
3B80
39C0
39E0
38F0
3878
3838
7C3E
FE7F
ENDCHAR
STARTCHAR uni1E32
ENCODING 7730
SWIDTH 702 0
DWIDTH 22 0
BBX 21 28 1 -6
BITMAP
FF8FF0
3E07C0
1C0380
1C0700
1C0600
1C0C00
1C1800
1C3000
1C4000
1C8000
1D8000
1FC000
1DE000
1CF000
1C7800
1C3C00
1C1E00
1C0F00
1C0780
1C03C0
3E03F0
FF8FF8
000000
000000
007000
00F000
007000
007000
ENDCHAR
STARTCHAR uni1E33
ENCODING 7731
SWIDTH 542 0
DWIDTH 17 0
BBX 16 30 1 -6
BITMAP
0800
F800
F800
3800
3800
3800
3800
3800
38FE
3878
3870
3860
3880
3900
3A00
3F00
3B80
39C0
39E0
38F0
3878
3838
7C3E
FE7F
0000
0000
0180
03C0
03C0
0180
ENDCHAR
STARTCHAR uni1E34
ENCODING 7732
SWIDTH 702 0
DWIDTH 22 0
BBX 21 26 1 -4
BITMAP
FF8FF0
3E07C0
1C0380
1C0700
1C0600
1C0C00
1C1800
1C3000
1C4000
1C8000
1D8000
1FC000
1DE000
1CF000
1C7800
1C3C00
1C1E00
1C0F00
1C0780
1C03C0
3E03F0
FF8FF8
000000
000000
000000
03FE00
ENDCHAR
STARTCHAR uni1E35
ENCODING 7733
SWIDTH 542 0
DWIDTH 17 0
BBX 16 28 1 -4
BITMAP
0800
F800
F800
3800
3800
3800
3800
3800
38FE
3878
3870
3860
3880
3900
3A00
3F00
3B80
39C0
39E0
38F0
3878
3838
7C3E
FE7F
0000
0000
0000
1FF0
ENDCHAR
STARTCHAR uni1E36
ENCODING 7734
SWIDTH 585 0
DWIDTH 19 0
BBX 17 28 1 -6
BITMAP
FF8000
3F0000
1C0000
1C0000
1C0000
1C0000
1C0000
1C0000
1C0000
1C0000
1C0000
1C0000
1C0000
1C0000
1C0000
1C0000
1C0080
1C0180
1C0180
1C0380
1E0700
FFFF00
000000
000000
01C000
03C000
01C000
01C000
ENDCHAR
STARTCHAR uni1E37
ENCODING 7735
SWIDTH 283 0
DWIDTH 9 0
BBX 7 30 1 -6
BITMAP
08
F8
F8
38
38
38
38
38
38
38
38
38
38
38
38
38
38
38
38
38
38
38
3C
FE
00
00
38
38
38
38
ENDCHAR
STARTCHAR uni1E38
ENCODING 7736
SWIDTH 585 0
DWIDTH 19 0
BBX 17 31 1 -6
BITMAP
FFC000
000000
000000
FF8000
3F0000
1C0000
1C0000
1C0000
1C0000
1C0000
1C0000
1C0000
1C0000
1C0000
1C0000
1C0000
1C0000
1C0000
1C0000
1C0080
1C0180
1C0180
1C0380
1E0700
FFFF00
000000
000000
01C000
03C000
01C000
01C000
ENDCHAR
STARTCHAR uni1E39
ENCODING 7737
SWIDTH 283 0
DWIDTH 9 0
BBX 9 32 0 -6
BITMAP
FF80
0000
0400
7C00
7C00
1C00
1C00
1C00
1C00
1C00
1C00
1C00
1C00
1C00
1C00
1C00
1C00
1C00
1C00
1C00
1C00
1C00
1C00
1C00
1E00
7F00
0000
0000
1C00
1C00
1C00
1C00
ENDCHAR
STARTCHAR uni1E3A
ENCODING 7738
SWIDTH 585 0
DWIDTH 19 0
BBX 17 26 1 -4
BITMAP
FF8000
3F0000
1C0000
1C0000
1C0000
1C0000
1C0000
1C0000
1C0000
1C0000
1C0000
1C0000
1C0000
1C0000
1C0000
1C0000
1C0080
1C0180
1C0180
1C0380
1E0700
FFFF00
000000
000000
000000
0FF800
ENDCHAR
STARTCHAR uni1E3B
ENCODING 7739
SWIDTH 283 0
DWIDTH 9 0
BBX 9 28 0 -4
BITMAP
0400
7C00
7C00
1C00
1C00
1C00
1C00
1C00
1C00
1C00
1C00
1C00
1C00
1C00
1C00
1C00
1C00
1C00
1C00
1C00
1C00
1C00
1E00
7F00
0000
0000
0000
FF80
ENDCHAR
STARTCHAR uni1E3C
ENCODING 7740
SWIDTH 585 0
DWIDTH 19 0
BBX 17 29 1 -7
BITMAP
FF8000
3F0000
1C0000
1C0000
1C0000
1C0000
1C0000
1C0000
1C0000
1C0000
1C0000
1C0000
1C0000
1C0000
1C0000
1C0000
1C0080
1C0180
1C0180
1C0380
1E0700
FFFF00
000000
000000
01C000
03C000
036000
063000
0C1800
ENDCHAR
STARTCHAR uni1E3D
ENCODING 7741
SWIDTH 283 0
DWIDTH 9 0
BBX 9 31 0 -7
BITMAP
0400
7C00
7C00
1C00
1C00
1C00
1C00
1C00
1C00
1C00
1C00
1C00
1C00
1C00
1C00
1C00
1C00
1C00
1C00
1C00
1C00
1C00
1E00
7F00
0000
0000
1C00
3E00
3600
6300
C180
ENDCHAR
STARTCHAR uni1E3E
ENCODING 7742
SWIDTH 895 0
DWIDTH 29 0
BBX 26 27 1 0
BITMAP
00070000
000E0000
001C0000
00300000
00000000
FE000FC0
3E001F00
1F001F00
1F001E00
1F003600
1F803600
1B806600
1BC06600
19C06600
19C0C600
19E0C600
18E18600
18F18600
18710600
18730600
187B0600
183E0600
183E0600
181C0E00
181C0F00
3C0C0F00
FE083FC0
ENDCHAR
STARTCHAR uni1E3F
ENCODING 7743
SWIDTH 852 0
DWIDTH 27 0
BBX 26 22 1 0
BITMAP
00070000
00060000
000E0000
000C0000
00180000
00000000
F8F07800
3B399C00
3C1E0E00
381C0E00
381C0600
381C0600
381C0600
381C0600
381C0600
381C0600
381C0600
381C0600
381C0600
381C0E00
3C1E0F00
FE7FBFC0
ENDCHAR
STARTCHAR uni1E40
ENCODING 7744
SWIDTH 895 0
DWIDTH 29 0
BBX 26 27 1 0
BITMAP
000C0000
001E0000
001E0000
000C0000
00000000
FE000FC0
3E001F00
1F001F00
1F001E00
1F003600
1F803600
1B806600
1BC06600
19C06600
19C0C600
19E0C600
18E18600
18F18600
18710600
18730600
187B0600
183E0600
183E0600
181C0E00
181C0F00
3C0C0F00
FE083FC0
ENDCHAR
STARTCHAR uni1E41
ENCODING 7745
SWIDTH 852 0
DWIDTH 27 0
BBX 26 22 1 0
BITMAP
000C0000
001E0000
001E0000
000C0000
00000000
00000000
F8F07800
3B399C00
3C1E0E00
381C0E00
381C0600
381C0600
381C0600
381C0600
381C0600
381C0600
381C0600
381C0600
381C0600
381C0E00
3C1E0F00
FE7FBFC0
ENDCHAR
STARTCHAR uni1E42
ENCODING 7746
SWIDTH 895 0
DWIDTH 29 0
BBX 26 28 1 -6
BITMAP
FE000FC0
3E001F00
1F001F00
1F001E00
1F003600
1F803600
1B806600
1BC06600
19C06600
19C0C600
19E0C600
18E18600
18F18600
18710600
18730600
187B0600
183E0600
183E0600
181C0E00
181C0F00
3C0C0F00
FE083FC0
00000000
00000000
001C0000
001C0000
001C0000
001C0000
ENDCHAR
STARTCHAR uni1E43
ENCODING 7747
SWIDTH 852 0
DWIDTH 27 0
BBX 26 22 1 -6
BITMAP
F8F07800
3B399C00
3C1E0E00
381C0E00
381C0600
381C0600
381C0600
381C0600
381C0600
381C0600
381C0600
381C0600
381C0600
381C0E00
3C1E0F00
FE7FBFC0
00000000
00000000
000C0000
001E0000
001E0000
000C0000
ENDCHAR
STARTCHAR uni1E44
ENCODING 7748
SWIDTH 742 0
DWIDTH 24 0
BBX 22 27 1 0
BITMAP
003000
007800
007800
003000
000000
FC03FC
7C00F0
1E0060
1F0060
1F8060
1F8060
1BC060
19E060
18F060
18F060
187860
183C60
181E60
181E60
180F60
1807E0
1803E0
1803E0
1801E0
1800E0
3C0060
FE0020
ENDCHAR
STARTCHAR uni1E45
ENCODING 7749
SWIDTH 576 0
DWIDTH 18 0
BBX 17 22 1 0
BITMAP
01C000
01C000
01C000
01C000
000000
000000
38F000
FBF800
3E3C00
3C1C00
380C00
380C00
380C00
380C00
380C00
380C00
380C00
380C00
380C00
380C00
3C1E00
FE7F80
ENDCHAR
STARTCHAR uni1E46
ENCODING 7750
SWIDTH 742 0
DWIDTH 24 0
BBX 22 28 1 -6
BITMAP
FC03FC
7C00F0
1E0060
1F0060
1F8060
1F8060
1BC060
19E060
18F060
18F060
187860
183C60
181E60
181E60
180F60
1807E0
1803E0
1803E0
1801E0
1800E0
3C0060
FE0020
000000
000000
007000
007000
007000
007000
ENDCHAR
STARTCHAR uni1E47
ENCODING 7751
SWIDTH 576 0
DWIDTH 18 0
BBX 17 22 1 -6
BITMAP
38F000
FBF800
3E3C00
3C1C00
380C00
380C00
380C00
380C00
380C00
380C00
380C00
380C00
380C00
380C00
3C1E00
FE7F80
000000
000000
01C000
03C000
01C000
01C000
ENDCHAR
STARTCHAR uni1E48
ENCODING 7752
SWIDTH 742 0
DWIDTH 24 0
BBX 22 26 1 -4
BITMAP
FC03FC
7C00F0
1E0060
1F0060
1F8060
1F8060
1BC060
19E060
18F060
18F060
187860
183C60
181E60
181E60
180F60
1807E0
1803E0
1803E0
1801E0
1800E0
3C0060
FE0020
000000
000000
000000
03FE00
ENDCHAR
STARTCHAR uni1E49
ENCODING 7753
SWIDTH 576 0
DWIDTH 18 0
BBX 17 20 1 -4
BITMAP
38F000
FBF800
3E3C00
3C1C00
380C00
380C00
380C00
380C00
380C00
380C00
380C00
380C00
380C00
380C00
3C1E00
FE7F80
000000
000000
000000
0FF800
ENDCHAR
STARTCHAR uni1E4A
ENCODING 7754
SWIDTH 742 0
DWIDTH 24 0
BBX 22 29 1 -7
BITMAP
FC03FC
7C00F0
1E0060
1F0060
1F8060
1F8060
1BC060
19E060
18F060
18F060
187860
183C60
181E60
181E60
180F60
1807E0
1803E0
1803E0
1801E0
1800E0
3C0060
FE0020
000000
000000
007000
00F800
00D800
018C00
030600
ENDCHAR
STARTCHAR uni1E4B
ENCODING 7755
SWIDTH 576 0
DWIDTH 18 0
BBX 17 23 1 -7
BITMAP
38F000
FBF800
3E3C00
3C1C00
380C00
380C00
380C00
380C00
380C00
380C00
380C00
380C00
380C00
380C00
3C1E00
FE7F80
000000
000000
01C000
03C000
036000
063000
0C1800
ENDCHAR
STARTCHAR uni1E4C
ENCODING 7756
SWIDTH 738 0
DWIDTH 24 0
BBX 20 31 2 0
BITMAP
003800
007000
00E000
018000
03E200
07FE00
047C00
000000
000000
03F800
0F1F00
1C0780
3803C0
7001C0
7000E0
F000E0
E000F0
E00070
E00070
E00070
E00070
E00070
E000F0
E000F0
F000E0
7000E0
7001C0
3801C0
1C0380
0F0E00
03F800
ENDCHAR
STARTCHAR uni1E4D
ENCODING 7757
SWIDTH 514 0
DWIDTH 16 0
BBX 14 27 1 0
BITMAP
00E0
01C0
0180
0300
0200
0000
0F18
1FF0
31E0
0000
0000
0FC0
1CF0
3038
7018
601C
E01C
E01C
E01C
E01C
E01C
E01C
701C
7018
3838
1C70
0FC0
ENDCHAR
STARTCHAR uni1E4E
ENCODING 7758
SWIDTH 738 0
DWIDTH 24 0
BBX 20 31 2 0
BITMAP
060E00
070E00
0F0E00
060E00
03E200
07FE00
047C00
000000
000000
03F800
0F1F00
1C0780
3803C0
7001C0
7000E0
F000E0
E000F0
E00070
E00070
E00070
E00070
E00070
E000F0
E000F0
F000E0
7000E0
7001C0
3801C0
1C0380
0F0E00
03F800
ENDCHAR
STARTCHAR uni1E4F
ENCODING 7759
SWIDTH 514 0
DWIDTH 16 0
BBX 14 26 1 0
BITMAP
1830
3C78
3C78
1830
0000
0F18
1FF0
31E0
0000
0000
0FC0
1CF0
3038
7018
601C
E01C
E01C
E01C
E01C
E01C
E01C
701C
7018
3838
1C70
0FC0
ENDCHAR
STARTCHAR uni1E50
ENCODING 7760
SWIDTH 738 0
DWIDTH 24 0
BBX 20 31 2 0
BITMAP
03C000
00E000
007000
001800
000000
000000
07FE00
000000
000000
03F800
0F1F00
1C0780
3803C0
7001C0
7000E0
F000E0
E000F0
E00070
E00070
E00070
E00070
E00070
E000F0
E000F0
F000E0
7000E0
7001C0
3801C0
1C0380
0F0E00
03F800
ENDCHAR
STARTCHAR uni1E51
ENCODING 7761
SWIDTH 514 0
DWIDTH 16 0
BBX 14 26 1 0
BITMAP
0E00
0700
0300
0300
0180
0000
1FF0
0000
0000
0000
0FC0
1CF0
3038
7018
601C
E01C
E01C
E01C
E01C
E01C
E01C
701C
7018
3838
1C70
0FC0
ENDCHAR
STARTCHAR uni1E52
ENCODING 7762
SWIDTH 738 0
DWIDTH 24 0
BBX 20 31 2 0
BITMAP
003800
007000
00E000
018000
000000
000000
07FE00
000000
000000
03F800
0F1F00
1C0780
3803C0
7001C0
7000E0
F000E0
E000F0
E00070
E00070
E00070
E00070
E00070
E000F0
E000F0
F000E0
7000E0
7001C0
3801C0
1C0380
0F0E00
03F800
ENDCHAR
STARTCHAR uni1E53
ENCODING 7763
SWIDTH 514 0
DWIDTH 16 0
BBX 14 26 1 0
BITMAP
00E0
01C0
0180
0300
0200
0000
1FF0
0000
0000
0000
0FC0
1CF0
3038
7018
601C
E01C
E01C
E01C
E01C
E01C
E01C
701C
7018
3838
1C70
0FC0
ENDCHAR
STARTCHAR uni1E54
ENCODING 7764
SWIDTH 569 0
DWIDTH 18 0
BBX 16 27 1 0
BITMAP
00F0
01E0
0180
0700
0000
7FF8
1C7E
1C0F
1C07
1C07
1C07
1C07
1C07
1C07
1C0E
1C1C
1FF0
1C00
1C00
1C00
1C00
1C00
1C00
1C00
1C00
3E00
FF80
ENDCHAR
STARTCHAR uni1E55
ENCODING 7765
SWIDTH 537 0
DWIDTH 17 0
BBX 15 29 1 -7
BITMAP
00E0
01C0
0180
0180
0300
0000
38F0
FBF8
3E3C
381C
380E
380E
380E
380E
380E
380E
380E
380C
381C
3C18
3E70
3FE0
3800
3800
3800
3800
3800
7C00
FF00
ENDCHAR
STARTCHAR uni1E56
ENCODING 7766
SWIDTH 569 0
DWIDTH 18 0
BBX 16 27 1 0
BITMAP
01C0
01C0
01C0
01C0
0000
7FF8
1C7E
1C0F
1C07
1C07
1C07
1C07
1C07
1C07
1C0E
1C1C
1FF0
1C00
1C00
1C00
1C00
1C00
1C00
1C00
1C00
3E00
FF80
ENDCHAR
STARTCHAR uni1E57
ENCODING 7767
SWIDTH 537 0
DWIDTH 17 0
BBX 15 29 1 -7
BITMAP
0380
0380
0380
0380
0000
0000
38F0
FBF8
3E3C
381C
380E
380E
380E
380E
380E
380E
380E
380C
381C
3C18
3E70
3FE0
3800
3800
3800
3800
3800
7C00
FF00
ENDCHAR
STARTCHAR uni1E58
ENCODING 7768
SWIDTH 659 0
DWIDTH 21 0
BBX 20 27 1 0
BITMAP
00C000
01E000
01E000
00C000
000000
FFF800
1C3E00
1C0F00
1C0700
1C0700
1C0780
1C0700
1C0700
1C0700
1C0E00
1C3C00
1FF000
1CF000
1C7800
1C3C00
1C1C00
1C1E00
1C0F00
1C0700
1C0780
3E03E0
FF81F0
ENDCHAR
STARTCHAR uni1E59
ENCODING 7769
SWIDTH 380 0
DWIDTH 12 0
BBX 11 22 1 0
BITMAP
0C00
1E00
1E00
0C00
0000
0000
18C0
F9E0
3BE0
3CE0
3C00
3800
3800
3800
3800
3800
3800
3800
3800
3800
3C00
FF00
ENDCHAR
STARTCHAR uni1E5A
ENCODING 7770
SWIDTH 659 0
DWIDTH 21 0
BBX 20 28 1 -6
BITMAP
FFF800
1C3E00
1C0F00
1C0700
1C0700
1C0780
1C0700
1C0700
1C0700
1C0E00
1C3C00
1FF000
1CF000
1C7800
1C3C00
1C1C00
1C1E00
1C0F00
1C0700
1C0780
3E03E0
FF81F0
000000
000000
00E000
00E000
00E000
00E000
ENDCHAR
STARTCHAR uni1E5B
ENCODING 7771
SWIDTH 380 0
DWIDTH 12 0
BBX 11 22 1 -6
BITMAP
18C0
F9E0
3BE0
3CE0
3C00
3800
3800
3800
3800
3800
3800
3800
3800
3800
3C00
FF00
0000
0000
1800
3C00
3C00
1800
ENDCHAR
STARTCHAR uni1E5C
ENCODING 7772
SWIDTH 659 0
DWIDTH 21 0
BBX 20 31 1 -6
BITMAP
0FFC00
000000
000000
FFF800
1C3E00
1C0F00
1C0700
1C0700
1C0780
1C0700
1C0700
1C0700
1C0E00
1C3C00
1FF000
1CF000
1C7800
1C3C00
1C1C00
1C1E00
1C0F00
1C0700
1C0780
3E03E0
FF81F0
000000
000000
00E000
00E000
00E000
00E000
ENDCHAR
STARTCHAR uni1E5D
ENCODING 7773
SWIDTH 380 0
DWIDTH 12 0
BBX 11 26 1 -6
BITMAP
7FC0
0000
0000
0000
18C0
F9E0
3BE0
3CE0
3C00
3800
3800
3800
3800
3800
3800
3800
3800
3800
3C00
FF00
0000
0000
1800
3C00
3C00
1800
ENDCHAR
STARTCHAR uni1E5E
ENCODING 7774
SWIDTH 659 0
DWIDTH 21 0
BBX 20 26 1 -4
BITMAP
FFF800
1C3E00
1C0F00
1C0700
1C0700
1C0780
1C0700
1C0700
1C0700
1C0E00
1C3C00
1FF000
1CF000
1C7800
1C3C00
1C1C00
1C1E00
1C0F00
1C0700
1C0780
3E03E0
FF81F0
000000
000000
000000
07FC00
ENDCHAR
STARTCHAR uni1E5F
ENCODING 7775
SWIDTH 380 0
DWIDTH 12 0
BBX 12 20 0 -4
BITMAP
0C60
7CF0
1DF0
1E70
1E00
1C00
1C00
1C00
1C00
1C00
1C00
1C00
1C00
1C00
1E00
7F80
0000
0000
0000
FFC0
ENDCHAR
STARTCHAR uni1E60
ENCODING 7776
SWIDTH 504 0
DWIDTH 16 0
BBX 14 27 1 0
BITMAP
0300
0780
0780
0300
0000
0FC8
38F8
7038
7018
6018
7008
7008
7800
3E00
3F00
0FC0
07F0
01F8
0078
003C
801C
C01C
C01C
C01C
E038
FC70
CFC0
ENDCHAR
STARTCHAR uni1E61
ENCODING 7777
SWIDTH 394 0
DWIDTH 13 0
BBX 11 22 1 0
BITMAP
0E00
0E00
0E00
0E00
0000
0000
1F40
71C0
60C0
E0C0
E040
F000
7C00
3F00
1F80
07C0
81E0
80E0
C0E0
C0C0
F1C0
9F00
ENDCHAR
STARTCHAR uni1E62
ENCODING 7778
SWIDTH 504 0
DWIDTH 16 0
BBX 14 28 1 -6
BITMAP
0FC8
38F8
7038
7018
6018
7008
7008
7800
3E00
3F00
0FC0
07F0
01F8
0078
003C
801C
C01C
C01C
C01C
E038
FC70
CFC0
0000
0000
0300
0780
0780
0300
ENDCHAR
STARTCHAR uni1E63
ENCODING 7779
SWIDTH 394 0
DWIDTH 13 0
BBX 11 22 1 -6
BITMAP
1F40
71C0
60C0
E0C0
E040
F000
7C00
3F00
1F80
07C0
81E0
80E0
C0E0
C0C0
F1C0
9F00
0000
0000
0C00
1E00
1E00
0C00
ENDCHAR
STARTCHAR uni1E64
ENCODING 7780
SWIDTH 504 0
DWIDTH 16 0
BBX 14 28 1 0
BITMAP
1C00
1C70
1CE0
0180
0300
0000
0FC8
38F8
7038
7018
6018
7008
7008
7800
3E00
3F00
0FC0
07F0
01F8
0078
003C
801C
C01C
C01C
C01C
E038
FC70
CFC0
ENDCHAR
STARTCHAR uni1E65
ENCODING 7781
SWIDTH 394 0
DWIDTH 13 0
BBX 11 24 1 0
BITMAP
3800
3800
3B80
3380
0700
0600
0C00
0000
1F40
71C0
60C0
E0C0
E040
F000
7C00
3F00
1F80
07C0
81E0
80E0
C0E0
C0C0
F1C0
9F00
ENDCHAR
STARTCHAR uni1E66
ENCODING 7782
SWIDTH 504 0
DWIDTH 16 0
BBX 14 30 1 0
BITMAP
0300
0380
3390
1960
0CC0
0780
0380
0000
0FC8
38F8
7038
7018
6018
7008
7008
7800
3E00
3F00
0FC0
07F0
01F8
0078
003C
801C
C01C
C01C
C01C
E038
FC70
CFC0
ENDCHAR
STARTCHAR uni1E67
ENCODING 7783
SWIDTH 394 0
DWIDTH 13 0
BBX 11 25 1 0
BITMAP
0E00
0E00
0E00
6CC0
3180
1B00
1E00
0E00
0000
1F40
71C0
60C0
E0C0
E040
F000
7C00
3F00
1F80
07C0
81E0
80E0
C0E0
C0C0
F1C0
9F00
ENDCHAR
STARTCHAR uni1E68
ENCODING 7784
SWIDTH 504 0
DWIDTH 16 0
BBX 14 33 1 -6
BITMAP
0300
0780
0780
0300
0000
0FC8
38F8
7038
7018
6018
7008
7008
7800
3E00
3F00
0FC0
07F0
01F8
0078
003C
801C
C01C
C01C
C01C
E038
FC70
CFC0
0000
0000
0300
0780
0780
0300
ENDCHAR
STARTCHAR uni1E69
ENCODING 7785
SWIDTH 394 0
DWIDTH 13 0
BBX 11 28 1 -6
BITMAP
0E00
0E00
0E00
0E00
0000
0000
1F40
71C0
60C0
E0C0
E040
F000
7C00
3F00
1F80
07C0
81E0
80E0
C0E0
C0C0
F1C0
9F00
0000
0000
0C00
1E00
1E00
0C00
ENDCHAR
STARTCHAR uni1E6A
ENCODING 7786
SWIDTH 603 0
DWIDTH 19 0
BBX 19 27 0 0
BITMAP
00E000
00E000
00F000
006000
000000
7FFFE0
70E1E0
40E060
40E060
40E020
C0E020
00E000
00E000
00E000
00E000
00E000
00E000
00E000
00E000
00E000
00E000
00E000
00E000
00E000
00E000
01F000
07FC00
ENDCHAR
STARTCHAR uni1E6B
ENCODING 7787
SWIDTH 315 0
DWIDTH 10 0
BBX 9 25 1 0
BITMAP
1800
3C00
3C00
1800
0800
1800
1800
3800
7800
FF00
3800
3800
3800
3800
3800
3800
3800
3800
3800
3800
3800
3800
3880
3F00
1E00
ENDCHAR
STARTCHAR uni1E6C
ENCODING 7788
SWIDTH 603 0
DWIDTH 19 0
BBX 19 28 0 -6
BITMAP
7FFFE0
70E1E0
40E060
40E060
40E020
C0E020
00E000
00E000
00E000
00E000
00E000
00E000
00E000
00E000
00E000
00E000
00E000
00E000
00E000
00E000
01F000
07FC00
000000
000000
00E000
00F000
00E000
00E000
ENDCHAR
STARTCHAR uni1E6D
ENCODING 7789
SWIDTH 315 0
DWIDTH 10 0
BBX 9 27 1 -6
BITMAP
0800
1800
1800
3800
7800
FF00
3800
3800
3800
3800
3800
3800
3800
3800
3800
3800
3800
3800
3880
3F00
1E00
0000
0000
0C00
1E00
1E00
0C00
ENDCHAR
STARTCHAR uni1E6E
ENCODING 7790
SWIDTH 603 0
DWIDTH 19 0
BBX 19 26 0 -4
BITMAP
7FFFE0
70E1E0
40E060
40E060
40E020
C0E020
00E000
00E000
00E000
00E000
00E000
00E000
00E000
00E000
00E000
00E000
00E000
00E000
00E000
00E000
01F000
07FC00
000000
000000
000000
07FC00
ENDCHAR
STARTCHAR uni1E6F
ENCODING 7791
SWIDTH 315 0
DWIDTH 10 0
BBX 10 25 1 -4
BITMAP
0800
1800
1800
3800
7800
FF00
3800
3800
3800
3800
3800
3800
3800
3800
3800
3800
3800
3800
3880
3F00
1E00
0000
0000
0000
FFC0
ENDCHAR
STARTCHAR uni1E70
ENCODING 7792
SWIDTH 603 0
DWIDTH 19 0
BBX 19 29 0 -7
BITMAP
7FFFE0
70E1E0
40E060
40E060
40E020
C0E020
00E000
00E000
00E000
00E000
00E000
00E000
00E000
00E000
00E000
00E000
00E000
00E000
00E000
00E000
01F000
07FC00
000000
000000
00E000
00F000
01B000
031800
060C00
ENDCHAR
STARTCHAR uni1E71
ENCODING 7793
SWIDTH 315 0
DWIDTH 10 0
BBX 9 28 1 -7
BITMAP
0800
1800
1800
3800
7800
FF00
3800
3800
3800
3800
3800
3800
3800
3800
3800
3800
3800
3800
3880
3F00
1E00
0000
0000
0C00
1E00
3300
6100
C080
ENDCHAR
STARTCHAR uni1E72
ENCODING 7794
SWIDTH 752 0
DWIDTH 24 0
BBX 22 28 1 -6
BITMAP
FF81FC
7E00F8
1C0070
1C0030
1C0030
1C0020
1C0020
1C0020
1C0020
1C0020
1C0020
1C0020
1C0020
1C0020
1C0020
1C0060
1C0060
1E0060
0E00C0
0F81C0
07FF80
01FE00
000000
000000
038700
038700
038700
038700
ENDCHAR
STARTCHAR uni1E73
ENCODING 7795
SWIDTH 570 0
DWIDTH 18 0
BBX 16 22 1 -6
BITMAP
F87C
F87C
381C
381C
381C
381C
381C
381C
381C
381C
381C
381C
381C
3C3C
1FCF
0F0E
0000
0000
1C30
1C38
3C78
1838
ENDCHAR
STARTCHAR uni1E74
ENCODING 7796
SWIDTH 752 0
DWIDTH 24 0
BBX 22 27 1 -5
BITMAP
FF81FC
7E00F8
1C0070
1C0030
1C0030
1C0020
1C0020
1C0020
1C0020
1C0020
1C0020
1C0020
1C0020
1C0020
1C0020
1C0060
1C0060
1E0060
0E00C0
0F81C0
07FF80
01FE00
000000
000000
01E100
03FF00
023E00
ENDCHAR
STARTCHAR uni1E75
ENCODING 7797
SWIDTH 570 0
DWIDTH 18 0
BBX 16 21 1 -5
BITMAP
F87C
F87C
381C
381C
381C
381C
381C
381C
381C
381C
381C
381C
381C
3C3C
1FCF
0F0E
0000
0000
0F08
1FF0
31E0
ENDCHAR
STARTCHAR uni1E76
ENCODING 7798
SWIDTH 752 0
DWIDTH 24 0
BBX 22 29 1 -7
BITMAP
FF81FC
7E00F8
1C0070
1C0030
1C0030
1C0020
1C0020
1C0020
1C0020
1C0020
1C0020
1C0020
1C0020
1C0020
1C0020
1C0060
1C0060
1E0060
0E00C0
0F81C0
07FF80
01FE00
000000
000000
003800
007800
00CC00
008600
010300
ENDCHAR
STARTCHAR uni1E77
ENCODING 7799
SWIDTH 570 0
DWIDTH 18 0
BBX 16 23 1 -7
BITMAP
F87C
F87C
381C
381C
381C
381C
381C
381C
381C
381C
381C
381C
381C
3C3C
1FCF
0F0E
0000
0000
0380
03C0
06E0
0C20
1810
ENDCHAR
STARTCHAR uni1E78
ENCODING 7800
SWIDTH 752 0
DWIDTH 24 0
BBX 22 31 1 0
BITMAP
000E00
001C00
003000
006000
00F880
01FF80
011F00
000000
000000
FF81FC
7E00F8
1C0070
1C0030
1C0030
1C0020
1C0020
1C0020
1C0020
1C0020
1C0020
1C0020
1C0020
1C0020
1C0020
1C0060
1C0060
1E0060
0E00C0
0F81C0
07FF80
01FE00
ENDCHAR
STARTCHAR uni1E79
ENCODING 7801
SWIDTH 570 0
DWIDTH 18 0
BBX 16 27 1 0
BITMAP
00E0
00C0
01C0
0180
0300
0000
0F08
1FF8
11F0
0000
0000
F87C
F87C
381C
381C
381C
381C
381C
381C
381C
381C
381C
381C
381C
3C3C
1FCF
0F0E
ENDCHAR
STARTCHAR uni1E7A
ENCODING 7802
SWIDTH 752 0
DWIDTH 24 0
BBX 22 30 1 0
BITMAP
018380
03C380
03C780
018300
000000
01FF00
000000
000000
FF81FC
7E00F8
1C0070
1C0030
1C0030
1C0020
1C0020
1C0020
1C0020
1C0020
1C0020
1C0020
1C0020
1C0020
1C0020
1C0060
1C0060
1E0060
0E00C0
0F81C0
07FF80
01FE00
ENDCHAR
STARTCHAR uni1E7B
ENCODING 7803
SWIDTH 570 0
DWIDTH 18 0
BBX 16 26 1 0
BITMAP
1C30
1C38
3C78
1838
0000
0000
1FF0
0000
0000
0000
F87C
F87C
381C
381C
381C
381C
381C
381C
381C
381C
381C
381C
381C
3C3C
1FCF
0F0E
ENDCHAR
STARTCHAR uni1E7C
ENCODING 7804
SWIDTH 680 0
DWIDTH 22 0
BBX 22 27 0 0
BITMAP
01F100
03FF00
021E00
000000
000000
FF01FC
7E0078
3C0070
1C0060
1E0060
0E00C0
0E00C0
0F0080
070180
078180
038100
038300
03C200
01C600
01E600
00E400
00EC00
007800
007800
007800
003000
003000
ENDCHAR
STARTCHAR uni1E7D
ENCODING 7805
SWIDTH 481 0
DWIDTH 15 0
BBX 16 21 0 0
BITMAP
0F88
0FF8
10F0
0000
0000
FC3F
780E
380C
380C
3818
1C18
1C10
0E30
0E30
0E20
0760
0740
0340
03C0
0380
0180
ENDCHAR
STARTCHAR uni1E7E
ENCODING 7806
SWIDTH 680 0
DWIDTH 22 0
BBX 22 28 0 -6
BITMAP
FF01FC
7E0078
3C0070
1C0060
1E0060
0E00C0
0E00C0
0F0080
070180
078180
038100
038300
03C200
01C600
01E600
00E400
00EC00
007800
007800
007800
003000
003000
000000
000000
003000
007800
007800
003000
ENDCHAR
STARTCHAR uni1E7F
ENCODING 7807
SWIDTH 481 0
DWIDTH 15 0
BBX 16 22 0 -6
BITMAP
FC3F
780E
380C
380C
3818
1C18
1C10
0E30
0E30
0E20
0760
0740
0340
03C0
0380
0180
0000
0000
0380
03C0
0380
0380
ENDCHAR
STARTCHAR Wgrave
ENCODING 7808
SWIDTH 944 0
DWIDTH 30 0
BBX 30 27 0 0
BITMAP
001E0000
000F0000
00038000
0000C000
00000000
FF3FE0FC
7C0F8078
3C070030
1C078020
1C038060
1E038060
0E01C040
0F01C0C0
0703E0C0
0702E080
0786E180
0386F180
03847100
01CC7300
01C83B00
01E83A00
00F83E00
00F01E00
00F01C00
00701C00
00600C00
00200800
ENDCHAR
STARTCHAR wgrave
ENCODING 7809
SWIDTH 749 0
DWIDTH 24 0
BBX 25 22 -1 0
BITMAP
00380000
00380000
001C0000
000C0000
00060000
00000000
FE3F0F80
3C1E0780
1C0E0200
1C0E0600
1C0E0600
0E0F0400
0E0F0C00
071B0800
07138800
07139800
03B19000
03A1D000
01A1F000
01C0E000
01C0E000
00C04000
ENDCHAR
STARTCHAR Wacute
ENCODING 7810
SWIDTH 944 0
DWIDTH 30 0
BBX 30 27 0 0
BITMAP
0001C000
00038000
00060000
000C0000
00000000
FF3FE0FC
7C0F8078
3C070030
1C078020
1C038060
1E038060
0E01C040
0F01C0C0
0703E0C0
0702E080
0786E180
0386F180
03847100
01CC7300
01C83B00
01E83A00
00F83E00
00F01E00
00F01C00
00701C00
00600C00
00200800
ENDCHAR
STARTCHAR wacute
ENCODING 7811
SWIDTH 749 0
DWIDTH 24 0
BBX 25 22 -1 0
BITMAP
00070000
00070000
000E0000
000C0000
00180000
00000000
FE3F0F80
3C1E0780
1C0E0200
1C0E0600
1C0E0600
0E0F0400
0E0F0C00
071B0800
07138800
07139800
03B19000
03A1D000
01A1F000
01C0E000
01C0E000
00C04000
ENDCHAR
STARTCHAR Wdieresis
ENCODING 7812
SWIDTH 944 0
DWIDTH 30 0
BBX 30 27 0 0
BITMAP
00306000
0078F000
0078F000
00306000
00000000
FF3FE0FC
7C0F8078
3C070030
1C078020
1C038060
1E038060
0E01C040
0F01C0C0
0703E0C0
0702E080
0786E180
0386F180
03847100
01CC7300
01C83B00
01E83A00
00F83E00
00F01E00
00F01C00
00701C00
00600C00
00200800
ENDCHAR
STARTCHAR wdieresis
ENCODING 7813
SWIDTH 749 0
DWIDTH 24 0
BBX 25 22 -1 0
BITMAP
00E1C000
00E1C000
00E1C000
00E1C000
00000000
00000000
FE3F0F80
3C1E0780
1C0E0200
1C0E0600
1C0E0600
0E0F0400
0E0F0C00
071B0800
07138800
07139800
03B19000
03A1D000
01A1F000
01C0E000
01C0E000
00C04000
ENDCHAR
STARTCHAR uni1E86
ENCODING 7814
SWIDTH 944 0
DWIDTH 30 0
BBX 30 27 0 0
BITMAP
00030000
00078000
00070000
00030000
00000000
FF3FE0FC
7C0F8078
3C070030
1C078020
1C038060
1E038060
0E01C040
0F01C0C0
0703E0C0
0702E080
0786E180
0386F180
03847100
01CC7300
01C83B00
01E83A00
00F83E00
00F01E00
00F01C00
00701C00
00600C00
00200800
ENDCHAR
STARTCHAR uni1E87
ENCODING 7815
SWIDTH 749 0
DWIDTH 24 0
BBX 25 22 -1 0
BITMAP
000C0000
001E0000
001E0000
000C0000
00000000
00000000
FE3F0F80
3C1E0780
1C0E0200
1C0E0600
1C0E0600
0E0F0400
0E0F0C00
071B0800
07138800
07139800
03B19000
03A1D000
01A1F000
01C0E000
01C0E000
00C04000
ENDCHAR
STARTCHAR uni1E88
ENCODING 7816
SWIDTH 944 0
DWIDTH 30 0
BBX 30 28 0 -6
BITMAP
FF3FE0FC
7C0F8078
3C070030
1C078020
1C038060
1E038060
0E01C040
0F01C0C0
0703E0C0
0702E080
0786E180
0386F180
03847100
01CC7300
01C83B00
01E83A00
00F83E00
00F01E00
00F01C00
00701C00
00600C00
00200800
00000000
00000000
00038000
00038000
00038000
00038000
ENDCHAR
STARTCHAR uni1E89
ENCODING 7817
SWIDTH 749 0
DWIDTH 24 0
BBX 25 22 -1 -6
BITMAP
FE3F0F80
3C1E0780
1C0E0200
1C0E0600
1C0E0600
0E0F0400
0E0F0C00
071B0800
07138800
07139800
03B19000
03A1D000
01A1F000
01C0E000
01C0E000
00C04000
00000000
00000000
000C0000
001E0000
001E0000
000C0000
ENDCHAR
STARTCHAR uni1E8A
ENCODING 7818
SWIDTH 664 0
DWIDTH 21 0
BBX 21 27 0 0
BITMAP
003000
007800
007800
003000
000000
7F87F8
3F01E0
0E01C0
0F0180
078300
038200
03C600
01CC00
00F800
00F000
007000
007800
00FC00
019C00
011E00
030F00
060700
0C0780
0C03C0
1803C0
3803F0
FE0FF8
ENDCHAR
STARTCHAR uni1E8B
ENCODING 7819
SWIDTH 479 0
DWIDTH 15 0
BBX 15 22 0 0
BITMAP
0180
03C0
03C0
0180
0000
0000
FE3E
3C1C
1C18
1C30
0E20
0740
0780
0380
03C0
06E0
04E0
0C70
1878
3038
703E
F87E
ENDCHAR
STARTCHAR uni1E8C
ENCODING 7820
SWIDTH 664 0
DWIDTH 21 0
BBX 21 27 0 0
BITMAP
038700
038700
038700
038700
000000
7F87F8
3F01E0
0E01C0
0F0180
078300
038200
03C600
01CC00
00F800
00F000
007000
007800
00FC00
019C00
011E00
030F00
060700
0C0780
0C03C0
1803C0
3803F0
FE0FF8
ENDCHAR
STARTCHAR uni1E8D
ENCODING 7821
SWIDTH 479 0
DWIDTH 15 0
BBX 15 22 0 0
BITMAP
1838
1C38
3C38
1C30
0000
0000
FE3E
3C1C
1C18
1C30
0E20
0740
0780
0380
03C0
06E0
04E0
0C70
1878
3038
703E
F87E
ENDCHAR
STARTCHAR uni1E8E
ENCODING 7822
SWIDTH 647 0
DWIDTH 21 0
BBX 21 27 0 0
BITMAP
003000
007800
007800
003000
000000
FF03F8
7E00E0
3C00C0
1E0180
0E0180
070300
078200
038600
03C400
01CC00
00F800
00F800
007000
007000
007000
007000
007000
007000
007000
007000
00F800
03FE00
ENDCHAR
STARTCHAR uni1E8F
ENCODING 7823
SWIDTH 483 0
DWIDTH 15 0
BBX 16 29 0 -7
BITMAP
0180
03C0
03C0
0180
0000
0000
FC3F
780E
380C
3808
3C18
1C18
1C10
0E30
0E30
0720
0760
0340
03C0
01C0
0180
0180
0100
0300
0300
0600
F600
FC00
7800
ENDCHAR
STARTCHAR uni1E90
ENCODING 7824
SWIDTH 594 0
DWIDTH 19 0
BBX 17 28 1 0
BITMAP
00C000
01E000
03F000
031800
0C0C00
000000
7FFF80
780700
600F00
601E00
401C00
403C00
003800
007800
00F000
00E000
01E000
03C000
038000
078000
0F0000
0E0000
1E0080
3C0080
380180
780180
F00F00
FFFF00
ENDCHAR
ENDFONT
